0
SECTION
2
HEADER
0
ENDSEC
0
SECTION
2
TABLES
0
ENDSEC
0
SECTION
2
BLOCKS
0
ENDSEC
0
SECTION
2
ENTITIES
0
LINE
8
0_WALLS
62
7
10
0.00
20
0.00
30
0.0
11
10200.00
21
0.00
31
0.0
0
LINE
8
0_WALLS
62
7
10
10200.00
20
0.00
30
0.0
11
10200.00
21
4200.00
31
0.0
0
LINE
8
0_WALLS
62
7
10
10200.00
20
4200.00
30
0.0
11
0.00
21
4200.00
31
0.0
0
LINE
8
0_WALLS
62
7
10
0.00
20
4200.00
30
0.0
11
0.00
21
0.00
31
0.0
0
TEXT
8
ANNOTATIONS
62
7
10
200.00
20
200.00
30
0.0
40
200.00
1
ROOM: Orchard Focus Library (ROOM-04)
0
LINE
8
0_DOORS
62
1
10
1800.00
20
0.00
30
0.0
11
800.00
21
0.00
31
0.0
0
TEXT
8
0_DOORS
62
1
10
1350.00
20
50.00
30
0.0
40
100.00
1
DOOR D1 (outward_right)
0
TEXT
8
0_WINDOWS
62
5
10
100.00
20
100.00
30
0.0
40
100.00
1
WINDOW (7000.0mm)
0
LINE
8
0_EGRESS
62
4
10
1300.00
20
0.00
30
0.0
11
9500.00
21
3400.00
31
0.0
0
TEXT
8
0_EGRESS
62
4
10
5400.00
20
1700.00
30
0.0
40
120.00
1
PRIMARY EGRESS PATH (1100mm CLEAR)
0
LINE
8
FURN_DESK
62
3
10
4870.00
20
120.00
30
0.0
11
6070.00
21
120.00
31
0.0
0
LINE
8
FURN_DESK
62
3
10
6070.00
20
120.00
30
0.0
11
6070.00
21
870.00
31
0.0
0
LINE
8
FURN_DESK
62
3
10
6070.00
20
870.00
30
0.0
11
4870.00
21
870.00
31
0.0
0
LINE
8
FURN_DESK
62
3
10
4870.00
20
870.00
30
0.0
11
4870.00
21
120.00
31
0.0
0
TEXT
8
ANNOTATIONS
62
3
10
5270.00
20
495.00
30
0.0
40
90.00
1
NW-DES-009
(F17)
0
LINE
8
FURN_DESK
62
3
10
6070.00
20
120.00
30
0.0
11
7270.00
21
120.00
31
0.0
0
LINE
8
FURN_DESK
62
3
10
7270.00
20
120.00
30
0.0
11
7270.00
21
870.00
31
0.0
0
LINE
8
FURN_DESK
62
3
10
7270.00
20
870.00
30
0.0
11
6070.00
21
870.00
31
0.0
0
LINE
8
FURN_DESK
62
3
10
6070.00
20
870.00
30
0.0
11
6070.00
21
120.00
31
0.0
0
TEXT
8
ANNOTATIONS
62
3
10
6470.00
20
495.00
30
0.0
40
90.00
1
NW-DES-009
(F17)
0
LINE
8
FURN_DESK
62
3
10
7270.00
20
120.00
30
0.0
11
8470.00
21
120.00
31
0.0
0
LINE
8
FURN_DESK
62
3
10
8470.00
20
120.00
30
0.0
11
8470.00
21
870.00
31
0.0
0
LINE
8
FURN_DESK
62
3
10
8470.00
20
870.00
30
0.0
11
7270.00
21
870.00
31
0.0
0
LINE
8
FURN_DESK
62
3
10
7270.00
20
870.00
30
0.0
11
7270.00
21
120.00
31
0.0
0
TEXT
8
ANNOTATIONS
62
3
10
7670.00
20
495.00
30
0.0
40
90.00
1
NW-DES-009
(F17)
0
LINE
8
FURN_DESK
62
3
10
8470.00
20
120.00
30
0.0
11
9670.00
21
120.00
31
0.0
0
LINE
8
FURN_DESK
62
3
10
9670.00
20
120.00
30
0.0
11
9670.00
21
870.00
31
0.0
0
LINE
8
FURN_DESK
62
3
10
9670.00
20
870.00
30
0.0
11
8470.00
21
870.00
31
0.0
0
LINE
8
FURN_DESK
62
3
10
8470.00
20
870.00
30
0.0
11
8470.00
21
120.00
31
0.0
0
TEXT
8
ANNOTATIONS
62
3
10
8870.00
20
495.00
30
0.0
40
90.00
1
NW-DES-009
(F17)
0
LINE
8
FURN_DESK
62
3
10
120.00
20
720.00
30
0.0
11
1320.00
21
720.00
31
0.0
0
LINE
8
FURN_DESK
62
3
10
1320.00
20
720.00
30
0.0
11
1320.00
21
1470.00
31
0.0
0
LINE
8
FURN_DESK
62
3
10
1320.00
20
1470.00
30
0.0
11
120.00
21
1470.00
31
0.0
0
LINE
8
FURN_DESK
62
3
10
120.00
20
1470.00
30
0.0
11
120.00
21
720.00
31
0.0
0
TEXT
8
ANNOTATIONS
62
3
10
520.00
20
1095.00
30
0.0
40
90.00
1
NW-DES-009
(F17)
0
LINE
8
FURN_DESK
62
3
10
6670.00
20
870.00
30
0.0
11
7870.00
21
870.00
31
0.0
0
LINE
8
FURN_DESK
62
3
10
7870.00
20
870.00
30
0.0
11
7870.00
21
1620.00
31
0.0
0
LINE
8
FURN_DESK
62
3
10
7870.00
20
1620.00
30
0.0
11
6670.00
21
1620.00
31
0.0
0
LINE
8
FURN_DESK
62
3
10
6670.00
20
1620.00
30
0.0
11
6670.00
21
870.00
31
0.0
0
TEXT
8
ANNOTATIONS
62
3
10
7070.00
20
1245.00
30
0.0
40
90.00
1
NW-DES-009
(F17)
0
LINE
8
FURN_DESK
62
3
10
7870.00
20
870.00
30
0.0
11
9070.00
21
870.00
31
0.0
0
LINE
8
FURN_DESK
62
3
10
9070.00
20
870.00
30
0.0
11
9070.00
21
1620.00
31
0.0
0
LINE
8
FURN_DESK
62
3
10
9070.00
20
1620.00
30
0.0
11
7870.00
21
1620.00
31
0.0
0
LINE
8
FURN_DESK
62
3
10
7870.00
20
1620.00
30
0.0
11
7870.00
21
870.00
31
0.0
0
TEXT
8
ANNOTATIONS
62
3
10
8270.00
20
1245.00
30
0.0
40
90.00
1
NW-DES-009
(F17)
0
LINE
8
FURN_DESK
62
3
10
1320.00
20
1120.00
30
0.0
11
2520.00
21
1120.00
31
0.0
0
LINE
8
FURN_DESK
62
3
10
2520.00
20
1120.00
30
0.0
11
2520.00
21
1870.00
31
0.0
0
LINE
8
FURN_DESK
62
3
10
2520.00
20
1870.00
30
0.0
11
1320.00
21
1870.00
31
0.0
0
LINE
8
FURN_DESK
62
3
10
1320.00
20
1870.00
30
0.0
11
1320.00
21
1120.00
31
0.0
0
TEXT
8
ANNOTATIONS
62
3
10
1720.00
20
1495.00
30
0.0
40
90.00
1
NW-DES-009
(F17)
0
LINE
8
FURN_DESK
62
3
10
120.00
20
1470.00
30
0.0
11
1320.00
21
1470.00
31
0.0
0
LINE
8
FURN_DESK
62
3
10
1320.00
20
1470.00
30
0.0
11
1320.00
21
2220.00
31
0.0
0
LINE
8
FURN_DESK
62
3
10
1320.00
20
2220.00
30
0.0
11
120.00
21
2220.00
31
0.0
0
LINE
8
FURN_DESK
62
3
10
120.00
20
2220.00
30
0.0
11
120.00
21
1470.00
31
0.0
0
TEXT
8
ANNOTATIONS
62
3
10
520.00
20
1845.00
30
0.0
40
90.00
1
NW-DES-009
(F17)
0
LINE
8
FURN_DESK
62
3
10
2520.00
20
1620.00
30
0.0
11
3720.00
21
1620.00
31
0.0
0
LINE
8
FURN_DESK
62
3
10
3720.00
20
1620.00
30
0.0
11
3720.00
21
2370.00
31
0.0
0
LINE
8
FURN_DESK
62
3
10
3720.00
20
2370.00
30
0.0
11
2520.00
21
2370.00
31
0.0
0
LINE
8
FURN_DESK
62
3
10
2520.00
20
2370.00
30
0.0
11
2520.00
21
1620.00
31
0.0
0
TEXT
8
ANNOTATIONS
62
3
10
2920.00
20
1995.00
30
0.0
40
90.00
1
NW-DES-009
(F17)
0
LINE
8
FURN_DESK
62
3
10
8470.00
20
1620.00
30
0.0
11
9670.00
21
1620.00
31
0.0
0
LINE
8
FURN_DESK
62
3
10
9670.00
20
1620.00
30
0.0
11
9670.00
21
2370.00
31
0.0
0
LINE
8
FURN_DESK
62
3
10
9670.00
20
2370.00
30
0.0
11
8470.00
21
2370.00
31
0.0
0
LINE
8
FURN_DESK
62
3
10
8470.00
20
2370.00
30
0.0
11
8470.00
21
1620.00
31
0.0
0
TEXT
8
ANNOTATIONS
62
3
10
8870.00
20
1995.00
30
0.0
40
90.00
1
NW-DES-009
(F17)
0
LINE
8
FURN_DESK
62
3
10
1320.00
20
1870.00
30
0.0
11
2520.00
21
1870.00
31
0.0
0
LINE
8
FURN_DESK
62
3
10
2520.00
20
1870.00
30
0.0
11
2520.00
21
2620.00
31
0.0
0
LINE
8
FURN_DESK
62
3
10
2520.00
20
2620.00
30
0.0
11
1320.00
21
2620.00
31
0.0
0
LINE
8
FURN_DESK
62
3
10
1320.00
20
2620.00
30
0.0
11
1320.00
21
1870.00
31
0.0
0
TEXT
8
ANNOTATIONS
62
3
10
1720.00
20
2245.00
30
0.0
40
90.00
1
NW-DES-009
(F17)
0
LINE
8
FURN_DESK
62
3
10
3720.00
20
2120.00
30
0.0
11
4920.00
21
2120.00
31
0.0
0
LINE
8
FURN_DESK
62
3
10
4920.00
20
2120.00
30
0.0
11
4920.00
21
2870.00
31
0.0
0
LINE
8
FURN_DESK
62
3
10
4920.00
20
2870.00
30
0.0
11
3720.00
21
2870.00
31
0.0
0
LINE
8
FURN_DESK
62
3
10
3720.00
20
2870.00
30
0.0
11
3720.00
21
2120.00
31
0.0
0
TEXT
8
ANNOTATIONS
62
3
10
4120.00
20
2495.00
30
0.0
40
90.00
1
NW-DES-009
(F17)
0
LINE
8
FURN_DESK
62
3
10
120.00
20
2220.00
30
0.0
11
1320.00
21
2220.00
31
0.0
0
LINE
8
FURN_DESK
62
3
10
1320.00
20
2220.00
30
0.0
11
1320.00
21
2970.00
31
0.0
0
LINE
8
FURN_DESK
62
3
10
1320.00
20
2970.00
30
0.0
11
120.00
21
2970.00
31
0.0
0
LINE
8
FURN_DESK
62
3
10
120.00
20
2970.00
30
0.0
11
120.00
21
2220.00
31
0.0
0
TEXT
8
ANNOTATIONS
62
3
10
520.00
20
2595.00
30
0.0
40
90.00
1
NW-DES-009
(F17)
0
LINE
8
FURN_CHAIR
62
2
10
120.00
20
120.00
30
0.0
11
760.00
21
120.00
31
0.0
0
LINE
8
FURN_CHAIR
62
2
10
760.00
20
120.00
30
0.0
11
760.00
21
720.00
31
0.0
0
LINE
8
FURN_CHAIR
62
2
10
760.00
20
720.00
30
0.0
11
120.00
21
720.00
31
0.0
0
LINE
8
FURN_CHAIR
62
2
10
120.00
20
720.00
30
0.0
11
120.00
21
120.00
31
0.0
0
TEXT
8
ANNOTATIONS
62
2
10
240.00
20
420.00
30
0.0
40
90.00
1
NW-CHA-012
(F18)
0
LINE
8
FURN_CHAIR
62
2
10
9070.00
20
870.00
30
0.0
11
9710.00
21
870.00
31
0.0
0
LINE
8
FURN_CHAIR
62
2
10
9710.00
20
870.00
30
0.0
11
9710.00
21
1470.00
31
0.0
0
LINE
8
FURN_CHAIR
62
2
10
9710.00
20
1470.00
30
0.0
11
9070.00
21
1470.00
31
0.0
0
LINE
8
FURN_CHAIR
62
2
10
9070.00
20
1470.00
30
0.0
11
9070.00
21
870.00
31
0.0
0
TEXT
8
ANNOTATIONS
62
2
10
9190.00
20
1170.00
30
0.0
40
90.00
1
NW-CHA-012
(F18)
0
LINE
8
FURN_CHAIR
62
2
10
2520.00
20
2370.00
30
0.0
11
3160.00
21
2370.00
31
0.0
0
LINE
8
FURN_CHAIR
62
2
10
3160.00
20
2370.00
30
0.0
11
3160.00
21
2970.00
31
0.0
0
LINE
8
FURN_CHAIR
62
2
10
3160.00
20
2970.00
30
0.0
11
2520.00
21
2970.00
31
0.0
0
LINE
8
FURN_CHAIR
62
2
10
2520.00
20
2970.00
30
0.0
11
2520.00
21
2370.00
31
0.0
0
TEXT
8
ANNOTATIONS
62
2
10
2640.00
20
2670.00
30
0.0
40
90.00
1
NW-CHA-012
(F18)
0
LINE
8
FURN_CHAIR
62
2
10
150.00
20
2850.00
30
0.0
11
790.00
21
2850.00
31
0.0
0
LINE
8
FURN_CHAIR
62
2
10
790.00
20
2850.00
30
0.0
11
790.00
21
3450.00
31
0.0
0
LINE
8
FURN_CHAIR
62
2
10
790.00
20
3450.00
30
0.0
11
150.00
21
3450.00
31
0.0
0
LINE
8
FURN_CHAIR
62
2
10
150.00
20
3450.00
30
0.0
11
150.00
21
2850.00
31
0.0
0
TEXT
8
ANNOTATIONS
62
2
10
270.00
20
3150.00
30
0.0
40
90.00
1
NW-CHA-012
(F18)
0
LINE
8
FURN_CHAIR
62
2
10
1320.00
20
2620.00
30
0.0
11
1960.00
21
2620.00
31
0.0
0
LINE
8
FURN_CHAIR
62
2
10
1960.00
20
2620.00
30
0.0
11
1960.00
21
3220.00
31
0.0
0
LINE
8
FURN_CHAIR
62
2
10
1960.00
20
3220.00
30
0.0
11
1320.00
21
3220.00
31
0.0
0
LINE
8
FURN_CHAIR
62
2
10
1320.00
20
3220.00
30
0.0
11
1320.00
21
2620.00
31
0.0
0
TEXT
8
ANNOTATIONS
62
2
10
1440.00
20
2920.00
30
0.0
40
90.00
1
NW-CHA-012
(F18)
0
LINE
8
FURN_CHAIR
62
2
10
5570.00
20
2670.00
30
0.0
11
6210.00
21
2670.00
31
0.0
0
LINE
8
FURN_CHAIR
62
2
10
6210.00
20
2670.00
30
0.0
11
6210.00
21
3270.00
31
0.0
0
LINE
8
FURN_CHAIR
62
2
10
6210.00
20
3270.00
30
0.0
11
5570.00
21
3270.00
31
0.0
0
LINE
8
FURN_CHAIR
62
2
10
5570.00
20
3270.00
30
0.0
11
5570.00
21
2670.00
31
0.0
0
TEXT
8
ANNOTATIONS
62
2
10
5690.00
20
2970.00
30
0.0
40
90.00
1
NW-CHA-012
(F18)
0
LINE
8
FURN_CHAIR
62
2
10
3790.00
20
2900.00
30
0.0
11
3790.00
21
3540.00
31
0.0
0
LINE
8
FURN_CHAIR
62
2
10
3790.00
20
3540.00
30
0.0
11
3190.00
21
3540.00
31
0.0
0
LINE
8
FURN_CHAIR
62
2
10
3190.00
20
3540.00
30
0.0
11
3190.00
21
2900.00
31
0.0
0
LINE
8
FURN_CHAIR
62
2
10
3190.00
20
2900.00
30
0.0
11
3790.00
21
2900.00
31
0.0
0
TEXT
8
ANNOTATIONS
62
2
10
3290.00
20
3220.00
30
0.0
40
90.00
1
NW-CHA-012
(F18)
0
LINE
8
FURN_CHAIR
62
2
10
4390.00
20
2900.00
30
0.0
11
4390.00
21
3540.00
31
0.0
0
LINE
8
FURN_CHAIR
62
2
10
4390.00
20
3540.00
30
0.0
11
3790.00
21
3540.00
31
0.0
0
LINE
8
FURN_CHAIR
62
2
10
3790.00
20
3540.00
30
0.0
11
3790.00
21
2900.00
31
0.0
0
LINE
8
FURN_CHAIR
62
2
10
3790.00
20
2900.00
30
0.0
11
4390.00
21
2900.00
31
0.0
0
TEXT
8
ANNOTATIONS
62
2
10
3890.00
20
3220.00
30
0.0
40
90.00
1
NW-CHA-012
(F18)
0
LINE
8
FURN_CHAIR
62
2
10
6840.00
20
2900.00
30
0.0
11
6840.00
21
3540.00
31
0.0
0
LINE
8
FURN_CHAIR
62
2
10
6840.00
20
3540.00
30
0.0
11
6240.00
21
3540.00
31
0.0
0
LINE
8
FURN_CHAIR
62
2
10
6240.00
20
3540.00
30
0.0
11
6240.00
21
2900.00
31
0.0
0
LINE
8
FURN_CHAIR
62
2
10
6240.00
20
2900.00
30
0.0
11
6840.00
21
2900.00
31
0.0
0
TEXT
8
ANNOTATIONS
62
2
10
6340.00
20
3220.00
30
0.0
40
90.00
1
NW-CHA-012
(F18)
0
LINE
8
FURN_CHAIR
62
2
10
2590.00
20
3000.00
30
0.0
11
2590.00
21
3640.00
31
0.0
0
LINE
8
FURN_CHAIR
62
2
10
2590.00
20
3640.00
30
0.0
11
1990.00
21
3640.00
31
0.0
0
LINE
8
FURN_CHAIR
62
2
10
1990.00
20
3640.00
30
0.0
11
1990.00
21
3000.00
31
0.0
0
LINE
8
FURN_CHAIR
62
2
10
1990.00
20
3000.00
30
0.0
11
2590.00
21
3000.00
31
0.0
0
TEXT
8
ANNOTATIONS
62
2
10
2090.00
20
3320.00
30
0.0
40
90.00
1
NW-CHA-012
(F18)
0
LINE
8
FURN_CHAIR
62
2
10
3190.00
20
3000.00
30
0.0
11
3190.00
21
3640.00
31
0.0
0
LINE
8
FURN_CHAIR
62
2
10
3190.00
20
3640.00
30
0.0
11
2590.00
21
3640.00
31
0.0
0
LINE
8
FURN_CHAIR
62
2
10
2590.00
20
3640.00
30
0.0
11
2590.00
21
3000.00
31
0.0
0
LINE
8
FURN_CHAIR
62
2
10
2590.00
20
3000.00
30
0.0
11
3190.00
21
3000.00
31
0.0
0
TEXT
8
ANNOTATIONS
62
2
10
2690.00
20
3320.00
30
0.0
40
90.00
1
NW-CHA-012
(F18)
0
LINE
8
FURN_CHAIR
62
2
10
4990.00
20
3000.00
30
0.0
11
4990.00
21
3640.00
31
0.0
0
LINE
8
FURN_CHAIR
62
2
10
4990.00
20
3640.00
30
0.0
11
4390.00
21
3640.00
31
0.0
0
LINE
8
FURN_CHAIR
62
2
10
4390.00
20
3640.00
30
0.0
11
4390.00
21
3000.00
31
0.0
0
LINE
8
FURN_CHAIR
62
2
10
4390.00
20
3000.00
30
0.0
11
4990.00
21
3000.00
31
0.0
0
TEXT
8
ANNOTATIONS
62
2
10
4490.00
20
3320.00
30
0.0
40
90.00
1
NW-CHA-012
(F18)
0
LINE
8
FURN_CHAIR
62
2
10
7440.00
20
3150.00
30
0.0
11
7440.00
21
3790.00
31
0.0
0
LINE
8
FURN_CHAIR
62
2
10
7440.00
20
3790.00
30
0.0
11
6840.00
21
3790.00
31
0.0
0
LINE
8
FURN_CHAIR
62
2
10
6840.00
20
3790.00
30
0.0
11
6840.00
21
3150.00
31
0.0
0
LINE
8
FURN_CHAIR
62
2
10
6840.00
20
3150.00
30
0.0
11
7440.00
21
3150.00
31
0.0
0
TEXT
8
ANNOTATIONS
62
2
10
6940.00
20
3470.00
30
0.0
40
90.00
1
NW-CHA-012
(F18)
0
LINE
8
FURN_CHAIR
62
2
10
1390.00
20
3250.00
30
0.0
11
1390.00
21
3890.00
31
0.0
0
LINE
8
FURN_CHAIR
62
2
10
1390.00
20
3890.00
30
0.0
11
790.00
21
3890.00
31
0.0
0
LINE
8
FURN_CHAIR
62
2
10
790.00
20
3890.00
30
0.0
11
790.00
21
3250.00
31
0.0
0
LINE
8
FURN_CHAIR
62
2
10
790.00
20
3250.00
30
0.0
11
1390.00
21
3250.00
31
0.0
0
TEXT
8
ANNOTATIONS
62
2
10
890.00
20
3570.00
30
0.0
40
90.00
1
NW-CHA-012
(F18)
0
LINE
8
FURN_STORAGE
62
6
10
5020.00
20
3270.00
30
0.0
11
6220.00
21
3270.00
31
0.0
0
LINE
8
FURN_STORAGE
62
6
10
6220.00
20
3270.00
30
0.0
11
6220.00
21
3770.00
31
0.0
0
LINE
8
FURN_STORAGE
62
6
10
6220.00
20
3770.00
30
0.0
11
5020.00
21
3770.00
31
0.0
0
LINE
8
FURN_STORAGE
62
6
10
5020.00
20
3770.00
30
0.0
11
5020.00
21
3270.00
31
0.0
0
TEXT
8
ANNOTATIONS
62
6
10
5420.00
20
3520.00
30
0.0
40
90.00
1
NW-STO-011
(F04)
0
ENDSEC
0
EOF
