0
SECTION
2
HEADER
0
ENDSEC
0
SECTION
2
TABLES
0
ENDSEC
0
SECTION
2
BLOCKS
0
ENDSEC
0
SECTION
2
ENTITIES
0
LINE
8
0_WALLS
62
7
10
0.00
20
0.00
30
0.0
11
10200.00
21
0.00
31
0.0
0
LINE
8
0_WALLS
62
7
10
10200.00
20
0.00
30
0.0
11
10200.00
21
4200.00
31
0.0
0
LINE
8
0_WALLS
62
7
10
10200.00
20
4200.00
30
0.0
11
0.00
21
4200.00
31
0.0
0
LINE
8
0_WALLS
62
7
10
0.00
20
4200.00
30
0.0
11
0.00
21
0.00
31
0.0
0
TEXT
8
ANNOTATIONS
62
7
10
200.00
20
200.00
30
0.0
40
200.00
1
ROOM: Orchard Focus Library (ROOM-04)
0
LINE
8
0_DOORS
62
1
10
1800.00
20
0.00
30
0.0
11
800.00
21
0.00
31
0.0
0
TEXT
8
0_DOORS
62
1
10
1350.00
20
50.00
30
0.0
40
100.00
1
DOOR D1 (outward_right)
0
TEXT
8
0_WINDOWS
62
5
10
100.00
20
100.00
30
0.0
40
100.00
1
WINDOW (7000.0mm)
0
LINE
8
0_EGRESS
62
4
10
1300.00
20
0.00
30
0.0
11
9500.00
21
3400.00
31
0.0
0
TEXT
8
0_EGRESS
62
4
10
5400.00
20
1700.00
30
0.0
40
120.00
1
PRIMARY EGRESS PATH (1100mm CLEAR)
0
LINE
8
FURN_DESK
62
3
10
4520.00
20
120.00
30
0.0
11
5720.00
21
120.00
31
0.0
0
LINE
8
FURN_DESK
62
3
10
5720.00
20
120.00
30
0.0
11
5720.00
21
720.00
31
0.0
0
LINE
8
FURN_DESK
62
3
10
5720.00
20
720.00
30
0.0
11
4520.00
21
720.00
31
0.0
0
LINE
8
FURN_DESK
62
3
10
4520.00
20
720.00
30
0.0
11
4520.00
21
120.00
31
0.0
0
TEXT
8
ANNOTATIONS
62
3
10
4920.00
20
420.00
30
0.0
40
90.00
1
NW-DES-001
(F17)
0
LINE
8
FURN_DESK
62
3
10
5720.00
20
120.00
30
0.0
11
6920.00
21
120.00
31
0.0
0
LINE
8
FURN_DESK
62
3
10
6920.00
20
120.00
30
0.0
11
6920.00
21
720.00
31
0.0
0
LINE
8
FURN_DESK
62
3
10
6920.00
20
720.00
30
0.0
11
5720.00
21
720.00
31
0.0
0
LINE
8
FURN_DESK
62
3
10
5720.00
20
720.00
30
0.0
11
5720.00
21
120.00
31
0.0
0
TEXT
8
ANNOTATIONS
62
3
10
6120.00
20
420.00
30
0.0
40
90.00
1
NW-DES-001
(F17)
0
LINE
8
FURN_DESK
62
3
10
6920.00
20
120.00
30
0.0
11
8120.00
21
120.00
31
0.0
0
LINE
8
FURN_DESK
62
3
10
8120.00
20
120.00
30
0.0
11
8120.00
21
720.00
31
0.0
0
LINE
8
FURN_DESK
62
3
10
8120.00
20
720.00
30
0.0
11
6920.00
21
720.00
31
0.0
0
LINE
8
FURN_DESK
62
3
10
6920.00
20
720.00
30
0.0
11
6920.00
21
120.00
31
0.0
0
TEXT
8
ANNOTATIONS
62
3
10
7320.00
20
420.00
30
0.0
40
90.00
1
NW-DES-001
(F17)
0
LINE
8
FURN_DESK
62
3
10
8120.00
20
120.00
30
0.0
11
9320.00
21
120.00
31
0.0
0
LINE
8
FURN_DESK
62
3
10
9320.00
20
120.00
30
0.0
11
9320.00
21
720.00
31
0.0
0
LINE
8
FURN_DESK
62
3
10
9320.00
20
720.00
30
0.0
11
8120.00
21
720.00
31
0.0
0
LINE
8
FURN_DESK
62
3
10
8120.00
20
720.00
30
0.0
11
8120.00
21
120.00
31
0.0
0
TEXT
8
ANNOTATIONS
62
3
10
8520.00
20
420.00
30
0.0
40
90.00
1
NW-DES-001
(F17)
0
LINE
8
FURN_DESK
62
3
10
120.00
20
720.00
30
0.0
11
1320.00
21
720.00
31
0.0
0
LINE
8
FURN_DESK
62
3
10
1320.00
20
720.00
30
0.0
11
1320.00
21
1320.00
31
0.0
0
LINE
8
FURN_DESK
62
3
10
1320.00
20
1320.00
30
0.0
11
120.00
21
1320.00
31
0.0
0
LINE
8
FURN_DESK
62
3
10
120.00
20
1320.00
30
0.0
11
120.00
21
720.00
31
0.0
0
TEXT
8
ANNOTATIONS
62
3
10
520.00
20
1020.00
30
0.0
40
90.00
1
NW-DES-001
(F17)
0
LINE
8
FURN_DESK
62
3
10
5920.00
20
720.00
30
0.0
11
7120.00
21
720.00
31
0.0
0
LINE
8
FURN_DESK
62
3
10
7120.00
20
720.00
30
0.0
11
7120.00
21
1320.00
31
0.0
0
LINE
8
FURN_DESK
62
3
10
7120.00
20
1320.00
30
0.0
11
5920.00
21
1320.00
31
0.0
0
LINE
8
FURN_DESK
62
3
10
5920.00
20
1320.00
30
0.0
11
5920.00
21
720.00
31
0.0
0
TEXT
8
ANNOTATIONS
62
3
10
6320.00
20
1020.00
30
0.0
40
90.00
1
NW-DES-001
(F17)
0
LINE
8
FURN_DESK
62
3
10
7120.00
20
720.00
30
0.0
11
8320.00
21
720.00
31
0.0
0
LINE
8
FURN_DESK
62
3
10
8320.00
20
720.00
30
0.0
11
8320.00
21
1320.00
31
0.0
0
LINE
8
FURN_DESK
62
3
10
8320.00
20
1320.00
30
0.0
11
7120.00
21
1320.00
31
0.0
0
LINE
8
FURN_DESK
62
3
10
7120.00
20
1320.00
30
0.0
11
7120.00
21
720.00
31
0.0
0
TEXT
8
ANNOTATIONS
62
3
10
7520.00
20
1020.00
30
0.0
40
90.00
1
NW-DES-001
(F17)
0
LINE
8
FURN_DESK
62
3
10
8320.00
20
720.00
30
0.0
11
9520.00
21
720.00
31
0.0
0
LINE
8
FURN_DESK
62
3
10
9520.00
20
720.00
30
0.0
11
9520.00
21
1320.00
31
0.0
0
LINE
8
FURN_DESK
62
3
10
9520.00
20
1320.00
30
0.0
11
8320.00
21
1320.00
31
0.0
0
LINE
8
FURN_DESK
62
3
10
8320.00
20
1320.00
30
0.0
11
8320.00
21
720.00
31
0.0
0
TEXT
8
ANNOTATIONS
62
3
10
8720.00
20
1020.00
30
0.0
40
90.00
1
NW-DES-001
(F17)
0
LINE
8
FURN_DESK
62
3
10
1320.00
20
1120.00
30
0.0
11
2520.00
21
1120.00
31
0.0
0
LINE
8
FURN_DESK
62
3
10
2520.00
20
1120.00
30
0.0
11
2520.00
21
1720.00
31
0.0
0
LINE
8
FURN_DESK
62
3
10
2520.00
20
1720.00
30
0.0
11
1320.00
21
1720.00
31
0.0
0
LINE
8
FURN_DESK
62
3
10
1320.00
20
1720.00
30
0.0
11
1320.00
21
1120.00
31
0.0
0
TEXT
8
ANNOTATIONS
62
3
10
1720.00
20
1420.00
30
0.0
40
90.00
1
NW-DES-001
(F17)
0
LINE
8
FURN_DESK
62
3
10
120.00
20
1320.00
30
0.0
11
1320.00
21
1320.00
31
0.0
0
LINE
8
FURN_DESK
62
3
10
1320.00
20
1320.00
30
0.0
11
1320.00
21
1920.00
31
0.0
0
LINE
8
FURN_DESK
62
3
10
1320.00
20
1920.00
30
0.0
11
120.00
21
1920.00
31
0.0
0
LINE
8
FURN_DESK
62
3
10
120.00
20
1920.00
30
0.0
11
120.00
21
1320.00
31
0.0
0
TEXT
8
ANNOTATIONS
62
3
10
520.00
20
1620.00
30
0.0
40
90.00
1
NW-DES-001
(F17)
0
LINE
8
FURN_DESK
62
3
10
7370.00
20
1320.00
30
0.0
11
8570.00
21
1320.00
31
0.0
0
LINE
8
FURN_DESK
62
3
10
8570.00
20
1320.00
30
0.0
11
8570.00
21
1920.00
31
0.0
0
LINE
8
FURN_DESK
62
3
10
8570.00
20
1920.00
30
0.0
11
7370.00
21
1920.00
31
0.0
0
LINE
8
FURN_DESK
62
3
10
7370.00
20
1920.00
30
0.0
11
7370.00
21
1320.00
31
0.0
0
TEXT
8
ANNOTATIONS
62
3
10
7770.00
20
1620.00
30
0.0
40
90.00
1
NW-DES-001
(F17)
0
LINE
8
FURN_DESK
62
3
10
8570.00
20
1320.00
30
0.0
11
9770.00
21
1320.00
31
0.0
0
LINE
8
FURN_DESK
62
3
10
9770.00
20
1320.00
30
0.0
11
9770.00
21
1920.00
31
0.0
0
LINE
8
FURN_DESK
62
3
10
9770.00
20
1920.00
30
0.0
11
8570.00
21
1920.00
31
0.0
0
LINE
8
FURN_DESK
62
3
10
8570.00
20
1920.00
30
0.0
11
8570.00
21
1320.00
31
0.0
0
TEXT
8
ANNOTATIONS
62
3
10
8970.00
20
1620.00
30
0.0
40
90.00
1
NW-DES-001
(F17)
0
LINE
8
FURN_DESK
62
3
10
2520.00
20
1620.00
30
0.0
11
3720.00
21
1620.00
31
0.0
0
LINE
8
FURN_DESK
62
3
10
3720.00
20
1620.00
30
0.0
11
3720.00
21
2220.00
31
0.0
0
LINE
8
FURN_DESK
62
3
10
3720.00
20
2220.00
30
0.0
11
2520.00
21
2220.00
31
0.0
0
LINE
8
FURN_DESK
62
3
10
2520.00
20
2220.00
30
0.0
11
2520.00
21
1620.00
31
0.0
0
TEXT
8
ANNOTATIONS
62
3
10
2920.00
20
1920.00
30
0.0
40
90.00
1
NW-DES-001
(F17)
0
LINE
8
FURN_DESK
62
3
10
1320.00
20
1720.00
30
0.0
11
2520.00
21
1720.00
31
0.0
0
LINE
8
FURN_DESK
62
3
10
2520.00
20
1720.00
30
0.0
11
2520.00
21
2320.00
31
0.0
0
LINE
8
FURN_DESK
62
3
10
2520.00
20
2320.00
30
0.0
11
1320.00
21
2320.00
31
0.0
0
LINE
8
FURN_DESK
62
3
10
1320.00
20
2320.00
30
0.0
11
1320.00
21
1720.00
31
0.0
0
TEXT
8
ANNOTATIONS
62
3
10
1720.00
20
2020.00
30
0.0
40
90.00
1
NW-DES-001
(F17)
0
LINE
8
FURN_CHAIR
62
2
10
120.00
20
120.00
30
0.0
11
760.00
21
120.00
31
0.0
0
LINE
8
FURN_CHAIR
62
2
10
760.00
20
120.00
30
0.0
11
760.00
21
720.00
31
0.0
0
LINE
8
FURN_CHAIR
62
2
10
760.00
20
720.00
30
0.0
11
120.00
21
720.00
31
0.0
0
LINE
8
FURN_CHAIR
62
2
10
120.00
20
720.00
30
0.0
11
120.00
21
120.00
31
0.0
0
TEXT
8
ANNOTATIONS
62
2
10
240.00
20
420.00
30
0.0
40
90.00
1
NW-CHA-012
(F18)
0
LINE
8
FURN_CHAIR
62
2
10
9320.00
20
120.00
30
0.0
11
9960.00
21
120.00
31
0.0
0
LINE
8
FURN_CHAIR
62
2
10
9960.00
20
120.00
30
0.0
11
9960.00
21
720.00
31
0.0
0
LINE
8
FURN_CHAIR
62
2
10
9960.00
20
720.00
30
0.0
11
9320.00
21
720.00
31
0.0
0
LINE
8
FURN_CHAIR
62
2
10
9320.00
20
720.00
30
0.0
11
9320.00
21
120.00
31
0.0
0
TEXT
8
ANNOTATIONS
62
2
10
9440.00
20
420.00
30
0.0
40
90.00
1
NW-CHA-012
(F18)
0
LINE
8
FURN_CHAIR
62
2
10
3720.00
20
1870.00
30
0.0
11
4360.00
21
1870.00
31
0.0
0
LINE
8
FURN_CHAIR
62
2
10
4360.00
20
1870.00
30
0.0
11
4360.00
21
2470.00
31
0.0
0
LINE
8
FURN_CHAIR
62
2
10
4360.00
20
2470.00
30
0.0
11
3720.00
21
2470.00
31
0.0
0
LINE
8
FURN_CHAIR
62
2
10
3720.00
20
2470.00
30
0.0
11
3720.00
21
1870.00
31
0.0
0
TEXT
8
ANNOTATIONS
62
2
10
3840.00
20
2170.00
30
0.0
40
90.00
1
NW-CHA-012
(F18)
0
LINE
8
FURN_CHAIR
62
2
10
120.00
20
1920.00
30
0.0
11
760.00
21
1920.00
31
0.0
0
LINE
8
FURN_CHAIR
62
2
10
760.00
20
1920.00
30
0.0
11
760.00
21
2520.00
31
0.0
0
LINE
8
FURN_CHAIR
62
2
10
760.00
20
2520.00
30
0.0
11
120.00
21
2520.00
31
0.0
0
LINE
8
FURN_CHAIR
62
2
10
120.00
20
2520.00
30
0.0
11
120.00
21
1920.00
31
0.0
0
TEXT
8
ANNOTATIONS
62
2
10
240.00
20
2220.00
30
0.0
40
90.00
1
NW-CHA-012
(F18)
0
LINE
8
FURN_CHAIR
62
2
10
8820.00
20
1920.00
30
0.0
11
9460.00
21
1920.00
31
0.0
0
LINE
8
FURN_CHAIR
62
2
10
9460.00
20
1920.00
30
0.0
11
9460.00
21
2520.00
31
0.0
0
LINE
8
FURN_CHAIR
62
2
10
9460.00
20
2520.00
30
0.0
11
8820.00
21
2520.00
31
0.0
0
LINE
8
FURN_CHAIR
62
2
10
8820.00
20
2520.00
30
0.0
11
8820.00
21
1920.00
31
0.0
0
TEXT
8
ANNOTATIONS
62
2
10
8940.00
20
2220.00
30
0.0
40
90.00
1
NW-CHA-012
(F18)
0
LINE
8
FURN_CHAIR
62
2
10
4370.00
20
2170.00
30
0.0
11
5010.00
21
2170.00
31
0.0
0
LINE
8
FURN_CHAIR
62
2
10
5010.00
20
2170.00
30
0.0
11
5010.00
21
2770.00
31
0.0
0
LINE
8
FURN_CHAIR
62
2
10
5010.00
20
2770.00
30
0.0
11
4370.00
21
2770.00
31
0.0
0
LINE
8
FURN_CHAIR
62
2
10
4370.00
20
2770.00
30
0.0
11
4370.00
21
2170.00
31
0.0
0
TEXT
8
ANNOTATIONS
62
2
10
4490.00
20
2470.00
30
0.0
40
90.00
1
NW-CHA-012
(F18)
0
LINE
8
FURN_CHAIR
62
2
10
2520.00
20
2220.00
30
0.0
11
3160.00
21
2220.00
31
0.0
0
LINE
8
FURN_CHAIR
62
2
10
3160.00
20
2220.00
30
0.0
11
3160.00
21
2820.00
31
0.0
0
LINE
8
FURN_CHAIR
62
2
10
3160.00
20
2820.00
30
0.0
11
2520.00
21
2820.00
31
0.0
0
LINE
8
FURN_CHAIR
62
2
10
2520.00
20
2820.00
30
0.0
11
2520.00
21
2220.00
31
0.0
0
TEXT
8
ANNOTATIONS
62
2
10
2640.00
20
2520.00
30
0.0
40
90.00
1
NW-CHA-012
(F18)
0
LINE
8
FURN_CHAIR
62
2
10
770.00
20
2320.00
30
0.0
11
1410.00
21
2320.00
31
0.0
0
LINE
8
FURN_CHAIR
62
2
10
1410.00
20
2320.00
30
0.0
11
1410.00
21
2920.00
31
0.0
0
LINE
8
FURN_CHAIR
62
2
10
1410.00
20
2920.00
30
0.0
11
770.00
21
2920.00
31
0.0
0
LINE
8
FURN_CHAIR
62
2
10
770.00
20
2920.00
30
0.0
11
770.00
21
2320.00
31
0.0
0
TEXT
8
ANNOTATIONS
62
2
10
890.00
20
2620.00
30
0.0
40
90.00
1
NW-CHA-012
(F18)
0
LINE
8
FURN_CHAIR
62
2
10
1420.00
20
2320.00
30
0.0
11
2060.00
21
2320.00
31
0.0
0
LINE
8
FURN_CHAIR
62
2
10
2060.00
20
2320.00
30
0.0
11
2060.00
21
2920.00
31
0.0
0
LINE
8
FURN_CHAIR
62
2
10
2060.00
20
2920.00
30
0.0
11
1420.00
21
2920.00
31
0.0
0
LINE
8
FURN_CHAIR
62
2
10
1420.00
20
2920.00
30
0.0
11
1420.00
21
2320.00
31
0.0
0
TEXT
8
ANNOTATIONS
62
2
10
1540.00
20
2620.00
30
0.0
40
90.00
1
NW-CHA-012
(F18)
0
LINE
8
FURN_CHAIR
62
2
10
5020.00
20
2420.00
30
0.0
11
5660.00
21
2420.00
31
0.0
0
LINE
8
FURN_CHAIR
62
2
10
5660.00
20
2420.00
30
0.0
11
5660.00
21
3020.00
31
0.0
0
LINE
8
FURN_CHAIR
62
2
10
5660.00
20
3020.00
30
0.0
11
5020.00
21
3020.00
31
0.0
0
LINE
8
FURN_CHAIR
62
2
10
5020.00
20
3020.00
30
0.0
11
5020.00
21
2420.00
31
0.0
0
TEXT
8
ANNOTATIONS
62
2
10
5140.00
20
2720.00
30
0.0
40
90.00
1
NW-CHA-012
(F18)
0
LINE
8
FURN_CHAIR
62
2
10
3170.00
20
2470.00
30
0.0
11
3810.00
21
2470.00
31
0.0
0
LINE
8
FURN_CHAIR
62
2
10
3810.00
20
2470.00
30
0.0
11
3810.00
21
3070.00
31
0.0
0
LINE
8
FURN_CHAIR
62
2
10
3810.00
20
3070.00
30
0.0
11
3170.00
21
3070.00
31
0.0
0
LINE
8
FURN_CHAIR
62
2
10
3170.00
20
3070.00
30
0.0
11
3170.00
21
2470.00
31
0.0
0
TEXT
8
ANNOTATIONS
62
2
10
3290.00
20
2770.00
30
0.0
40
90.00
1
NW-CHA-012
(F18)
0
LINE
8
FURN_CHAIR
62
2
10
120.00
20
2520.00
30
0.0
11
760.00
21
2520.00
31
0.0
0
LINE
8
FURN_CHAIR
62
2
10
760.00
20
2520.00
30
0.0
11
760.00
21
3120.00
31
0.0
0
LINE
8
FURN_CHAIR
62
2
10
760.00
20
3120.00
30
0.0
11
120.00
21
3120.00
31
0.0
0
LINE
8
FURN_CHAIR
62
2
10
120.00
20
3120.00
30
0.0
11
120.00
21
2520.00
31
0.0
0
TEXT
8
ANNOTATIONS
62
2
10
240.00
20
2820.00
30
0.0
40
90.00
1
NW-CHA-012
(F18)
0
LINE
8
FURN_CHAIR
62
2
10
5670.00
20
2720.00
30
0.0
11
6310.00
21
2720.00
31
0.0
0
LINE
8
FURN_CHAIR
62
2
10
6310.00
20
2720.00
30
0.0
11
6310.00
21
3320.00
31
0.0
0
LINE
8
FURN_CHAIR
62
2
10
6310.00
20
3320.00
30
0.0
11
5670.00
21
3320.00
31
0.0
0
LINE
8
FURN_CHAIR
62
2
10
5670.00
20
3320.00
30
0.0
11
5670.00
21
2720.00
31
0.0
0
TEXT
8
ANNOTATIONS
62
2
10
5790.00
20
3020.00
30
0.0
40
90.00
1
NW-CHA-012
(F18)
0
LINE
8
FURN_CHAIR
62
2
10
3820.00
20
2770.00
30
0.0
11
4460.00
21
2770.00
31
0.0
0
LINE
8
FURN_CHAIR
62
2
10
4460.00
20
2770.00
30
0.0
11
4460.00
21
3370.00
31
0.0
0
LINE
8
FURN_CHAIR
62
2
10
4460.00
20
3370.00
30
0.0
11
3820.00
21
3370.00
31
0.0
0
LINE
8
FURN_CHAIR
62
2
10
3820.00
20
3370.00
30
0.0
11
3820.00
21
2770.00
31
0.0
0
TEXT
8
ANNOTATIONS
62
2
10
3940.00
20
3070.00
30
0.0
40
90.00
1
NW-CHA-012
(F18)
0
LINE
8
FURN_STORAGE
62
6
10
770.00
20
2920.00
30
0.0
11
1970.00
21
2920.00
31
0.0
0
LINE
8
FURN_STORAGE
62
6
10
1970.00
20
2920.00
30
0.0
11
1970.00
21
3420.00
31
0.0
0
LINE
8
FURN_STORAGE
62
6
10
1970.00
20
3420.00
30
0.0
11
770.00
21
3420.00
31
0.0
0
LINE
8
FURN_STORAGE
62
6
10
770.00
20
3420.00
30
0.0
11
770.00
21
2920.00
31
0.0
0
TEXT
8
ANNOTATIONS
62
6
10
1170.00
20
3170.00
30
0.0
40
90.00
1
NW-STO-011
(F04)
0
LINE
8
FURN_STORAGE
62
6
10
1970.00
20
2920.00
30
0.0
11
3170.00
21
2920.00
31
0.0
0
LINE
8
FURN_STORAGE
62
6
10
3170.00
20
2920.00
30
0.0
11
3170.00
21
3420.00
31
0.0
0
LINE
8
FURN_STORAGE
62
6
10
3170.00
20
3420.00
30
0.0
11
1970.00
21
3420.00
31
0.0
0
LINE
8
FURN_STORAGE
62
6
10
1970.00
20
3420.00
30
0.0
11
1970.00
21
2920.00
31
0.0
0
TEXT
8
ANNOTATIONS
62
6
10
2370.00
20
3170.00
30
0.0
40
90.00
1
NW-STO-011
(F04)
0
LINE
8
FURN_STORAGE
62
6
10
4470.00
20
3020.00
30
0.0
11
5670.00
21
3020.00
31
0.0
0
LINE
8
FURN_STORAGE
62
6
10
5670.00
20
3020.00
30
0.0
11
5670.00
21
3520.00
31
0.0
0
LINE
8
FURN_STORAGE
62
6
10
5670.00
20
3520.00
30
0.0
11
4470.00
21
3520.00
31
0.0
0
LINE
8
FURN_STORAGE
62
6
10
4470.00
20
3520.00
30
0.0
11
4470.00
21
3020.00
31
0.0
0
TEXT
8
ANNOTATIONS
62
6
10
4870.00
20
3270.00
30
0.0
40
90.00
1
NW-STO-011
(F04)
0
LINE
8
FURN_STORAGE
62
6
10
6320.00
20
3220.00
30
0.0
11
7520.00
21
3220.00
31
0.0
0
LINE
8
FURN_STORAGE
62
6
10
7520.00
20
3220.00
30
0.0
11
7520.00
21
3720.00
31
0.0
0
LINE
8
FURN_STORAGE
62
6
10
7520.00
20
3720.00
30
0.0
11
6320.00
21
3720.00
31
0.0
0
LINE
8
FURN_STORAGE
62
6
10
6320.00
20
3720.00
30
0.0
11
6320.00
21
3220.00
31
0.0
0
TEXT
8
ANNOTATIONS
62
6
10
6720.00
20
3470.00
30
0.0
40
90.00
1
NW-STO-011
(F04)
0
ENDSEC
0
EOF
