0
SECTION
2
HEADER
0
ENDSEC
0
SECTION
2
TABLES
0
ENDSEC
0
SECTION
2
BLOCKS
0
ENDSEC
0
SECTION
2
ENTITIES
0
LINE
8
0_WALLS
62
7
10
0.00
20
0.00
30
0.0
11
6600.00
21
0.00
31
0.0
0
LINE
8
0_WALLS
62
7
10
6600.00
20
0.00
30
0.0
11
6600.00
21
4800.00
31
0.0
0
LINE
8
0_WALLS
62
7
10
6600.00
20
4800.00
30
0.0
11
4200.00
21
4800.00
31
0.0
0
LINE
8
0_WALLS
62
7
10
4200.00
20
4800.00
30
0.0
11
4200.00
21
6200.00
31
0.0
0
LINE
8
0_WALLS
62
7
10
4200.00
20
6200.00
30
0.0
11
0.00
21
6200.00
31
0.0
0
LINE
8
0_WALLS
62
7
10
0.00
20
6200.00
30
0.0
11
0.00
21
0.00
31
0.0
0
TEXT
8
ANNOTATIONS
62
7
10
200.00
20
200.00
30
0.0
40
200.00
1
ROOM: Nimbus Hybrid Team Room (ROOM-03)
0
LINE
8
0_DOORS
62
1
10
2600.00
20
0.00
30
0.0
11
3500.00
21
0.00
31
0.0
0
TEXT
8
0_DOORS
62
1
10
3100.00
20
50.00
30
0.0
40
100.00
1
DOOR D1 (inward_left)
0
TEXT
8
0_WINDOWS
62
5
10
100.00
20
100.00
30
0.0
40
100.00
1
WINDOW (2400.0mm)
0
LINE
8
0_EGRESS
62
4
10
3050.00
20
0.00
30
0.0
11
500.00
21
5500.00
31
0.0
0
TEXT
8
0_EGRESS
62
4
10
1775.00
20
2750.00
30
0.0
40
120.00
1
PRIMARY EGRESS PATH (1100mm CLEAR)
0
LINE
8
FURN_DESK
62
3
10
120.00
20
120.00
30
0.0
11
1520.00
21
120.00
31
0.0
0
LINE
8
FURN_DESK
62
3
10
1520.00
20
120.00
30
0.0
11
1520.00
21
820.00
31
0.0
0
LINE
8
FURN_DESK
62
3
10
1520.00
20
820.00
30
0.0
11
120.00
21
820.00
31
0.0
0
LINE
8
FURN_DESK
62
3
10
120.00
20
820.00
30
0.0
11
120.00
21
120.00
31
0.0
0
TEXT
8
ANNOTATIONS
62
3
10
620.00
20
470.00
30
0.0
40
90.00
1
NW-DES-006
(F05)
0
LINE
8
FURN_DESK
62
3
10
3720.00
20
120.00
30
0.0
11
5120.00
21
120.00
31
0.0
0
LINE
8
FURN_DESK
62
3
10
5120.00
20
120.00
30
0.0
11
5120.00
21
820.00
31
0.0
0
LINE
8
FURN_DESK
62
3
10
5120.00
20
820.00
30
0.0
11
3720.00
21
820.00
31
0.0
0
LINE
8
FURN_DESK
62
3
10
3720.00
20
820.00
30
0.0
11
3720.00
21
120.00
31
0.0
0
TEXT
8
ANNOTATIONS
62
3
10
4220.00
20
470.00
30
0.0
40
90.00
1
NW-DES-006
(F05)
0
LINE
8
FURN_DESK
62
3
10
120.00
20
920.00
30
0.0
11
1520.00
21
920.00
31
0.0
0
LINE
8
FURN_DESK
62
3
10
1520.00
20
920.00
30
0.0
11
1520.00
21
1620.00
31
0.0
0
LINE
8
FURN_DESK
62
3
10
1520.00
20
1620.00
30
0.0
11
120.00
21
1620.00
31
0.0
0
LINE
8
FURN_DESK
62
3
10
120.00
20
1620.00
30
0.0
11
120.00
21
920.00
31
0.0
0
TEXT
8
ANNOTATIONS
62
3
10
620.00
20
1270.00
30
0.0
40
90.00
1
NW-DES-006
(F05)
0
LINE
8
FURN_DESK
62
3
10
3320.00
20
920.00
30
0.0
11
4720.00
21
920.00
31
0.0
0
LINE
8
FURN_DESK
62
3
10
4720.00
20
920.00
30
0.0
11
4720.00
21
1620.00
31
0.0
0
LINE
8
FURN_DESK
62
3
10
4720.00
20
1620.00
30
0.0
11
3320.00
21
1620.00
31
0.0
0
LINE
8
FURN_DESK
62
3
10
3320.00
20
1620.00
30
0.0
11
3320.00
21
920.00
31
0.0
0
TEXT
8
ANNOTATIONS
62
3
10
3820.00
20
1270.00
30
0.0
40
90.00
1
NW-DES-006
(F05)
0
LINE
8
FURN_DESK
62
3
10
4720.00
20
920.00
30
0.0
11
6120.00
21
920.00
31
0.0
0
LINE
8
FURN_DESK
62
3
10
6120.00
20
920.00
30
0.0
11
6120.00
21
1620.00
31
0.0
0
LINE
8
FURN_DESK
62
3
10
6120.00
20
1620.00
30
0.0
11
4720.00
21
1620.00
31
0.0
0
LINE
8
FURN_DESK
62
3
10
4720.00
20
1620.00
30
0.0
11
4720.00
21
920.00
31
0.0
0
TEXT
8
ANNOTATIONS
62
3
10
5220.00
20
1270.00
30
0.0
40
90.00
1
NW-DES-006
(F05)
0
LINE
8
FURN_DESK
62
3
10
2920.00
20
1720.00
30
0.0
11
4320.00
21
1720.00
31
0.0
0
LINE
8
FURN_DESK
62
3
10
4320.00
20
1720.00
30
0.0
11
4320.00
21
2420.00
31
0.0
0
LINE
8
FURN_DESK
62
3
10
4320.00
20
2420.00
30
0.0
11
2920.00
21
2420.00
31
0.0
0
LINE
8
FURN_DESK
62
3
10
2920.00
20
2420.00
30
0.0
11
2920.00
21
1720.00
31
0.0
0
TEXT
8
ANNOTATIONS
62
3
10
3420.00
20
2070.00
30
0.0
40
90.00
1
NW-DES-006
(F05)
0
LINE
8
FURN_DESK
62
3
10
4320.00
20
1720.00
30
0.0
11
5720.00
21
1720.00
31
0.0
0
LINE
8
FURN_DESK
62
3
10
5720.00
20
1720.00
30
0.0
11
5720.00
21
2420.00
31
0.0
0
LINE
8
FURN_DESK
62
3
10
5720.00
20
2420.00
30
0.0
11
4320.00
21
2420.00
31
0.0
0
LINE
8
FURN_DESK
62
3
10
4320.00
20
2420.00
30
0.0
11
4320.00
21
1720.00
31
0.0
0
TEXT
8
ANNOTATIONS
62
3
10
4820.00
20
2070.00
30
0.0
40
90.00
1
NW-DES-006
(F05)
0
LINE
8
FURN_DESK
62
3
10
2520.00
20
2520.00
30
0.0
11
3920.00
21
2520.00
31
0.0
0
LINE
8
FURN_DESK
62
3
10
3920.00
20
2520.00
30
0.0
11
3920.00
21
3220.00
31
0.0
0
LINE
8
FURN_DESK
62
3
10
3920.00
20
3220.00
30
0.0
11
2520.00
21
3220.00
31
0.0
0
LINE
8
FURN_DESK
62
3
10
2520.00
20
3220.00
30
0.0
11
2520.00
21
2520.00
31
0.0
0
TEXT
8
ANNOTATIONS
62
3
10
3020.00
20
2870.00
30
0.0
40
90.00
1
NW-DES-006
(F05)
0
LINE
8
FURN_COLLAB
62
4
10
5120.00
20
120.00
30
0.0
11
6320.00
21
120.00
31
0.0
0
LINE
8
FURN_COLLAB
62
4
10
6320.00
20
120.00
30
0.0
11
6320.00
21
820.00
31
0.0
0
LINE
8
FURN_COLLAB
62
4
10
6320.00
20
820.00
30
0.0
11
5120.00
21
820.00
31
0.0
0
LINE
8
FURN_COLLAB
62
4
10
5120.00
20
820.00
30
0.0
11
5120.00
21
120.00
31
0.0
0
TEXT
8
ANNOTATIONS
62
4
10
5520.00
20
470.00
30
0.0
40
90.00
1
NW-COL-001
(F05)
0
LINE
8
FURN_CHAIR
62
2
10
120.00
20
1720.00
30
0.0
11
760.00
21
1720.00
31
0.0
0
LINE
8
FURN_CHAIR
62
2
10
760.00
20
1720.00
30
0.0
11
760.00
21
2280.00
31
0.0
0
LINE
8
FURN_CHAIR
62
2
10
760.00
20
2280.00
30
0.0
11
120.00
21
2280.00
31
0.0
0
LINE
8
FURN_CHAIR
62
2
10
120.00
20
2280.00
30
0.0
11
120.00
21
1720.00
31
0.0
0
TEXT
8
ANNOTATIONS
62
2
10
240.00
20
2000.00
30
0.0
40
90.00
1
NW-CHA-008
(F02)
0
LINE
8
FURN_CHAIR
62
2
10
5720.00
20
1720.00
30
0.0
11
6360.00
21
1720.00
31
0.0
0
LINE
8
FURN_CHAIR
62
2
10
6360.00
20
1720.00
30
0.0
11
6360.00
21
2280.00
31
0.0
0
LINE
8
FURN_CHAIR
62
2
10
6360.00
20
2280.00
30
0.0
11
5720.00
21
2280.00
31
0.0
0
LINE
8
FURN_CHAIR
62
2
10
5720.00
20
2280.00
30
0.0
11
5720.00
21
1720.00
31
0.0
0
TEXT
8
ANNOTATIONS
62
2
10
5840.00
20
2000.00
30
0.0
40
90.00
1
NW-CHA-008
(F02)
0
LINE
8
FURN_CHAIR
62
2
10
120.00
20
2320.00
30
0.0
11
760.00
21
2320.00
31
0.0
0
LINE
8
FURN_CHAIR
62
2
10
760.00
20
2320.00
30
0.0
11
760.00
21
2880.00
31
0.0
0
LINE
8
FURN_CHAIR
62
2
10
760.00
20
2880.00
30
0.0
11
120.00
21
2880.00
31
0.0
0
LINE
8
FURN_CHAIR
62
2
10
120.00
20
2880.00
30
0.0
11
120.00
21
2320.00
31
0.0
0
TEXT
8
ANNOTATIONS
62
2
10
240.00
20
2600.00
30
0.0
40
90.00
1
NW-CHA-008
(F02)
0
LINE
8
FURN_CHAIR
62
2
10
5720.00
20
2320.00
30
0.0
11
6360.00
21
2320.00
31
0.0
0
LINE
8
FURN_CHAIR
62
2
10
6360.00
20
2320.00
30
0.0
11
6360.00
21
2880.00
31
0.0
0
LINE
8
FURN_CHAIR
62
2
10
6360.00
20
2880.00
30
0.0
11
5720.00
21
2880.00
31
0.0
0
LINE
8
FURN_CHAIR
62
2
10
5720.00
20
2880.00
30
0.0
11
5720.00
21
2320.00
31
0.0
0
TEXT
8
ANNOTATIONS
62
2
10
5840.00
20
2600.00
30
0.0
40
90.00
1
NW-CHA-008
(F02)
0
LINE
8
FURN_CHAIR
62
2
10
3920.00
20
2520.00
30
0.0
11
4560.00
21
2520.00
31
0.0
0
LINE
8
FURN_CHAIR
62
2
10
4560.00
20
2520.00
30
0.0
11
4560.00
21
3080.00
31
0.0
0
LINE
8
FURN_CHAIR
62
2
10
4560.00
20
3080.00
30
0.0
11
3920.00
21
3080.00
31
0.0
0
LINE
8
FURN_CHAIR
62
2
10
3920.00
20
3080.00
30
0.0
11
3920.00
21
2520.00
31
0.0
0
TEXT
8
ANNOTATIONS
62
2
10
4040.00
20
2800.00
30
0.0
40
90.00
1
NW-CHA-008
(F02)
0
LINE
8
FURN_CHAIR
62
2
10
4720.00
20
2520.00
30
0.0
11
5360.00
21
2520.00
31
0.0
0
LINE
8
FURN_CHAIR
62
2
10
5360.00
20
2520.00
30
0.0
11
5360.00
21
3080.00
31
0.0
0
LINE
8
FURN_CHAIR
62
2
10
5360.00
20
3080.00
30
0.0
11
4720.00
21
3080.00
31
0.0
0
LINE
8
FURN_CHAIR
62
2
10
4720.00
20
3080.00
30
0.0
11
4720.00
21
2520.00
31
0.0
0
TEXT
8
ANNOTATIONS
62
2
10
4840.00
20
2800.00
30
0.0
40
90.00
1
NW-CHA-008
(F02)
0
LINE
8
FURN_CHAIR
62
2
10
120.00
20
2920.00
30
0.0
11
760.00
21
2920.00
31
0.0
0
LINE
8
FURN_CHAIR
62
2
10
760.00
20
2920.00
30
0.0
11
760.00
21
3480.00
31
0.0
0
LINE
8
FURN_CHAIR
62
2
10
760.00
20
3480.00
30
0.0
11
120.00
21
3480.00
31
0.0
0
LINE
8
FURN_CHAIR
62
2
10
120.00
20
3480.00
30
0.0
11
120.00
21
2920.00
31
0.0
0
TEXT
8
ANNOTATIONS
62
2
10
240.00
20
3200.00
30
0.0
40
90.00
1
NW-CHA-008
(F02)
0
LINE
8
FURN_CHAIR
62
2
10
5520.00
20
2920.00
30
0.0
11
6160.00
21
2920.00
31
0.0
0
LINE
8
FURN_CHAIR
62
2
10
6160.00
20
2920.00
30
0.0
11
6160.00
21
3480.00
31
0.0
0
LINE
8
FURN_CHAIR
62
2
10
6160.00
20
3480.00
30
0.0
11
5520.00
21
3480.00
31
0.0
0
LINE
8
FURN_CHAIR
62
2
10
5520.00
20
3480.00
30
0.0
11
5520.00
21
2920.00
31
0.0
0
TEXT
8
ANNOTATIONS
62
2
10
5640.00
20
3200.00
30
0.0
40
90.00
1
NW-CHA-008
(F02)
0
LINE
8
FURN_CHAIR
62
2
10
3920.00
20
3120.00
30
0.0
11
4560.00
21
3120.00
31
0.0
0
LINE
8
FURN_CHAIR
62
2
10
4560.00
20
3120.00
30
0.0
11
4560.00
21
3680.00
31
0.0
0
LINE
8
FURN_CHAIR
62
2
10
4560.00
20
3680.00
30
0.0
11
3920.00
21
3680.00
31
0.0
0
LINE
8
FURN_CHAIR
62
2
10
3920.00
20
3680.00
30
0.0
11
3920.00
21
3120.00
31
0.0
0
TEXT
8
ANNOTATIONS
62
2
10
4040.00
20
3400.00
30
0.0
40
90.00
1
NW-CHA-008
(F02)
0
LINE
8
FURN_CHAIR
62
2
10
4720.00
20
3120.00
30
0.0
11
5360.00
21
3120.00
31
0.0
0
LINE
8
FURN_CHAIR
62
2
10
5360.00
20
3120.00
30
0.0
11
5360.00
21
3680.00
31
0.0
0
LINE
8
FURN_CHAIR
62
2
10
5360.00
20
3680.00
30
0.0
11
4720.00
21
3680.00
31
0.0
0
LINE
8
FURN_CHAIR
62
2
10
4720.00
20
3680.00
30
0.0
11
4720.00
21
3120.00
31
0.0
0
TEXT
8
ANNOTATIONS
62
2
10
4840.00
20
3400.00
30
0.0
40
90.00
1
NW-CHA-008
(F02)
0
LINE
8
FURN_ACCESSORY
62
8
10
1520.00
20
120.00
30
0.0
11
2120.00
21
120.00
31
0.0
0
LINE
8
FURN_ACCESSORY
62
8
10
2120.00
20
120.00
30
0.0
11
2120.00
21
300.00
31
0.0
0
LINE
8
FURN_ACCESSORY
62
8
10
2120.00
20
300.00
30
0.0
11
1520.00
21
300.00
31
0.0
0
LINE
8
FURN_ACCESSORY
62
8
10
1520.00
20
300.00
30
0.0
11
1520.00
21
120.00
31
0.0
0
TEXT
8
ANNOTATIONS
62
8
10
1620.00
20
210.00
30
0.0
40
90.00
1
NW-ACC-003
(F16)
0
LINE
8
FURN_ACCESSORY
62
8
10
1520.00
20
320.00
30
0.0
11
2120.00
21
320.00
31
0.0
0
LINE
8
FURN_ACCESSORY
62
8
10
2120.00
20
320.00
30
0.0
11
2120.00
21
500.00
31
0.0
0
LINE
8
FURN_ACCESSORY
62
8
10
2120.00
20
500.00
30
0.0
11
1520.00
21
500.00
31
0.0
0
LINE
8
FURN_ACCESSORY
62
8
10
1520.00
20
500.00
30
0.0
11
1520.00
21
320.00
31
0.0
0
TEXT
8
ANNOTATIONS
62
8
10
1620.00
20
410.00
30
0.0
40
90.00
1
NW-ACC-003
(F16)
0
LINE
8
FURN_ACCESSORY
62
8
10
920.00
20
1720.00
30
0.0
11
1520.00
21
1720.00
31
0.0
0
LINE
8
FURN_ACCESSORY
62
8
10
1520.00
20
1720.00
30
0.0
11
1520.00
21
1900.00
31
0.0
0
LINE
8
FURN_ACCESSORY
62
8
10
1520.00
20
1900.00
30
0.0
11
920.00
21
1900.00
31
0.0
0
LINE
8
FURN_ACCESSORY
62
8
10
920.00
20
1900.00
30
0.0
11
920.00
21
1720.00
31
0.0
0
TEXT
8
ANNOTATIONS
62
8
10
1020.00
20
1810.00
30
0.0
40
90.00
1
NW-ACC-003
(F16)
0
LINE
8
FURN_ACCESSORY
62
8
10
2120.00
20
3320.00
30
0.0
11
2720.00
21
3320.00
31
0.0
0
LINE
8
FURN_ACCESSORY
62
8
10
2720.00
20
3320.00
30
0.0
11
2720.00
21
3500.00
31
0.0
0
LINE
8
FURN_ACCESSORY
62
8
10
2720.00
20
3500.00
30
0.0
11
2120.00
21
3500.00
31
0.0
0
LINE
8
FURN_ACCESSORY
62
8
10
2120.00
20
3500.00
30
0.0
11
2120.00
21
3320.00
31
0.0
0
TEXT
8
ANNOTATIONS
62
8
10
2220.00
20
3410.00
30
0.0
40
90.00
1
NW-ACC-003
(F16)
0
LINE
8
FURN_ACCESSORY
62
8
10
2720.00
20
3320.00
30
0.0
11
3320.00
21
3320.00
31
0.0
0
LINE
8
FURN_ACCESSORY
62
8
10
3320.00
20
3320.00
30
0.0
11
3320.00
21
3500.00
31
0.0
0
LINE
8
FURN_ACCESSORY
62
8
10
3320.00
20
3500.00
30
0.0
11
2720.00
21
3500.00
31
0.0
0
LINE
8
FURN_ACCESSORY
62
8
10
2720.00
20
3500.00
30
0.0
11
2720.00
21
3320.00
31
0.0
0
TEXT
8
ANNOTATIONS
62
8
10
2820.00
20
3410.00
30
0.0
40
90.00
1
NW-ACC-003
(F16)
0
LINE
8
FURN_ACCESSORY
62
8
10
3320.00
20
3320.00
30
0.0
11
3920.00
21
3320.00
31
0.0
0
LINE
8
FURN_ACCESSORY
62
8
10
3920.00
20
3320.00
30
0.0
11
3920.00
21
3500.00
31
0.0
0
LINE
8
FURN_ACCESSORY
62
8
10
3920.00
20
3500.00
30
0.0
11
3320.00
21
3500.00
31
0.0
0
LINE
8
FURN_ACCESSORY
62
8
10
3320.00
20
3500.00
30
0.0
11
3320.00
21
3320.00
31
0.0
0
TEXT
8
ANNOTATIONS
62
8
10
3420.00
20
3410.00
30
0.0
40
90.00
1
NW-ACC-003
(F16)
0
ENDSEC
0
EOF
