0
SECTION
2
HEADER
0
ENDSEC
0
SECTION
2
TABLES
0
ENDSEC
0
SECTION
2
BLOCKS
0
ENDSEC
0
SECTION
2
ENTITIES
0
LINE
8
0_WALLS
62
7
10
0.00
20
0.00
30
0.0
11
6600.00
21
0.00
31
0.0
0
LINE
8
0_WALLS
62
7
10
6600.00
20
0.00
30
0.0
11
6600.00
21
4800.00
31
0.0
0
LINE
8
0_WALLS
62
7
10
6600.00
20
4800.00
30
0.0
11
4200.00
21
4800.00
31
0.0
0
LINE
8
0_WALLS
62
7
10
4200.00
20
4800.00
30
0.0
11
4200.00
21
6200.00
31
0.0
0
LINE
8
0_WALLS
62
7
10
4200.00
20
6200.00
30
0.0
11
0.00
21
6200.00
31
0.0
0
LINE
8
0_WALLS
62
7
10
0.00
20
6200.00
30
0.0
11
0.00
21
0.00
31
0.0
0
TEXT
8
ANNOTATIONS
62
7
10
200.00
20
200.00
30
0.0
40
200.00
1
ROOM: Nimbus Hybrid Team Room (ROOM-03)
0
LINE
8
0_DOORS
62
1
10
2600.00
20
0.00
30
0.0
11
3500.00
21
0.00
31
0.0
0
TEXT
8
0_DOORS
62
1
10
3100.00
20
50.00
30
0.0
40
100.00
1
DOOR D1 (inward_left)
0
TEXT
8
0_WINDOWS
62
5
10
100.00
20
100.00
30
0.0
40
100.00
1
WINDOW (2400.0mm)
0
LINE
8
0_EGRESS
62
4
10
3050.00
20
0.00
30
0.0
11
500.00
21
5500.00
31
0.0
0
TEXT
8
0_EGRESS
62
4
10
1775.00
20
2750.00
30
0.0
40
120.00
1
PRIMARY EGRESS PATH (1100mm CLEAR)
0
LINE
8
FURN_DESK
62
3
10
120.00
20
120.00
30
0.0
11
1520.00
21
120.00
31
0.0
0
LINE
8
FURN_DESK
62
3
10
1520.00
20
120.00
30
0.0
11
1520.00
21
820.00
31
0.0
0
LINE
8
FURN_DESK
62
3
10
1520.00
20
820.00
30
0.0
11
120.00
21
820.00
31
0.0
0
LINE
8
FURN_DESK
62
3
10
120.00
20
820.00
30
0.0
11
120.00
21
120.00
31
0.0
0
TEXT
8
ANNOTATIONS
62
3
10
620.00
20
470.00
30
0.0
40
90.00
1
NW-DES-006
(F05)
0
LINE
8
FURN_DESK
62
3
10
3620.00
20
120.00
30
0.0
11
5020.00
21
120.00
31
0.0
0
LINE
8
FURN_DESK
62
3
10
5020.00
20
120.00
30
0.0
11
5020.00
21
820.00
31
0.0
0
LINE
8
FURN_DESK
62
3
10
5020.00
20
820.00
30
0.0
11
3620.00
21
820.00
31
0.0
0
LINE
8
FURN_DESK
62
3
10
3620.00
20
820.00
30
0.0
11
3620.00
21
120.00
31
0.0
0
TEXT
8
ANNOTATIONS
62
3
10
4120.00
20
470.00
30
0.0
40
90.00
1
NW-DES-006
(F05)
0
LINE
8
FURN_DESK
62
3
10
5020.00
20
120.00
30
0.0
11
6420.00
21
120.00
31
0.0
0
LINE
8
FURN_DESK
62
3
10
6420.00
20
120.00
30
0.0
11
6420.00
21
820.00
31
0.0
0
LINE
8
FURN_DESK
62
3
10
6420.00
20
820.00
30
0.0
11
5020.00
21
820.00
31
0.0
0
LINE
8
FURN_DESK
62
3
10
5020.00
20
820.00
30
0.0
11
5020.00
21
120.00
31
0.0
0
TEXT
8
ANNOTATIONS
62
3
10
5520.00
20
470.00
30
0.0
40
90.00
1
NW-DES-006
(F05)
0
LINE
8
FURN_DESK
62
3
10
120.00
20
820.00
30
0.0
11
1520.00
21
820.00
31
0.0
0
LINE
8
FURN_DESK
62
3
10
1520.00
20
820.00
30
0.0
11
1520.00
21
1520.00
31
0.0
0
LINE
8
FURN_DESK
62
3
10
1520.00
20
1520.00
30
0.0
11
120.00
21
1520.00
31
0.0
0
LINE
8
FURN_DESK
62
3
10
120.00
20
1520.00
30
0.0
11
120.00
21
820.00
31
0.0
0
TEXT
8
ANNOTATIONS
62
3
10
620.00
20
1170.00
30
0.0
40
90.00
1
NW-DES-006
(F05)
0
LINE
8
FURN_DESK
62
3
10
3320.00
20
820.00
30
0.0
11
4720.00
21
820.00
31
0.0
0
LINE
8
FURN_DESK
62
3
10
4720.00
20
820.00
30
0.0
11
4720.00
21
1520.00
31
0.0
0
LINE
8
FURN_DESK
62
3
10
4720.00
20
1520.00
30
0.0
11
3320.00
21
1520.00
31
0.0
0
LINE
8
FURN_DESK
62
3
10
3320.00
20
1520.00
30
0.0
11
3320.00
21
820.00
31
0.0
0
TEXT
8
ANNOTATIONS
62
3
10
3820.00
20
1170.00
30
0.0
40
90.00
1
NW-DES-006
(F05)
0
LINE
8
FURN_DESK
62
3
10
4720.00
20
820.00
30
0.0
11
6120.00
21
820.00
31
0.0
0
LINE
8
FURN_DESK
62
3
10
6120.00
20
820.00
30
0.0
11
6120.00
21
1520.00
31
0.0
0
LINE
8
FURN_DESK
62
3
10
6120.00
20
1520.00
30
0.0
11
4720.00
21
1520.00
31
0.0
0
LINE
8
FURN_DESK
62
3
10
4720.00
20
1520.00
30
0.0
11
4720.00
21
820.00
31
0.0
0
TEXT
8
ANNOTATIONS
62
3
10
5220.00
20
1170.00
30
0.0
40
90.00
1
NW-DES-006
(F05)
0
LINE
8
FURN_DESK
62
3
10
2970.00
20
1520.00
30
0.0
11
4370.00
21
1520.00
31
0.0
0
LINE
8
FURN_DESK
62
3
10
4370.00
20
1520.00
30
0.0
11
4370.00
21
2220.00
31
0.0
0
LINE
8
FURN_DESK
62
3
10
4370.00
20
2220.00
30
0.0
11
2970.00
21
2220.00
31
0.0
0
LINE
8
FURN_DESK
62
3
10
2970.00
20
2220.00
30
0.0
11
2970.00
21
1520.00
31
0.0
0
TEXT
8
ANNOTATIONS
62
3
10
3470.00
20
1870.00
30
0.0
40
90.00
1
NW-DES-006
(F05)
0
LINE
8
FURN_DESK
62
3
10
4370.00
20
1520.00
30
0.0
11
5770.00
21
1520.00
31
0.0
0
LINE
8
FURN_DESK
62
3
10
5770.00
20
1520.00
30
0.0
11
5770.00
21
2220.00
31
0.0
0
LINE
8
FURN_DESK
62
3
10
5770.00
20
2220.00
30
0.0
11
4370.00
21
2220.00
31
0.0
0
LINE
8
FURN_DESK
62
3
10
4370.00
20
2220.00
30
0.0
11
4370.00
21
1520.00
31
0.0
0
TEXT
8
ANNOTATIONS
62
3
10
4870.00
20
1870.00
30
0.0
40
90.00
1
NW-DES-006
(F05)
0
LINE
8
FURN_COLLAB
62
4
10
1370.00
20
1520.00
30
0.0
11
2970.00
21
1520.00
31
0.0
0
LINE
8
FURN_COLLAB
62
4
10
2970.00
20
1520.00
30
0.0
11
2970.00
21
2220.00
31
0.0
0
LINE
8
FURN_COLLAB
62
4
10
2970.00
20
2220.00
30
0.0
11
1370.00
21
2220.00
31
0.0
0
LINE
8
FURN_COLLAB
62
4
10
1370.00
20
2220.00
30
0.0
11
1370.00
21
1520.00
31
0.0
0
TEXT
8
ANNOTATIONS
62
4
10
1970.00
20
1870.00
30
0.0
40
90.00
1
NW-COL-002
(F05)
0
LINE
8
FURN_CHAIR
62
2
10
120.00
20
1520.00
30
0.0
11
760.00
21
1520.00
31
0.0
0
LINE
8
FURN_CHAIR
62
2
10
760.00
20
1520.00
30
0.0
11
760.00
21
2080.00
31
0.0
0
LINE
8
FURN_CHAIR
62
2
10
760.00
20
2080.00
30
0.0
11
120.00
21
2080.00
31
0.0
0
LINE
8
FURN_CHAIR
62
2
10
120.00
20
2080.00
30
0.0
11
120.00
21
1520.00
31
0.0
0
TEXT
8
ANNOTATIONS
62
2
10
240.00
20
1800.00
30
0.0
40
90.00
1
NW-CHA-008
(F02)
0
LINE
8
FURN_CHAIR
62
2
10
5770.00
20
1520.00
30
0.0
11
6410.00
21
1520.00
31
0.0
0
LINE
8
FURN_CHAIR
62
2
10
6410.00
20
1520.00
30
0.0
11
6410.00
21
2080.00
31
0.0
0
LINE
8
FURN_CHAIR
62
2
10
6410.00
20
2080.00
30
0.0
11
5770.00
21
2080.00
31
0.0
0
LINE
8
FURN_CHAIR
62
2
10
5770.00
20
2080.00
30
0.0
11
5770.00
21
1520.00
31
0.0
0
TEXT
8
ANNOTATIONS
62
2
10
5890.00
20
1800.00
30
0.0
40
90.00
1
NW-CHA-008
(F02)
0
LINE
8
FURN_CHAIR
62
2
10
120.00
20
2120.00
30
0.0
11
760.00
21
2120.00
31
0.0
0
LINE
8
FURN_CHAIR
62
2
10
760.00
20
2120.00
30
0.0
11
760.00
21
2680.00
31
0.0
0
LINE
8
FURN_CHAIR
62
2
10
760.00
20
2680.00
30
0.0
11
120.00
21
2680.00
31
0.0
0
LINE
8
FURN_CHAIR
62
2
10
120.00
20
2680.00
30
0.0
11
120.00
21
2120.00
31
0.0
0
TEXT
8
ANNOTATIONS
62
2
10
240.00
20
2400.00
30
0.0
40
90.00
1
NW-CHA-008
(F02)
0
LINE
8
FURN_CHAIR
62
2
10
5770.00
20
2120.00
30
0.0
11
6410.00
21
2120.00
31
0.0
0
LINE
8
FURN_CHAIR
62
2
10
6410.00
20
2120.00
30
0.0
11
6410.00
21
2680.00
31
0.0
0
LINE
8
FURN_CHAIR
62
2
10
6410.00
20
2680.00
30
0.0
11
5770.00
21
2680.00
31
0.0
0
LINE
8
FURN_CHAIR
62
2
10
5770.00
20
2680.00
30
0.0
11
5770.00
21
2120.00
31
0.0
0
TEXT
8
ANNOTATIONS
62
2
10
5890.00
20
2400.00
30
0.0
40
90.00
1
NW-CHA-008
(F02)
0
LINE
8
FURN_CHAIR
62
2
10
2670.00
20
2220.00
30
0.0
11
3310.00
21
2220.00
31
0.0
0
LINE
8
FURN_CHAIR
62
2
10
3310.00
20
2220.00
30
0.0
11
3310.00
21
2780.00
31
0.0
0
LINE
8
FURN_CHAIR
62
2
10
3310.00
20
2780.00
30
0.0
11
2670.00
21
2780.00
31
0.0
0
LINE
8
FURN_CHAIR
62
2
10
2670.00
20
2780.00
30
0.0
11
2670.00
21
2220.00
31
0.0
0
TEXT
8
ANNOTATIONS
62
2
10
2790.00
20
2500.00
30
0.0
40
90.00
1
NW-CHA-008
(F02)
0
LINE
8
FURN_CHAIR
62
2
10
3320.00
20
2220.00
30
0.0
11
3960.00
21
2220.00
31
0.0
0
LINE
8
FURN_CHAIR
62
2
10
3960.00
20
2220.00
30
0.0
11
3960.00
21
2780.00
31
0.0
0
LINE
8
FURN_CHAIR
62
2
10
3960.00
20
2780.00
30
0.0
11
3320.00
21
2780.00
31
0.0
0
LINE
8
FURN_CHAIR
62
2
10
3320.00
20
2780.00
30
0.0
11
3320.00
21
2220.00
31
0.0
0
TEXT
8
ANNOTATIONS
62
2
10
3440.00
20
2500.00
30
0.0
40
90.00
1
NW-CHA-008
(F02)
0
LINE
8
FURN_CHAIR
62
2
10
3970.00
20
2220.00
30
0.0
11
4610.00
21
2220.00
31
0.0
0
LINE
8
FURN_CHAIR
62
2
10
4610.00
20
2220.00
30
0.0
11
4610.00
21
2780.00
31
0.0
0
LINE
8
FURN_CHAIR
62
2
10
4610.00
20
2780.00
30
0.0
11
3970.00
21
2780.00
31
0.0
0
LINE
8
FURN_CHAIR
62
2
10
3970.00
20
2780.00
30
0.0
11
3970.00
21
2220.00
31
0.0
0
TEXT
8
ANNOTATIONS
62
2
10
4090.00
20
2500.00
30
0.0
40
90.00
1
NW-CHA-008
(F02)
0
LINE
8
FURN_CHAIR
62
2
10
4620.00
20
2220.00
30
0.0
11
5260.00
21
2220.00
31
0.0
0
LINE
8
FURN_CHAIR
62
2
10
5260.00
20
2220.00
30
0.0
11
5260.00
21
2780.00
31
0.0
0
LINE
8
FURN_CHAIR
62
2
10
5260.00
20
2780.00
30
0.0
11
4620.00
21
2780.00
31
0.0
0
LINE
8
FURN_CHAIR
62
2
10
4620.00
20
2780.00
30
0.0
11
4620.00
21
2220.00
31
0.0
0
TEXT
8
ANNOTATIONS
62
2
10
4740.00
20
2500.00
30
0.0
40
90.00
1
NW-CHA-008
(F02)
0
LINE
8
FURN_CHAIR
62
2
10
120.00
20
2720.00
30
0.0
11
760.00
21
2720.00
31
0.0
0
LINE
8
FURN_CHAIR
62
2
10
760.00
20
2720.00
30
0.0
11
760.00
21
3280.00
31
0.0
0
LINE
8
FURN_CHAIR
62
2
10
760.00
20
3280.00
30
0.0
11
120.00
21
3280.00
31
0.0
0
LINE
8
FURN_CHAIR
62
2
10
120.00
20
3280.00
30
0.0
11
120.00
21
2720.00
31
0.0
0
TEXT
8
ANNOTATIONS
62
2
10
240.00
20
3000.00
30
0.0
40
90.00
1
NW-CHA-008
(F02)
0
LINE
8
FURN_CHAIR
62
2
10
5270.00
20
2720.00
30
0.0
11
5910.00
21
2720.00
31
0.0
0
LINE
8
FURN_CHAIR
62
2
10
5910.00
20
2720.00
30
0.0
11
5910.00
21
3280.00
31
0.0
0
LINE
8
FURN_CHAIR
62
2
10
5910.00
20
3280.00
30
0.0
11
5270.00
21
3280.00
31
0.0
0
LINE
8
FURN_CHAIR
62
2
10
5270.00
20
3280.00
30
0.0
11
5270.00
21
2720.00
31
0.0
0
TEXT
8
ANNOTATIONS
62
2
10
5390.00
20
3000.00
30
0.0
40
90.00
1
NW-CHA-008
(F02)
0
LINE
8
FURN_ACCESSORY
62
8
10
1520.00
20
120.00
30
0.0
11
2120.00
21
120.00
31
0.0
0
LINE
8
FURN_ACCESSORY
62
8
10
2120.00
20
120.00
30
0.0
11
2120.00
21
300.00
31
0.0
0
LINE
8
FURN_ACCESSORY
62
8
10
2120.00
20
300.00
30
0.0
11
1520.00
21
300.00
31
0.0
0
LINE
8
FURN_ACCESSORY
62
8
10
1520.00
20
300.00
30
0.0
11
1520.00
21
120.00
31
0.0
0
TEXT
8
ANNOTATIONS
62
8
10
1620.00
20
210.00
30
0.0
40
90.00
1
NW-ACC-003
(F16)
0
LINE
8
FURN_ACCESSORY
62
8
10
1520.00
20
320.00
30
0.0
11
2120.00
21
320.00
31
0.0
0
LINE
8
FURN_ACCESSORY
62
8
10
2120.00
20
320.00
30
0.0
11
2120.00
21
500.00
31
0.0
0
LINE
8
FURN_ACCESSORY
62
8
10
2120.00
20
500.00
30
0.0
11
1520.00
21
500.00
31
0.0
0
LINE
8
FURN_ACCESSORY
62
8
10
1520.00
20
500.00
30
0.0
11
1520.00
21
320.00
31
0.0
0
TEXT
8
ANNOTATIONS
62
8
10
1620.00
20
410.00
30
0.0
40
90.00
1
NW-ACC-003
(F16)
0
LINE
8
FURN_ACCESSORY
62
8
10
770.00
20
1520.00
30
0.0
11
1370.00
21
1520.00
31
0.0
0
LINE
8
FURN_ACCESSORY
62
8
10
1370.00
20
1520.00
30
0.0
11
1370.00
21
1700.00
31
0.0
0
LINE
8
FURN_ACCESSORY
62
8
10
1370.00
20
1700.00
30
0.0
11
770.00
21
1700.00
31
0.0
0
LINE
8
FURN_ACCESSORY
62
8
10
770.00
20
1700.00
30
0.0
11
770.00
21
1520.00
31
0.0
0
TEXT
8
ANNOTATIONS
62
8
10
870.00
20
1610.00
30
0.0
40
90.00
1
NW-ACC-003
(F16)
0
LINE
8
FURN_ACCESSORY
62
8
10
770.00
20
1720.00
30
0.0
11
1370.00
21
1720.00
31
0.0
0
LINE
8
FURN_ACCESSORY
62
8
10
1370.00
20
1720.00
30
0.0
11
1370.00
21
1900.00
31
0.0
0
LINE
8
FURN_ACCESSORY
62
8
10
1370.00
20
1900.00
30
0.0
11
770.00
21
1900.00
31
0.0
0
LINE
8
FURN_ACCESSORY
62
8
10
770.00
20
1900.00
30
0.0
11
770.00
21
1720.00
31
0.0
0
TEXT
8
ANNOTATIONS
62
8
10
870.00
20
1810.00
30
0.0
40
90.00
1
NW-ACC-003
(F16)
0
LINE
8
FURN_ACCESSORY
62
8
10
770.00
20
1920.00
30
0.0
11
1370.00
21
1920.00
31
0.0
0
LINE
8
FURN_ACCESSORY
62
8
10
1370.00
20
1920.00
30
0.0
11
1370.00
21
2100.00
31
0.0
0
LINE
8
FURN_ACCESSORY
62
8
10
1370.00
20
2100.00
30
0.0
11
770.00
21
2100.00
31
0.0
0
LINE
8
FURN_ACCESSORY
62
8
10
770.00
20
2100.00
30
0.0
11
770.00
21
1920.00
31
0.0
0
TEXT
8
ANNOTATIONS
62
8
10
870.00
20
2010.00
30
0.0
40
90.00
1
NW-ACC-003
(F16)
0
LINE
8
FURN_ACCESSORY
62
8
10
770.00
20
2120.00
30
0.0
11
1370.00
21
2120.00
31
0.0
0
LINE
8
FURN_ACCESSORY
62
8
10
1370.00
20
2120.00
30
0.0
11
1370.00
21
2300.00
31
0.0
0
LINE
8
FURN_ACCESSORY
62
8
10
1370.00
20
2300.00
30
0.0
11
770.00
21
2300.00
31
0.0
0
LINE
8
FURN_ACCESSORY
62
8
10
770.00
20
2300.00
30
0.0
11
770.00
21
2120.00
31
0.0
0
TEXT
8
ANNOTATIONS
62
8
10
870.00
20
2210.00
30
0.0
40
90.00
1
NW-ACC-003
(F16)
0
ENDSEC
0
EOF
