0
SECTION
2
HEADER
0
ENDSEC
0
SECTION
2
TABLES
0
ENDSEC
0
SECTION
2
BLOCKS
0
ENDSEC
0
SECTION
2
ENTITIES
0
LINE
8
0_WALLS
62
7
10
0.00
20
0.00
30
0.0
11
8400.00
21
0.00
31
0.0
0
LINE
8
0_WALLS
62
7
10
8400.00
20
0.00
30
0.0
11
8400.00
21
7600.00
31
0.0
0
LINE
8
0_WALLS
62
7
10
8400.00
20
7600.00
30
0.0
11
0.00
21
7600.00
31
0.0
0
LINE
8
0_WALLS
62
7
10
0.00
20
7600.00
30
0.0
11
0.00
21
0.00
31
0.0
0
TEXT
8
ANNOTATIONS
62
7
10
200.00
20
200.00
30
0.0
40
200.00
1
ROOM: Summit Project Hub (ROOM-05)
0
LINE
8
0_DOORS
62
1
10
0.00
20
2100.00
30
0.0
11
0.00
21
900.00
31
0.0
0
TEXT
8
0_DOORS
62
1
10
50.00
20
1550.00
30
0.0
40
100.00
1
DOOR D1 (inward_right)
0
LINE
8
0_DOORS
62
1
10
8400.00
20
5600.00
30
0.0
11
8400.00
21
6600.00
31
0.0
0
TEXT
8
0_DOORS
62
1
10
8450.00
20
6150.00
30
0.0
40
100.00
1
DOOR D2 (outward_left)
0
TEXT
8
0_WINDOWS
62
5
10
100.00
20
100.00
30
0.0
40
100.00
1
WINDOW (5200.0mm)
0
LINE
8
0_EGRESS
62
4
10
0.00
20
1500.00
30
0.0
11
7900.00
21
6200.00
31
0.0
0
TEXT
8
0_EGRESS
62
4
10
3950.00
20
3850.00
30
0.0
40
120.00
1
PRIMARY EGRESS PATH (1100mm CLEAR)
0
LINE
8
FURN_DESK
62
3
10
120.00
20
120.00
30
0.0
11
1520.00
21
120.00
31
0.0
0
LINE
8
FURN_DESK
62
3
10
1520.00
20
120.00
30
0.0
11
1520.00
21
720.00
31
0.0
0
LINE
8
FURN_DESK
62
3
10
1520.00
20
720.00
30
0.0
11
120.00
21
720.00
31
0.0
0
LINE
8
FURN_DESK
62
3
10
120.00
20
720.00
30
0.0
11
120.00
21
120.00
31
0.0
0
TEXT
8
ANNOTATIONS
62
3
10
620.00
20
420.00
30
0.0
40
90.00
1
NW-DES-014
(F02)
0
LINE
8
FURN_DESK
62
3
10
1520.00
20
120.00
30
0.0
11
2920.00
21
120.00
31
0.0
0
LINE
8
FURN_DESK
62
3
10
2920.00
20
120.00
30
0.0
11
2920.00
21
720.00
31
0.0
0
LINE
8
FURN_DESK
62
3
10
2920.00
20
720.00
30
0.0
11
1520.00
21
720.00
31
0.0
0
LINE
8
FURN_DESK
62
3
10
1520.00
20
720.00
30
0.0
11
1520.00
21
120.00
31
0.0
0
TEXT
8
ANNOTATIONS
62
3
10
2020.00
20
420.00
30
0.0
40
90.00
1
NW-DES-014
(F02)
0
LINE
8
FURN_DESK
62
3
10
2920.00
20
120.00
30
0.0
11
4320.00
21
120.00
31
0.0
0
LINE
8
FURN_DESK
62
3
10
4320.00
20
120.00
30
0.0
11
4320.00
21
720.00
31
0.0
0
LINE
8
FURN_DESK
62
3
10
4320.00
20
720.00
30
0.0
11
2920.00
21
720.00
31
0.0
0
LINE
8
FURN_DESK
62
3
10
2920.00
20
720.00
30
0.0
11
2920.00
21
120.00
31
0.0
0
TEXT
8
ANNOTATIONS
62
3
10
3420.00
20
420.00
30
0.0
40
90.00
1
NW-DES-014
(F02)
0
LINE
8
FURN_DESK
62
3
10
200.00
20
5400.00
30
0.0
11
1600.00
21
5400.00
31
0.0
0
LINE
8
FURN_DESK
62
3
10
1600.00
20
5400.00
30
0.0
11
1600.00
21
6000.00
31
0.0
0
LINE
8
FURN_DESK
62
3
10
1600.00
20
6000.00
30
0.0
11
200.00
21
6000.00
31
0.0
0
LINE
8
FURN_DESK
62
3
10
200.00
20
6000.00
30
0.0
11
200.00
21
5400.00
31
0.0
0
TEXT
8
ANNOTATIONS
62
3
10
700.00
20
5700.00
30
0.0
40
90.00
1
NW-DES-014
(F02)
0
LINE
8
FURN_DESK
62
3
10
2600.00
20
5400.00
30
0.0
11
4000.00
21
5400.00
31
0.0
0
LINE
8
FURN_DESK
62
3
10
4000.00
20
5400.00
30
0.0
11
4000.00
21
6000.00
31
0.0
0
LINE
8
FURN_DESK
62
3
10
4000.00
20
6000.00
30
0.0
11
2600.00
21
6000.00
31
0.0
0
LINE
8
FURN_DESK
62
3
10
2600.00
20
6000.00
30
0.0
11
2600.00
21
5400.00
31
0.0
0
TEXT
8
ANNOTATIONS
62
3
10
3100.00
20
5700.00
30
0.0
40
90.00
1
NW-DES-014
(F02)
0
LINE
8
FURN_DESK
62
3
10
5000.00
20
6200.00
30
0.0
11
6400.00
21
6200.00
31
0.0
0
LINE
8
FURN_DESK
62
3
10
6400.00
20
6200.00
30
0.0
11
6400.00
21
6800.00
31
0.0
0
LINE
8
FURN_DESK
62
3
10
6400.00
20
6800.00
30
0.0
11
5000.00
21
6800.00
31
0.0
0
LINE
8
FURN_DESK
62
3
10
5000.00
20
6800.00
30
0.0
11
5000.00
21
6200.00
31
0.0
0
TEXT
8
ANNOTATIONS
62
3
10
5500.00
20
6500.00
30
0.0
40
90.00
1
NW-DES-014
(F02)
0
LINE
8
FURN_DESK
62
3
10
2320.00
20
720.00
30
0.0
11
3720.00
21
720.00
31
0.0
0
LINE
8
FURN_DESK
62
3
10
3720.00
20
720.00
30
0.0
11
3720.00
21
1320.00
31
0.0
0
LINE
8
FURN_DESK
62
3
10
3720.00
20
1320.00
30
0.0
11
2320.00
21
1320.00
31
0.0
0
LINE
8
FURN_DESK
62
3
10
2320.00
20
1320.00
30
0.0
11
2320.00
21
720.00
31
0.0
0
TEXT
8
ANNOTATIONS
62
3
10
2820.00
20
1020.00
30
0.0
40
90.00
1
NW-DES-014
(F02)
0
LINE
8
FURN_DESK
62
3
10
3720.00
20
720.00
30
0.0
11
5120.00
21
720.00
31
0.0
0
LINE
8
FURN_DESK
62
3
10
5120.00
20
720.00
30
0.0
11
5120.00
21
1320.00
31
0.0
0
LINE
8
FURN_DESK
62
3
10
5120.00
20
1320.00
30
0.0
11
3720.00
21
1320.00
31
0.0
0
LINE
8
FURN_DESK
62
3
10
3720.00
20
1320.00
30
0.0
11
3720.00
21
720.00
31
0.0
0
TEXT
8
ANNOTATIONS
62
3
10
4220.00
20
1020.00
30
0.0
40
90.00
1
NW-DES-014
(F02)
0
LINE
8
FURN_DESK
62
3
10
5120.00
20
720.00
30
0.0
11
6520.00
21
720.00
31
0.0
0
LINE
8
FURN_DESK
62
3
10
6520.00
20
720.00
30
0.0
11
6520.00
21
1320.00
31
0.0
0
LINE
8
FURN_DESK
62
3
10
6520.00
20
1320.00
30
0.0
11
5120.00
21
1320.00
31
0.0
0
LINE
8
FURN_DESK
62
3
10
5120.00
20
1320.00
30
0.0
11
5120.00
21
720.00
31
0.0
0
TEXT
8
ANNOTATIONS
62
3
10
5620.00
20
1020.00
30
0.0
40
90.00
1
NW-DES-014
(F02)
0
LINE
8
FURN_DESK
62
3
10
6520.00
20
720.00
30
0.0
11
7920.00
21
720.00
31
0.0
0
LINE
8
FURN_DESK
62
3
10
7920.00
20
720.00
30
0.0
11
7920.00
21
1320.00
31
0.0
0
LINE
8
FURN_DESK
62
3
10
7920.00
20
1320.00
30
0.0
11
6520.00
21
1320.00
31
0.0
0
LINE
8
FURN_DESK
62
3
10
6520.00
20
1320.00
30
0.0
11
6520.00
21
720.00
31
0.0
0
TEXT
8
ANNOTATIONS
62
3
10
7020.00
20
1020.00
30
0.0
40
90.00
1
NW-DES-014
(F02)
0
LINE
8
FURN_DESK
62
3
10
1920.00
20
1320.00
30
0.0
11
3320.00
21
1320.00
31
0.0
0
LINE
8
FURN_DESK
62
3
10
3320.00
20
1320.00
30
0.0
11
3320.00
21
1920.00
31
0.0
0
LINE
8
FURN_DESK
62
3
10
3320.00
20
1920.00
30
0.0
11
1920.00
21
1920.00
31
0.0
0
LINE
8
FURN_DESK
62
3
10
1920.00
20
1920.00
30
0.0
11
1920.00
21
1320.00
31
0.0
0
TEXT
8
ANNOTATIONS
62
3
10
2420.00
20
1620.00
30
0.0
40
90.00
1
NW-DES-014
(F02)
0
LINE
8
FURN_DESK
62
3
10
3320.00
20
1320.00
30
0.0
11
4720.00
21
1320.00
31
0.0
0
LINE
8
FURN_DESK
62
3
10
4720.00
20
1320.00
30
0.0
11
4720.00
21
1920.00
31
0.0
0
LINE
8
FURN_DESK
62
3
10
4720.00
20
1920.00
30
0.0
11
3320.00
21
1920.00
31
0.0
0
LINE
8
FURN_DESK
62
3
10
3320.00
20
1920.00
30
0.0
11
3320.00
21
1320.00
31
0.0
0
TEXT
8
ANNOTATIONS
62
3
10
3820.00
20
1620.00
30
0.0
40
90.00
1
NW-DES-014
(F02)
0
LINE
8
FURN_COLLAB
62
4
10
4720.00
20
1320.00
30
0.0
11
7120.00
21
1320.00
31
0.0
0
LINE
8
FURN_COLLAB
62
4
10
7120.00
20
1320.00
30
0.0
11
7120.00
21
2020.00
31
0.0
0
LINE
8
FURN_COLLAB
62
4
10
7120.00
20
2020.00
30
0.0
11
4720.00
21
2020.00
31
0.0
0
LINE
8
FURN_COLLAB
62
4
10
4720.00
20
2020.00
30
0.0
11
4720.00
21
1320.00
31
0.0
0
TEXT
8
ANNOTATIONS
62
4
10
5720.00
20
1670.00
30
0.0
40
90.00
1
NW-COL-004
(F09)
0
LINE
8
FURN_COLLAB
62
4
10
3320.00
20
2120.00
30
0.0
11
5720.00
21
2120.00
31
0.0
0
LINE
8
FURN_COLLAB
62
4
10
5720.00
20
2120.00
30
0.0
11
5720.00
21
2820.00
31
0.0
0
LINE
8
FURN_COLLAB
62
4
10
5720.00
20
2820.00
30
0.0
11
3320.00
21
2820.00
31
0.0
0
LINE
8
FURN_COLLAB
62
4
10
3320.00
20
2820.00
30
0.0
11
3320.00
21
2120.00
31
0.0
0
TEXT
8
ANNOTATIONS
62
4
10
4320.00
20
2470.00
30
0.0
40
90.00
1
NW-COL-004
(F09)
0
LINE
8
FURN_CHAIR
62
2
10
7120.00
20
120.00
30
0.0
11
7680.00
21
120.00
31
0.0
0
LINE
8
FURN_CHAIR
62
2
10
7680.00
20
120.00
30
0.0
11
7680.00
21
680.00
31
0.0
0
LINE
8
FURN_CHAIR
62
2
10
7680.00
20
680.00
30
0.0
11
7120.00
21
680.00
31
0.0
0
LINE
8
FURN_CHAIR
62
2
10
7120.00
20
680.00
30
0.0
11
7120.00
21
120.00
31
0.0
0
TEXT
8
ANNOTATIONS
62
2
10
7200.00
20
400.00
30
0.0
40
90.00
1
NW-CHA-018
(F14)
0
LINE
8
FURN_CHAIR
62
2
10
7720.00
20
120.00
30
0.0
11
8280.00
21
120.00
31
0.0
0
LINE
8
FURN_CHAIR
62
2
10
8280.00
20
120.00
30
0.0
11
8280.00
21
680.00
31
0.0
0
LINE
8
FURN_CHAIR
62
2
10
8280.00
20
680.00
30
0.0
11
7720.00
21
680.00
31
0.0
0
LINE
8
FURN_CHAIR
62
2
10
7720.00
20
680.00
30
0.0
11
7720.00
21
120.00
31
0.0
0
TEXT
8
ANNOTATIONS
62
2
10
7800.00
20
400.00
30
0.0
40
90.00
1
NW-CHA-018
(F14)
0
LINE
8
FURN_CHAIR
62
2
10
7120.00
20
1320.00
30
0.0
11
7680.00
21
1320.00
31
0.0
0
LINE
8
FURN_CHAIR
62
2
10
7680.00
20
1320.00
30
0.0
11
7680.00
21
1880.00
31
0.0
0
LINE
8
FURN_CHAIR
62
2
10
7680.00
20
1880.00
30
0.0
11
7120.00
21
1880.00
31
0.0
0
LINE
8
FURN_CHAIR
62
2
10
7120.00
20
1880.00
30
0.0
11
7120.00
21
1320.00
31
0.0
0
TEXT
8
ANNOTATIONS
62
2
10
7200.00
20
1600.00
30
0.0
40
90.00
1
NW-CHA-018
(F14)
0
LINE
8
FURN_CHAIR
62
2
10
7720.00
20
1320.00
30
0.0
11
8280.00
21
1320.00
31
0.0
0
LINE
8
FURN_CHAIR
62
2
10
8280.00
20
1320.00
30
0.0
11
8280.00
21
1880.00
31
0.0
0
LINE
8
FURN_CHAIR
62
2
10
8280.00
20
1880.00
30
0.0
11
7720.00
21
1880.00
31
0.0
0
LINE
8
FURN_CHAIR
62
2
10
7720.00
20
1880.00
30
0.0
11
7720.00
21
1320.00
31
0.0
0
TEXT
8
ANNOTATIONS
62
2
10
7800.00
20
1600.00
30
0.0
40
90.00
1
NW-CHA-018
(F14)
0
LINE
8
FURN_CHAIR
62
2
10
7120.00
20
1920.00
30
0.0
11
7680.00
21
1920.00
31
0.0
0
LINE
8
FURN_CHAIR
62
2
10
7680.00
20
1920.00
30
0.0
11
7680.00
21
2480.00
31
0.0
0
LINE
8
FURN_CHAIR
62
2
10
7680.00
20
2480.00
30
0.0
11
7120.00
21
2480.00
31
0.0
0
LINE
8
FURN_CHAIR
62
2
10
7120.00
20
2480.00
30
0.0
11
7120.00
21
1920.00
31
0.0
0
TEXT
8
ANNOTATIONS
62
2
10
7200.00
20
2200.00
30
0.0
40
90.00
1
NW-CHA-018
(F14)
0
LINE
8
FURN_CHAIR
62
2
10
7720.00
20
1920.00
30
0.0
11
8280.00
21
1920.00
31
0.0
0
LINE
8
FURN_CHAIR
62
2
10
8280.00
20
1920.00
30
0.0
11
8280.00
21
2480.00
31
0.0
0
LINE
8
FURN_CHAIR
62
2
10
8280.00
20
2480.00
30
0.0
11
7720.00
21
2480.00
31
0.0
0
LINE
8
FURN_CHAIR
62
2
10
7720.00
20
2480.00
30
0.0
11
7720.00
21
1920.00
31
0.0
0
TEXT
8
ANNOTATIONS
62
2
10
7800.00
20
2200.00
30
0.0
40
90.00
1
NW-CHA-018
(F14)
0
LINE
8
FURN_CHAIR
62
2
10
5720.00
20
2120.00
30
0.0
11
6280.00
21
2120.00
31
0.0
0
LINE
8
FURN_CHAIR
62
2
10
6280.00
20
2120.00
30
0.0
11
6280.00
21
2680.00
31
0.0
0
LINE
8
FURN_CHAIR
62
2
10
6280.00
20
2680.00
30
0.0
11
5720.00
21
2680.00
31
0.0
0
LINE
8
FURN_CHAIR
62
2
10
5720.00
20
2680.00
30
0.0
11
5720.00
21
2120.00
31
0.0
0
TEXT
8
ANNOTATIONS
62
2
10
5800.00
20
2400.00
30
0.0
40
90.00
1
NW-CHA-018
(F14)
0
LINE
8
FURN_CHAIR
62
2
10
6320.00
20
2120.00
30
0.0
11
6880.00
21
2120.00
31
0.0
0
LINE
8
FURN_CHAIR
62
2
10
6880.00
20
2120.00
30
0.0
11
6880.00
21
2680.00
31
0.0
0
LINE
8
FURN_CHAIR
62
2
10
6880.00
20
2680.00
30
0.0
11
6320.00
21
2680.00
31
0.0
0
LINE
8
FURN_CHAIR
62
2
10
6320.00
20
2680.00
30
0.0
11
6320.00
21
2120.00
31
0.0
0
TEXT
8
ANNOTATIONS
62
2
10
6400.00
20
2400.00
30
0.0
40
90.00
1
NW-CHA-018
(F14)
0
LINE
8
FURN_CHAIR
62
2
10
6920.00
20
2520.00
30
0.0
11
7480.00
21
2520.00
31
0.0
0
LINE
8
FURN_CHAIR
62
2
10
7480.00
20
2520.00
30
0.0
11
7480.00
21
3080.00
31
0.0
0
LINE
8
FURN_CHAIR
62
2
10
7480.00
20
3080.00
30
0.0
11
6920.00
21
3080.00
31
0.0
0
LINE
8
FURN_CHAIR
62
2
10
6920.00
20
3080.00
30
0.0
11
6920.00
21
2520.00
31
0.0
0
TEXT
8
ANNOTATIONS
62
2
10
7000.00
20
2800.00
30
0.0
40
90.00
1
NW-CHA-018
(F14)
0
LINE
8
FURN_CHAIR
62
2
10
7520.00
20
2520.00
30
0.0
11
8080.00
21
2520.00
31
0.0
0
LINE
8
FURN_CHAIR
62
2
10
8080.00
20
2520.00
30
0.0
11
8080.00
21
3080.00
31
0.0
0
LINE
8
FURN_CHAIR
62
2
10
8080.00
20
3080.00
30
0.0
11
7520.00
21
3080.00
31
0.0
0
LINE
8
FURN_CHAIR
62
2
10
7520.00
20
3080.00
30
0.0
11
7520.00
21
2520.00
31
0.0
0
TEXT
8
ANNOTATIONS
62
2
10
7600.00
20
2800.00
30
0.0
40
90.00
1
NW-CHA-018
(F14)
0
LINE
8
FURN_CHAIR
62
2
10
5720.00
20
2720.00
30
0.0
11
6280.00
21
2720.00
31
0.0
0
LINE
8
FURN_CHAIR
62
2
10
6280.00
20
2720.00
30
0.0
11
6280.00
21
3280.00
31
0.0
0
LINE
8
FURN_CHAIR
62
2
10
6280.00
20
3280.00
30
0.0
11
5720.00
21
3280.00
31
0.0
0
LINE
8
FURN_CHAIR
62
2
10
5720.00
20
3280.00
30
0.0
11
5720.00
21
2720.00
31
0.0
0
TEXT
8
ANNOTATIONS
62
2
10
5800.00
20
3000.00
30
0.0
40
90.00
1
NW-CHA-018
(F14)
0
LINE
8
FURN_CHAIR
62
2
10
6320.00
20
2720.00
30
0.0
11
6880.00
21
2720.00
31
0.0
0
LINE
8
FURN_CHAIR
62
2
10
6880.00
20
2720.00
30
0.0
11
6880.00
21
3280.00
31
0.0
0
LINE
8
FURN_CHAIR
62
2
10
6880.00
20
3280.00
30
0.0
11
6320.00
21
3280.00
31
0.0
0
LINE
8
FURN_CHAIR
62
2
10
6320.00
20
3280.00
30
0.0
11
6320.00
21
2720.00
31
0.0
0
TEXT
8
ANNOTATIONS
62
2
10
6400.00
20
3000.00
30
0.0
40
90.00
1
NW-CHA-018
(F14)
0
LINE
8
FURN_CHAIR
62
2
10
120.00
20
2920.00
30
0.0
11
680.00
21
2920.00
31
0.0
0
LINE
8
FURN_CHAIR
62
2
10
680.00
20
2920.00
30
0.0
11
680.00
21
3480.00
31
0.0
0
LINE
8
FURN_CHAIR
62
2
10
680.00
20
3480.00
30
0.0
11
120.00
21
3480.00
31
0.0
0
LINE
8
FURN_CHAIR
62
2
10
120.00
20
3480.00
30
0.0
11
120.00
21
2920.00
31
0.0
0
TEXT
8
ANNOTATIONS
62
2
10
200.00
20
3200.00
30
0.0
40
90.00
1
NW-CHA-018
(F14)
0
LINE
8
FURN_CHAIR
62
2
10
720.00
20
2920.00
30
0.0
11
1280.00
21
2920.00
31
0.0
0
LINE
8
FURN_CHAIR
62
2
10
1280.00
20
2920.00
30
0.0
11
1280.00
21
3480.00
31
0.0
0
LINE
8
FURN_CHAIR
62
2
10
1280.00
20
3480.00
30
0.0
11
720.00
21
3480.00
31
0.0
0
LINE
8
FURN_CHAIR
62
2
10
720.00
20
3480.00
30
0.0
11
720.00
21
2920.00
31
0.0
0
TEXT
8
ANNOTATIONS
62
2
10
800.00
20
3200.00
30
0.0
40
90.00
1
NW-CHA-018
(F14)
0
LINE
8
FURN_CHAIR
62
2
10
4520.00
20
2920.00
30
0.0
11
5080.00
21
2920.00
31
0.0
0
LINE
8
FURN_CHAIR
62
2
10
5080.00
20
2920.00
30
0.0
11
5080.00
21
3480.00
31
0.0
0
LINE
8
FURN_CHAIR
62
2
10
5080.00
20
3480.00
30
0.0
11
4520.00
21
3480.00
31
0.0
0
LINE
8
FURN_CHAIR
62
2
10
4520.00
20
3480.00
30
0.0
11
4520.00
21
2920.00
31
0.0
0
TEXT
8
ANNOTATIONS
62
2
10
4600.00
20
3200.00
30
0.0
40
90.00
1
NW-CHA-018
(F14)
0
LINE
8
FURN_CHAIR
62
2
10
5120.00
20
2920.00
30
0.0
11
5680.00
21
2920.00
31
0.0
0
LINE
8
FURN_CHAIR
62
2
10
5680.00
20
2920.00
30
0.0
11
5680.00
21
3480.00
31
0.0
0
LINE
8
FURN_CHAIR
62
2
10
5680.00
20
3480.00
30
0.0
11
5120.00
21
3480.00
31
0.0
0
LINE
8
FURN_CHAIR
62
2
10
5120.00
20
3480.00
30
0.0
11
5120.00
21
2920.00
31
0.0
0
TEXT
8
ANNOTATIONS
62
2
10
5200.00
20
3200.00
30
0.0
40
90.00
1
NW-CHA-018
(F14)
0
LINE
8
FURN_CHAIR
62
2
10
6920.00
20
3120.00
30
0.0
11
7480.00
21
3120.00
31
0.0
0
LINE
8
FURN_CHAIR
62
2
10
7480.00
20
3120.00
30
0.0
11
7480.00
21
3680.00
31
0.0
0
LINE
8
FURN_CHAIR
62
2
10
7480.00
20
3680.00
30
0.0
11
6920.00
21
3680.00
31
0.0
0
LINE
8
FURN_CHAIR
62
2
10
6920.00
20
3680.00
30
0.0
11
6920.00
21
3120.00
31
0.0
0
TEXT
8
ANNOTATIONS
62
2
10
7000.00
20
3400.00
30
0.0
40
90.00
1
NW-CHA-018
(F14)
0
LINE
8
FURN_CHAIR
62
2
10
7520.00
20
3120.00
30
0.0
11
8080.00
21
3120.00
31
0.0
0
LINE
8
FURN_CHAIR
62
2
10
8080.00
20
3120.00
30
0.0
11
8080.00
21
3680.00
31
0.0
0
LINE
8
FURN_CHAIR
62
2
10
8080.00
20
3680.00
30
0.0
11
7520.00
21
3680.00
31
0.0
0
LINE
8
FURN_CHAIR
62
2
10
7520.00
20
3680.00
30
0.0
11
7520.00
21
3120.00
31
0.0
0
TEXT
8
ANNOTATIONS
62
2
10
7600.00
20
3400.00
30
0.0
40
90.00
1
NW-CHA-018
(F14)
0
LINE
8
FURN_STORAGE
62
6
10
5720.00
20
3320.00
30
0.0
11
6720.00
21
3320.00
31
0.0
0
LINE
8
FURN_STORAGE
62
6
10
6720.00
20
3320.00
30
0.0
11
6720.00
21
3770.00
31
0.0
0
LINE
8
FURN_STORAGE
62
6
10
6720.00
20
3770.00
30
0.0
11
5720.00
21
3770.00
31
0.0
0
LINE
8
FURN_STORAGE
62
6
10
5720.00
20
3770.00
30
0.0
11
5720.00
21
3320.00
31
0.0
0
TEXT
8
ANNOTATIONS
62
6
10
6020.00
20
3545.00
30
0.0
40
90.00
1
NW-STO-018
(F16)
0
LINE
8
FURN_STORAGE
62
6
10
120.00
20
3520.00
30
0.0
11
1120.00
21
3520.00
31
0.0
0
LINE
8
FURN_STORAGE
62
6
10
1120.00
20
3520.00
30
0.0
11
1120.00
21
3970.00
31
0.0
0
LINE
8
FURN_STORAGE
62
6
10
1120.00
20
3970.00
30
0.0
11
120.00
21
3970.00
31
0.0
0
LINE
8
FURN_STORAGE
62
6
10
120.00
20
3970.00
30
0.0
11
120.00
21
3520.00
31
0.0
0
TEXT
8
ANNOTATIONS
62
6
10
420.00
20
3745.00
30
0.0
40
90.00
1
NW-STO-018
(F16)
0
LINE
8
FURN_STORAGE
62
6
10
1120.00
20
3520.00
30
0.0
11
2120.00
21
3520.00
31
0.0
0
LINE
8
FURN_STORAGE
62
6
10
2120.00
20
3520.00
30
0.0
11
2120.00
21
3970.00
31
0.0
0
LINE
8
FURN_STORAGE
62
6
10
2120.00
20
3970.00
30
0.0
11
1120.00
21
3970.00
31
0.0
0
LINE
8
FURN_STORAGE
62
6
10
1120.00
20
3970.00
30
0.0
11
1120.00
21
3520.00
31
0.0
0
TEXT
8
ANNOTATIONS
62
6
10
1420.00
20
3745.00
30
0.0
40
90.00
1
NW-STO-018
(F16)
0
LINE
8
FURN_STORAGE
62
6
10
6720.00
20
3720.00
30
0.0
11
7720.00
21
3720.00
31
0.0
0
LINE
8
FURN_STORAGE
62
6
10
7720.00
20
3720.00
30
0.0
11
7720.00
21
4170.00
31
0.0
0
LINE
8
FURN_STORAGE
62
6
10
7720.00
20
4170.00
30
0.0
11
6720.00
21
4170.00
31
0.0
0
LINE
8
FURN_STORAGE
62
6
10
6720.00
20
4170.00
30
0.0
11
6720.00
21
3720.00
31
0.0
0
TEXT
8
ANNOTATIONS
62
6
10
7020.00
20
3945.00
30
0.0
40
90.00
1
NW-STO-018
(F16)
0
LINE
8
FURN_ACCESSORY
62
8
10
2320.00
20
1920.00
30
0.0
11
3220.00
21
1920.00
31
0.0
0
LINE
8
FURN_ACCESSORY
62
8
10
3220.00
20
1920.00
30
0.0
11
3220.00
21
2170.00
31
0.0
0
LINE
8
FURN_ACCESSORY
62
8
10
3220.00
20
2170.00
30
0.0
11
2320.00
21
2170.00
31
0.0
0
LINE
8
FURN_ACCESSORY
62
8
10
2320.00
20
2170.00
30
0.0
11
2320.00
21
1920.00
31
0.0
0
TEXT
8
ANNOTATIONS
62
8
10
2570.00
20
2045.00
30
0.0
40
90.00
1
NW-ACC-020
(F10)
0
LINE
8
FURN_ACCESSORY
62
8
10
5720.00
20
3920.00
30
0.0
11
6620.00
21
3920.00
31
0.0
0
LINE
8
FURN_ACCESSORY
62
8
10
6620.00
20
3920.00
30
0.0
11
6620.00
21
4170.00
31
0.0
0
LINE
8
FURN_ACCESSORY
62
8
10
6620.00
20
4170.00
30
0.0
11
5720.00
21
4170.00
31
0.0
0
LINE
8
FURN_ACCESSORY
62
8
10
5720.00
20
4170.00
30
0.0
11
5720.00
21
3920.00
31
0.0
0
TEXT
8
ANNOTATIONS
62
8
10
5970.00
20
4045.00
30
0.0
40
90.00
1
NW-ACC-020
(F10)
0
LINE
8
FURN_ACCESSORY
62
8
10
120.00
20
4120.00
30
0.0
11
1020.00
21
4120.00
31
0.0
0
LINE
8
FURN_ACCESSORY
62
8
10
1020.00
20
4120.00
30
0.0
11
1020.00
21
4370.00
31
0.0
0
LINE
8
FURN_ACCESSORY
62
8
10
1020.00
20
4370.00
30
0.0
11
120.00
21
4370.00
31
0.0
0
LINE
8
FURN_ACCESSORY
62
8
10
120.00
20
4370.00
30
0.0
11
120.00
21
4120.00
31
0.0
0
TEXT
8
ANNOTATIONS
62
8
10
370.00
20
4245.00
30
0.0
40
90.00
1
NW-ACC-020
(F10)
0
LINE
8
FURN_ACCESSORY
62
8
10
1120.00
20
4120.00
30
0.0
11
2020.00
21
4120.00
31
0.0
0
LINE
8
FURN_ACCESSORY
62
8
10
2020.00
20
4120.00
30
0.0
11
2020.00
21
4370.00
31
0.0
0
LINE
8
FURN_ACCESSORY
62
8
10
2020.00
20
4370.00
30
0.0
11
1120.00
21
4370.00
31
0.0
0
LINE
8
FURN_ACCESSORY
62
8
10
1120.00
20
4370.00
30
0.0
11
1120.00
21
4120.00
31
0.0
0
TEXT
8
ANNOTATIONS
62
8
10
1370.00
20
4245.00
30
0.0
40
90.00
1
NW-ACC-020
(F10)
0
LINE
8
FURN_ACCESSORY
62
8
10
2120.00
20
4120.00
30
0.0
11
3020.00
21
4120.00
31
0.0
0
LINE
8
FURN_ACCESSORY
62
8
10
3020.00
20
4120.00
30
0.0
11
3020.00
21
4370.00
31
0.0
0
LINE
8
FURN_ACCESSORY
62
8
10
3020.00
20
4370.00
30
0.0
11
2120.00
21
4370.00
31
0.0
0
LINE
8
FURN_ACCESSORY
62
8
10
2120.00
20
4370.00
30
0.0
11
2120.00
21
4120.00
31
0.0
0
TEXT
8
ANNOTATIONS
62
8
10
2370.00
20
4245.00
30
0.0
40
90.00
1
NW-ACC-020
(F10)
0
LINE
8
FURN_ACCESSORY
62
8
10
6320.00
20
4320.00
30
0.0
11
7220.00
21
4320.00
31
0.0
0
LINE
8
FURN_ACCESSORY
62
8
10
7220.00
20
4320.00
30
0.0
11
7220.00
21
4570.00
31
0.0
0
LINE
8
FURN_ACCESSORY
62
8
10
7220.00
20
4570.00
30
0.0
11
6320.00
21
4570.00
31
0.0
0
LINE
8
FURN_ACCESSORY
62
8
10
6320.00
20
4570.00
30
0.0
11
6320.00
21
4320.00
31
0.0
0
TEXT
8
ANNOTATIONS
62
8
10
6570.00
20
4445.00
30
0.0
40
90.00
1
NW-ACC-020
(F10)
0
ENDSEC
0
EOF
