0
SECTION
2
HEADER
0
ENDSEC
0
SECTION
2
TABLES
0
ENDSEC
0
SECTION
2
BLOCKS
0
ENDSEC
0
SECTION
2
ENTITIES
0
LINE
8
0_WALLS
62
7
10
0.00
20
0.00
30
0.0
11
8400.00
21
0.00
31
0.0
0
LINE
8
0_WALLS
62
7
10
8400.00
20
0.00
30
0.0
11
8400.00
21
7600.00
31
0.0
0
LINE
8
0_WALLS
62
7
10
8400.00
20
7600.00
30
0.0
11
0.00
21
7600.00
31
0.0
0
LINE
8
0_WALLS
62
7
10
0.00
20
7600.00
30
0.0
11
0.00
21
0.00
31
0.0
0
TEXT
8
ANNOTATIONS
62
7
10
200.00
20
200.00
30
0.0
40
200.00
1
ROOM: Summit Project Hub (ROOM-05)
0
LINE
8
0_DOORS
62
1
10
0.00
20
2100.00
30
0.0
11
0.00
21
900.00
31
0.0
0
TEXT
8
0_DOORS
62
1
10
50.00
20
1550.00
30
0.0
40
100.00
1
DOOR D1 (inward_right)
0
LINE
8
0_DOORS
62
1
10
8400.00
20
5600.00
30
0.0
11
8400.00
21
6600.00
31
0.0
0
TEXT
8
0_DOORS
62
1
10
8450.00
20
6150.00
30
0.0
40
100.00
1
DOOR D2 (outward_left)
0
TEXT
8
0_WINDOWS
62
5
10
100.00
20
100.00
30
0.0
40
100.00
1
WINDOW (5200.0mm)
0
LINE
8
0_EGRESS
62
4
10
0.00
20
1500.00
30
0.0
11
7900.00
21
6200.00
31
0.0
0
TEXT
8
0_EGRESS
62
4
10
3950.00
20
3850.00
30
0.0
40
120.00
1
PRIMARY EGRESS PATH (1100mm CLEAR)
0
LINE
8
FURN_DESK
62
3
10
120.00
20
120.00
30
0.0
11
1520.00
21
120.00
31
0.0
0
LINE
8
FURN_DESK
62
3
10
1520.00
20
120.00
30
0.0
11
1520.00
21
720.00
31
0.0
0
LINE
8
FURN_DESK
62
3
10
1520.00
20
720.00
30
0.0
11
120.00
21
720.00
31
0.0
0
LINE
8
FURN_DESK
62
3
10
120.00
20
720.00
30
0.0
11
120.00
21
120.00
31
0.0
0
TEXT
8
ANNOTATIONS
62
3
10
620.00
20
420.00
30
0.0
40
90.00
1
NW-DES-014
(F02)
0
LINE
8
FURN_DESK
62
3
10
1520.00
20
120.00
30
0.0
11
2920.00
21
120.00
31
0.0
0
LINE
8
FURN_DESK
62
3
10
2920.00
20
120.00
30
0.0
11
2920.00
21
720.00
31
0.0
0
LINE
8
FURN_DESK
62
3
10
2920.00
20
720.00
30
0.0
11
1520.00
21
720.00
31
0.0
0
LINE
8
FURN_DESK
62
3
10
1520.00
20
720.00
30
0.0
11
1520.00
21
120.00
31
0.0
0
TEXT
8
ANNOTATIONS
62
3
10
2020.00
20
420.00
30
0.0
40
90.00
1
NW-DES-014
(F02)
0
LINE
8
FURN_DESK
62
3
10
2920.00
20
120.00
30
0.0
11
4320.00
21
120.00
31
0.0
0
LINE
8
FURN_DESK
62
3
10
4320.00
20
120.00
30
0.0
11
4320.00
21
720.00
31
0.0
0
LINE
8
FURN_DESK
62
3
10
4320.00
20
720.00
30
0.0
11
2920.00
21
720.00
31
0.0
0
LINE
8
FURN_DESK
62
3
10
2920.00
20
720.00
30
0.0
11
2920.00
21
120.00
31
0.0
0
TEXT
8
ANNOTATIONS
62
3
10
3420.00
20
420.00
30
0.0
40
90.00
1
NW-DES-014
(F02)
0
LINE
8
FURN_DESK
62
3
10
200.00
20
4600.00
30
0.0
11
1600.00
21
4600.00
31
0.0
0
LINE
8
FURN_DESK
62
3
10
1600.00
20
4600.00
30
0.0
11
1600.00
21
5200.00
31
0.0
0
LINE
8
FURN_DESK
62
3
10
1600.00
20
5200.00
30
0.0
11
200.00
21
5200.00
31
0.0
0
LINE
8
FURN_DESK
62
3
10
200.00
20
5200.00
30
0.0
11
200.00
21
4600.00
31
0.0
0
TEXT
8
ANNOTATIONS
62
3
10
700.00
20
4900.00
30
0.0
40
90.00
1
NW-DES-014
(F02)
0
LINE
8
FURN_DESK
62
3
10
1800.00
20
4600.00
30
0.0
11
3200.00
21
4600.00
31
0.0
0
LINE
8
FURN_DESK
62
3
10
3200.00
20
4600.00
30
0.0
11
3200.00
21
5200.00
31
0.0
0
LINE
8
FURN_DESK
62
3
10
3200.00
20
5200.00
30
0.0
11
1800.00
21
5200.00
31
0.0
0
LINE
8
FURN_DESK
62
3
10
1800.00
20
5200.00
30
0.0
11
1800.00
21
4600.00
31
0.0
0
TEXT
8
ANNOTATIONS
62
3
10
2300.00
20
4900.00
30
0.0
40
90.00
1
NW-DES-014
(F02)
0
LINE
8
FURN_DESK
62
3
10
4200.00
20
5800.00
30
0.0
11
5600.00
21
5800.00
31
0.0
0
LINE
8
FURN_DESK
62
3
10
5600.00
20
5800.00
30
0.0
11
5600.00
21
6400.00
31
0.0
0
LINE
8
FURN_DESK
62
3
10
5600.00
20
6400.00
30
0.0
11
4200.00
21
6400.00
31
0.0
0
LINE
8
FURN_DESK
62
3
10
4200.00
20
6400.00
30
0.0
11
4200.00
21
5800.00
31
0.0
0
TEXT
8
ANNOTATIONS
62
3
10
4700.00
20
6100.00
30
0.0
40
90.00
1
NW-DES-014
(F02)
0
LINE
8
FURN_DESK
62
3
10
1000.00
20
6200.00
30
0.0
11
2400.00
21
6200.00
31
0.0
0
LINE
8
FURN_DESK
62
3
10
2400.00
20
6200.00
30
0.0
11
2400.00
21
6800.00
31
0.0
0
LINE
8
FURN_DESK
62
3
10
2400.00
20
6800.00
30
0.0
11
1000.00
21
6800.00
31
0.0
0
LINE
8
FURN_DESK
62
3
10
1000.00
20
6800.00
30
0.0
11
1000.00
21
6200.00
31
0.0
0
TEXT
8
ANNOTATIONS
62
3
10
1500.00
20
6500.00
30
0.0
40
90.00
1
NW-DES-014
(F02)
0
LINE
8
FURN_DESK
62
3
10
3620.00
20
720.00
30
0.0
11
5020.00
21
720.00
31
0.0
0
LINE
8
FURN_DESK
62
3
10
5020.00
20
720.00
30
0.0
11
5020.00
21
1320.00
31
0.0
0
LINE
8
FURN_DESK
62
3
10
5020.00
20
1320.00
30
0.0
11
3620.00
21
1320.00
31
0.0
0
LINE
8
FURN_DESK
62
3
10
3620.00
20
1320.00
30
0.0
11
3620.00
21
720.00
31
0.0
0
TEXT
8
ANNOTATIONS
62
3
10
4120.00
20
1020.00
30
0.0
40
90.00
1
NW-DES-014
(F02)
0
LINE
8
FURN_DESK
62
3
10
5020.00
20
720.00
30
0.0
11
6420.00
21
720.00
31
0.0
0
LINE
8
FURN_DESK
62
3
10
6420.00
20
720.00
30
0.0
11
6420.00
21
1320.00
31
0.0
0
LINE
8
FURN_DESK
62
3
10
6420.00
20
1320.00
30
0.0
11
5020.00
21
1320.00
31
0.0
0
LINE
8
FURN_DESK
62
3
10
5020.00
20
1320.00
30
0.0
11
5020.00
21
720.00
31
0.0
0
TEXT
8
ANNOTATIONS
62
3
10
5520.00
20
1020.00
30
0.0
40
90.00
1
NW-DES-014
(F02)
0
LINE
8
FURN_DESK
62
3
10
6420.00
20
720.00
30
0.0
11
7820.00
21
720.00
31
0.0
0
LINE
8
FURN_DESK
62
3
10
7820.00
20
720.00
30
0.0
11
7820.00
21
1320.00
31
0.0
0
LINE
8
FURN_DESK
62
3
10
7820.00
20
1320.00
30
0.0
11
6420.00
21
1320.00
31
0.0
0
LINE
8
FURN_DESK
62
3
10
6420.00
20
1320.00
30
0.0
11
6420.00
21
720.00
31
0.0
0
TEXT
8
ANNOTATIONS
62
3
10
6920.00
20
1020.00
30
0.0
40
90.00
1
NW-DES-014
(F02)
0
LINE
8
FURN_DESK
62
3
10
1820.00
20
1320.00
30
0.0
11
3220.00
21
1320.00
31
0.0
0
LINE
8
FURN_DESK
62
3
10
3220.00
20
1320.00
30
0.0
11
3220.00
21
1920.00
31
0.0
0
LINE
8
FURN_DESK
62
3
10
3220.00
20
1920.00
30
0.0
11
1820.00
21
1920.00
31
0.0
0
LINE
8
FURN_DESK
62
3
10
1820.00
20
1920.00
30
0.0
11
1820.00
21
1320.00
31
0.0
0
TEXT
8
ANNOTATIONS
62
3
10
2320.00
20
1620.00
30
0.0
40
90.00
1
NW-DES-014
(F02)
0
LINE
8
FURN_DESK
62
3
10
3220.00
20
1320.00
30
0.0
11
4620.00
21
1320.00
31
0.0
0
LINE
8
FURN_DESK
62
3
10
4620.00
20
1320.00
30
0.0
11
4620.00
21
1920.00
31
0.0
0
LINE
8
FURN_DESK
62
3
10
4620.00
20
1920.00
30
0.0
11
3220.00
21
1920.00
31
0.0
0
LINE
8
FURN_DESK
62
3
10
3220.00
20
1920.00
30
0.0
11
3220.00
21
1320.00
31
0.0
0
TEXT
8
ANNOTATIONS
62
3
10
3720.00
20
1620.00
30
0.0
40
90.00
1
NW-DES-014
(F02)
0
LINE
8
FURN_COLLAB
62
4
10
4620.00
20
1320.00
30
0.0
11
7020.00
21
1320.00
31
0.0
0
LINE
8
FURN_COLLAB
62
4
10
7020.00
20
1320.00
30
0.0
11
7020.00
21
2020.00
31
0.0
0
LINE
8
FURN_COLLAB
62
4
10
7020.00
20
2020.00
30
0.0
11
4620.00
21
2020.00
31
0.0
0
LINE
8
FURN_COLLAB
62
4
10
4620.00
20
2020.00
30
0.0
11
4620.00
21
1320.00
31
0.0
0
TEXT
8
ANNOTATIONS
62
4
10
5620.00
20
1670.00
30
0.0
40
90.00
1
NW-COL-004
(F09)
0
LINE
8
FURN_COLLAB
62
4
10
3220.00
20
2020.00
30
0.0
11
5620.00
21
2020.00
31
0.0
0
LINE
8
FURN_COLLAB
62
4
10
5620.00
20
2020.00
30
0.0
11
5620.00
21
2720.00
31
0.0
0
LINE
8
FURN_COLLAB
62
4
10
5620.00
20
2720.00
30
0.0
11
3220.00
21
2720.00
31
0.0
0
LINE
8
FURN_COLLAB
62
4
10
3220.00
20
2720.00
30
0.0
11
3220.00
21
2020.00
31
0.0
0
TEXT
8
ANNOTATIONS
62
4
10
4220.00
20
2370.00
30
0.0
40
90.00
1
NW-COL-004
(F09)
0
LINE
8
FURN_CHAIR
62
2
10
7120.00
20
120.00
30
0.0
11
7680.00
21
120.00
31
0.0
0
LINE
8
FURN_CHAIR
62
2
10
7680.00
20
120.00
30
0.0
11
7680.00
21
680.00
31
0.0
0
LINE
8
FURN_CHAIR
62
2
10
7680.00
20
680.00
30
0.0
11
7120.00
21
680.00
31
0.0
0
LINE
8
FURN_CHAIR
62
2
10
7120.00
20
680.00
30
0.0
11
7120.00
21
120.00
31
0.0
0
TEXT
8
ANNOTATIONS
62
2
10
7200.00
20
400.00
30
0.0
40
90.00
1
NW-CHA-018
(F14)
0
LINE
8
FURN_CHAIR
62
2
10
7720.00
20
120.00
30
0.0
11
8280.00
21
120.00
31
0.0
0
LINE
8
FURN_CHAIR
62
2
10
8280.00
20
120.00
30
0.0
11
8280.00
21
680.00
31
0.0
0
LINE
8
FURN_CHAIR
62
2
10
8280.00
20
680.00
30
0.0
11
7720.00
21
680.00
31
0.0
0
LINE
8
FURN_CHAIR
62
2
10
7720.00
20
680.00
30
0.0
11
7720.00
21
120.00
31
0.0
0
TEXT
8
ANNOTATIONS
62
2
10
7800.00
20
400.00
30
0.0
40
90.00
1
NW-CHA-018
(F14)
0
LINE
8
FURN_CHAIR
62
2
10
7020.00
20
1320.00
30
0.0
11
7580.00
21
1320.00
31
0.0
0
LINE
8
FURN_CHAIR
62
2
10
7580.00
20
1320.00
30
0.0
11
7580.00
21
1880.00
31
0.0
0
LINE
8
FURN_CHAIR
62
2
10
7580.00
20
1880.00
30
0.0
11
7020.00
21
1880.00
31
0.0
0
LINE
8
FURN_CHAIR
62
2
10
7020.00
20
1880.00
30
0.0
11
7020.00
21
1320.00
31
0.0
0
TEXT
8
ANNOTATIONS
62
2
10
7100.00
20
1600.00
30
0.0
40
90.00
1
NW-CHA-018
(F14)
0
LINE
8
FURN_CHAIR
62
2
10
7620.00
20
1320.00
30
0.0
11
8180.00
21
1320.00
31
0.0
0
LINE
8
FURN_CHAIR
62
2
10
8180.00
20
1320.00
30
0.0
11
8180.00
21
1880.00
31
0.0
0
LINE
8
FURN_CHAIR
62
2
10
8180.00
20
1880.00
30
0.0
11
7620.00
21
1880.00
31
0.0
0
LINE
8
FURN_CHAIR
62
2
10
7620.00
20
1880.00
30
0.0
11
7620.00
21
1320.00
31
0.0
0
TEXT
8
ANNOTATIONS
62
2
10
7700.00
20
1600.00
30
0.0
40
90.00
1
NW-CHA-018
(F14)
0
LINE
8
FURN_CHAIR
62
2
10
7020.00
20
1920.00
30
0.0
11
7580.00
21
1920.00
31
0.0
0
LINE
8
FURN_CHAIR
62
2
10
7580.00
20
1920.00
30
0.0
11
7580.00
21
2480.00
31
0.0
0
LINE
8
FURN_CHAIR
62
2
10
7580.00
20
2480.00
30
0.0
11
7020.00
21
2480.00
31
0.0
0
LINE
8
FURN_CHAIR
62
2
10
7020.00
20
2480.00
30
0.0
11
7020.00
21
1920.00
31
0.0
0
TEXT
8
ANNOTATIONS
62
2
10
7100.00
20
2200.00
30
0.0
40
90.00
1
NW-CHA-018
(F14)
0
LINE
8
FURN_CHAIR
62
2
10
7620.00
20
1920.00
30
0.0
11
8180.00
21
1920.00
31
0.0
0
LINE
8
FURN_CHAIR
62
2
10
8180.00
20
1920.00
30
0.0
11
8180.00
21
2480.00
31
0.0
0
LINE
8
FURN_CHAIR
62
2
10
8180.00
20
2480.00
30
0.0
11
7620.00
21
2480.00
31
0.0
0
LINE
8
FURN_CHAIR
62
2
10
7620.00
20
2480.00
30
0.0
11
7620.00
21
1920.00
31
0.0
0
TEXT
8
ANNOTATIONS
62
2
10
7700.00
20
2200.00
30
0.0
40
90.00
1
NW-CHA-018
(F14)
0
LINE
8
FURN_CHAIR
62
2
10
5620.00
20
2020.00
30
0.0
11
6180.00
21
2020.00
31
0.0
0
LINE
8
FURN_CHAIR
62
2
10
6180.00
20
2020.00
30
0.0
11
6180.00
21
2580.00
31
0.0
0
LINE
8
FURN_CHAIR
62
2
10
6180.00
20
2580.00
30
0.0
11
5620.00
21
2580.00
31
0.0
0
LINE
8
FURN_CHAIR
62
2
10
5620.00
20
2580.00
30
0.0
11
5620.00
21
2020.00
31
0.0
0
TEXT
8
ANNOTATIONS
62
2
10
5700.00
20
2300.00
30
0.0
40
90.00
1
NW-CHA-018
(F14)
0
LINE
8
FURN_CHAIR
62
2
10
6220.00
20
2020.00
30
0.0
11
6780.00
21
2020.00
31
0.0
0
LINE
8
FURN_CHAIR
62
2
10
6780.00
20
2020.00
30
0.0
11
6780.00
21
2580.00
31
0.0
0
LINE
8
FURN_CHAIR
62
2
10
6780.00
20
2580.00
30
0.0
11
6220.00
21
2580.00
31
0.0
0
LINE
8
FURN_CHAIR
62
2
10
6220.00
20
2580.00
30
0.0
11
6220.00
21
2020.00
31
0.0
0
TEXT
8
ANNOTATIONS
62
2
10
6300.00
20
2300.00
30
0.0
40
90.00
1
NW-CHA-018
(F14)
0
LINE
8
FURN_CHAIR
62
2
10
6820.00
20
2520.00
30
0.0
11
7380.00
21
2520.00
31
0.0
0
LINE
8
FURN_CHAIR
62
2
10
7380.00
20
2520.00
30
0.0
11
7380.00
21
3080.00
31
0.0
0
LINE
8
FURN_CHAIR
62
2
10
7380.00
20
3080.00
30
0.0
11
6820.00
21
3080.00
31
0.0
0
LINE
8
FURN_CHAIR
62
2
10
6820.00
20
3080.00
30
0.0
11
6820.00
21
2520.00
31
0.0
0
TEXT
8
ANNOTATIONS
62
2
10
6900.00
20
2800.00
30
0.0
40
90.00
1
NW-CHA-018
(F14)
0
LINE
8
FURN_CHAIR
62
2
10
7420.00
20
2520.00
30
0.0
11
7980.00
21
2520.00
31
0.0
0
LINE
8
FURN_CHAIR
62
2
10
7980.00
20
2520.00
30
0.0
11
7980.00
21
3080.00
31
0.0
0
LINE
8
FURN_CHAIR
62
2
10
7980.00
20
3080.00
30
0.0
11
7420.00
21
3080.00
31
0.0
0
LINE
8
FURN_CHAIR
62
2
10
7420.00
20
3080.00
30
0.0
11
7420.00
21
2520.00
31
0.0
0
TEXT
8
ANNOTATIONS
62
2
10
7500.00
20
2800.00
30
0.0
40
90.00
1
NW-CHA-018
(F14)
0
LINE
8
FURN_CHAIR
62
2
10
5620.00
20
2620.00
30
0.0
11
6180.00
21
2620.00
31
0.0
0
LINE
8
FURN_CHAIR
62
2
10
6180.00
20
2620.00
30
0.0
11
6180.00
21
3180.00
31
0.0
0
LINE
8
FURN_CHAIR
62
2
10
6180.00
20
3180.00
30
0.0
11
5620.00
21
3180.00
31
0.0
0
LINE
8
FURN_CHAIR
62
2
10
5620.00
20
3180.00
30
0.0
11
5620.00
21
2620.00
31
0.0
0
TEXT
8
ANNOTATIONS
62
2
10
5700.00
20
2900.00
30
0.0
40
90.00
1
NW-CHA-018
(F14)
0
LINE
8
FURN_CHAIR
62
2
10
6220.00
20
2620.00
30
0.0
11
6780.00
21
2620.00
31
0.0
0
LINE
8
FURN_CHAIR
62
2
10
6780.00
20
2620.00
30
0.0
11
6780.00
21
3180.00
31
0.0
0
LINE
8
FURN_CHAIR
62
2
10
6780.00
20
3180.00
30
0.0
11
6220.00
21
3180.00
31
0.0
0
LINE
8
FURN_CHAIR
62
2
10
6220.00
20
3180.00
30
0.0
11
6220.00
21
2620.00
31
0.0
0
TEXT
8
ANNOTATIONS
62
2
10
6300.00
20
2900.00
30
0.0
40
90.00
1
NW-CHA-018
(F14)
0
LINE
8
FURN_CHAIR
62
2
10
4120.00
20
2720.00
30
0.0
11
4680.00
21
2720.00
31
0.0
0
LINE
8
FURN_CHAIR
62
2
10
4680.00
20
2720.00
30
0.0
11
4680.00
21
3280.00
31
0.0
0
LINE
8
FURN_CHAIR
62
2
10
4680.00
20
3280.00
30
0.0
11
4120.00
21
3280.00
31
0.0
0
LINE
8
FURN_CHAIR
62
2
10
4120.00
20
3280.00
30
0.0
11
4120.00
21
2720.00
31
0.0
0
TEXT
8
ANNOTATIONS
62
2
10
4200.00
20
3000.00
30
0.0
40
90.00
1
NW-CHA-018
(F14)
0
LINE
8
FURN_CHAIR
62
2
10
4720.00
20
2720.00
30
0.0
11
5280.00
21
2720.00
31
0.0
0
LINE
8
FURN_CHAIR
62
2
10
5280.00
20
2720.00
30
0.0
11
5280.00
21
3280.00
31
0.0
0
LINE
8
FURN_CHAIR
62
2
10
5280.00
20
3280.00
30
0.0
11
4720.00
21
3280.00
31
0.0
0
LINE
8
FURN_CHAIR
62
2
10
4720.00
20
3280.00
30
0.0
11
4720.00
21
2720.00
31
0.0
0
TEXT
8
ANNOTATIONS
62
2
10
4800.00
20
3000.00
30
0.0
40
90.00
1
NW-CHA-018
(F14)
0
LINE
8
FURN_CHAIR
62
2
10
320.00
20
2820.00
30
0.0
11
880.00
21
2820.00
31
0.0
0
LINE
8
FURN_CHAIR
62
2
10
880.00
20
2820.00
30
0.0
11
880.00
21
3380.00
31
0.0
0
LINE
8
FURN_CHAIR
62
2
10
880.00
20
3380.00
30
0.0
11
320.00
21
3380.00
31
0.0
0
LINE
8
FURN_CHAIR
62
2
10
320.00
20
3380.00
30
0.0
11
320.00
21
2820.00
31
0.0
0
TEXT
8
ANNOTATIONS
62
2
10
400.00
20
3100.00
30
0.0
40
90.00
1
NW-CHA-018
(F14)
0
LINE
8
FURN_CHAIR
62
2
10
920.00
20
3120.00
30
0.0
11
1480.00
21
3120.00
31
0.0
0
LINE
8
FURN_CHAIR
62
2
10
1480.00
20
3120.00
30
0.0
11
1480.00
21
3680.00
31
0.0
0
LINE
8
FURN_CHAIR
62
2
10
1480.00
20
3680.00
30
0.0
11
920.00
21
3680.00
31
0.0
0
LINE
8
FURN_CHAIR
62
2
10
920.00
20
3680.00
30
0.0
11
920.00
21
3120.00
31
0.0
0
TEXT
8
ANNOTATIONS
62
2
10
1000.00
20
3400.00
30
0.0
40
90.00
1
NW-CHA-018
(F14)
0
LINE
8
FURN_CHAIR
62
2
10
6820.00
20
3120.00
30
0.0
11
7380.00
21
3120.00
31
0.0
0
LINE
8
FURN_CHAIR
62
2
10
7380.00
20
3120.00
30
0.0
11
7380.00
21
3680.00
31
0.0
0
LINE
8
FURN_CHAIR
62
2
10
7380.00
20
3680.00
30
0.0
11
6820.00
21
3680.00
31
0.0
0
LINE
8
FURN_CHAIR
62
2
10
6820.00
20
3680.00
30
0.0
11
6820.00
21
3120.00
31
0.0
0
TEXT
8
ANNOTATIONS
62
2
10
6900.00
20
3400.00
30
0.0
40
90.00
1
NW-CHA-018
(F14)
0
LINE
8
FURN_CHAIR
62
2
10
7420.00
20
3120.00
30
0.0
11
7980.00
21
3120.00
31
0.0
0
LINE
8
FURN_CHAIR
62
2
10
7980.00
20
3120.00
30
0.0
11
7980.00
21
3680.00
31
0.0
0
LINE
8
FURN_CHAIR
62
2
10
7980.00
20
3680.00
30
0.0
11
7420.00
21
3680.00
31
0.0
0
LINE
8
FURN_CHAIR
62
2
10
7420.00
20
3680.00
30
0.0
11
7420.00
21
3120.00
31
0.0
0
TEXT
8
ANNOTATIONS
62
2
10
7500.00
20
3400.00
30
0.0
40
90.00
1
NW-CHA-018
(F14)
0
LINE
8
FURN_STORAGE
62
6
10
5320.00
20
3220.00
30
0.0
11
6320.00
21
3220.00
31
0.0
0
LINE
8
FURN_STORAGE
62
6
10
6320.00
20
3220.00
30
0.0
11
6320.00
21
3670.00
31
0.0
0
LINE
8
FURN_STORAGE
62
6
10
6320.00
20
3670.00
30
0.0
11
5320.00
21
3670.00
31
0.0
0
LINE
8
FURN_STORAGE
62
6
10
5320.00
20
3670.00
30
0.0
11
5320.00
21
3220.00
31
0.0
0
TEXT
8
ANNOTATIONS
62
6
10
5620.00
20
3445.00
30
0.0
40
90.00
1
NW-STO-018
(F16)
0
LINE
8
FURN_STORAGE
62
6
10
120.00
20
3720.00
30
0.0
11
1120.00
21
3720.00
31
0.0
0
LINE
8
FURN_STORAGE
62
6
10
1120.00
20
3720.00
30
0.0
11
1120.00
21
4170.00
31
0.0
0
LINE
8
FURN_STORAGE
62
6
10
1120.00
20
4170.00
30
0.0
11
120.00
21
4170.00
31
0.0
0
LINE
8
FURN_STORAGE
62
6
10
120.00
20
4170.00
30
0.0
11
120.00
21
3720.00
31
0.0
0
TEXT
8
ANNOTATIONS
62
6
10
420.00
20
3945.00
30
0.0
40
90.00
1
NW-STO-018
(F16)
0
LINE
8
FURN_STORAGE
62
6
10
1120.00
20
3720.00
30
0.0
11
2120.00
21
3720.00
31
0.0
0
LINE
8
FURN_STORAGE
62
6
10
2120.00
20
3720.00
30
0.0
11
2120.00
21
4170.00
31
0.0
0
LINE
8
FURN_STORAGE
62
6
10
2120.00
20
4170.00
30
0.0
11
1120.00
21
4170.00
31
0.0
0
LINE
8
FURN_STORAGE
62
6
10
1120.00
20
4170.00
30
0.0
11
1120.00
21
3720.00
31
0.0
0
TEXT
8
ANNOTATIONS
62
6
10
1420.00
20
3945.00
30
0.0
40
90.00
1
NW-STO-018
(F16)
0
LINE
8
FURN_STORAGE
62
6
10
5620.00
20
3720.00
30
0.0
11
6620.00
21
3720.00
31
0.0
0
LINE
8
FURN_STORAGE
62
6
10
6620.00
20
3720.00
30
0.0
11
6620.00
21
4170.00
31
0.0
0
LINE
8
FURN_STORAGE
62
6
10
6620.00
20
4170.00
30
0.0
11
5620.00
21
4170.00
31
0.0
0
LINE
8
FURN_STORAGE
62
6
10
5620.00
20
4170.00
30
0.0
11
5620.00
21
3720.00
31
0.0
0
TEXT
8
ANNOTATIONS
62
6
10
5920.00
20
3945.00
30
0.0
40
90.00
1
NW-STO-018
(F16)
0
LINE
8
FURN_ACCESSORY
62
8
10
2220.00
20
1920.00
30
0.0
11
3120.00
21
1920.00
31
0.0
0
LINE
8
FURN_ACCESSORY
62
8
10
3120.00
20
1920.00
30
0.0
11
3120.00
21
2170.00
31
0.0
0
LINE
8
FURN_ACCESSORY
62
8
10
3120.00
20
2170.00
30
0.0
11
2220.00
21
2170.00
31
0.0
0
LINE
8
FURN_ACCESSORY
62
8
10
2220.00
20
2170.00
30
0.0
11
2220.00
21
1920.00
31
0.0
0
TEXT
8
ANNOTATIONS
62
8
10
2470.00
20
2045.00
30
0.0
40
90.00
1
NW-ACC-020
(F10)
0
LINE
8
FURN_ACCESSORY
62
8
10
6620.00
20
3720.00
30
0.0
11
7520.00
21
3720.00
31
0.0
0
LINE
8
FURN_ACCESSORY
62
8
10
7520.00
20
3720.00
30
0.0
11
7520.00
21
3970.00
31
0.0
0
LINE
8
FURN_ACCESSORY
62
8
10
7520.00
20
3970.00
30
0.0
11
6620.00
21
3970.00
31
0.0
0
LINE
8
FURN_ACCESSORY
62
8
10
6620.00
20
3970.00
30
0.0
11
6620.00
21
3720.00
31
0.0
0
TEXT
8
ANNOTATIONS
62
8
10
6870.00
20
3845.00
30
0.0
40
90.00
1
NW-ACC-020
(F10)
0
LINE
8
FURN_ACCESSORY
62
8
10
2120.00
20
4020.00
30
0.0
11
3020.00
21
4020.00
31
0.0
0
LINE
8
FURN_ACCESSORY
62
8
10
3020.00
20
4020.00
30
0.0
11
3020.00
21
4270.00
31
0.0
0
LINE
8
FURN_ACCESSORY
62
8
10
3020.00
20
4270.00
30
0.0
11
2120.00
21
4270.00
31
0.0
0
LINE
8
FURN_ACCESSORY
62
8
10
2120.00
20
4270.00
30
0.0
11
2120.00
21
4020.00
31
0.0
0
TEXT
8
ANNOTATIONS
62
8
10
2370.00
20
4145.00
30
0.0
40
90.00
1
NW-ACC-020
(F10)
0
LINE
8
FURN_ACCESSORY
62
8
10
6620.00
20
4020.00
30
0.0
11
7520.00
21
4020.00
31
0.0
0
LINE
8
FURN_ACCESSORY
62
8
10
7520.00
20
4020.00
30
0.0
11
7520.00
21
4270.00
31
0.0
0
LINE
8
FURN_ACCESSORY
62
8
10
7520.00
20
4270.00
30
0.0
11
6620.00
21
4270.00
31
0.0
0
LINE
8
FURN_ACCESSORY
62
8
10
6620.00
20
4270.00
30
0.0
11
6620.00
21
4020.00
31
0.0
0
TEXT
8
ANNOTATIONS
62
8
10
6870.00
20
4145.00
30
0.0
40
90.00
1
NW-ACC-020
(F10)
0
LINE
8
FURN_ACCESSORY
62
8
10
120.00
20
4220.00
30
0.0
11
1020.00
21
4220.00
31
0.0
0
LINE
8
FURN_ACCESSORY
62
8
10
1020.00
20
4220.00
30
0.0
11
1020.00
21
4470.00
31
0.0
0
LINE
8
FURN_ACCESSORY
62
8
10
1020.00
20
4470.00
30
0.0
11
120.00
21
4470.00
31
0.0
0
LINE
8
FURN_ACCESSORY
62
8
10
120.00
20
4470.00
30
0.0
11
120.00
21
4220.00
31
0.0
0
TEXT
8
ANNOTATIONS
62
8
10
370.00
20
4345.00
30
0.0
40
90.00
1
NW-ACC-020
(F10)
0
LINE
8
FURN_ACCESSORY
62
8
10
1020.00
20
4220.00
30
0.0
11
1920.00
21
4220.00
31
0.0
0
LINE
8
FURN_ACCESSORY
62
8
10
1920.00
20
4220.00
30
0.0
11
1920.00
21
4470.00
31
0.0
0
LINE
8
FURN_ACCESSORY
62
8
10
1920.00
20
4470.00
30
0.0
11
1020.00
21
4470.00
31
0.0
0
LINE
8
FURN_ACCESSORY
62
8
10
1020.00
20
4470.00
30
0.0
11
1020.00
21
4220.00
31
0.0
0
TEXT
8
ANNOTATIONS
62
8
10
1270.00
20
4345.00
30
0.0
40
90.00
1
NW-ACC-020
(F10)
0
ENDSEC
0
EOF
