0
SECTION
2
HEADER
0
ENDSEC
0
SECTION
2
TABLES
0
ENDSEC
0
SECTION
2
BLOCKS
0
ENDSEC
0
SECTION
2
ENTITIES
0
LINE
8
0_WALLS
62
7
10
0.00
20
0.00
30
0.0
11
8400.00
21
0.00
31
0.0
0
LINE
8
0_WALLS
62
7
10
8400.00
20
0.00
30
0.0
11
8400.00
21
7600.00
31
0.0
0
LINE
8
0_WALLS
62
7
10
8400.00
20
7600.00
30
0.0
11
0.00
21
7600.00
31
0.0
0
LINE
8
0_WALLS
62
7
10
0.00
20
7600.00
30
0.0
11
0.00
21
0.00
31
0.0
0
TEXT
8
ANNOTATIONS
62
7
10
200.00
20
200.00
30
0.0
40
200.00
1
ROOM: Summit Project Hub (ROOM-05)
0
LINE
8
0_DOORS
62
1
10
0.00
20
2100.00
30
0.0
11
0.00
21
900.00
31
0.0
0
TEXT
8
0_DOORS
62
1
10
50.00
20
1550.00
30
0.0
40
100.00
1
DOOR D1 (inward_right)
0
LINE
8
0_DOORS
62
1
10
8400.00
20
5600.00
30
0.0
11
8400.00
21
6600.00
31
0.0
0
TEXT
8
0_DOORS
62
1
10
8450.00
20
6150.00
30
0.0
40
100.00
1
DOOR D2 (outward_left)
0
TEXT
8
0_WINDOWS
62
5
10
100.00
20
100.00
30
0.0
40
100.00
1
WINDOW (5200.0mm)
0
LINE
8
0_EGRESS
62
4
10
0.00
20
1500.00
30
0.0
11
7900.00
21
6200.00
31
0.0
0
TEXT
8
0_EGRESS
62
4
10
3950.00
20
3850.00
30
0.0
40
120.00
1
PRIMARY EGRESS PATH (1100mm CLEAR)
0
LINE
8
FURN_DESK
62
3
10
120.00
20
120.00
30
0.0
11
1520.00
21
120.00
31
0.0
0
LINE
8
FURN_DESK
62
3
10
1520.00
20
120.00
30
0.0
11
1520.00
21
720.00
31
0.0
0
LINE
8
FURN_DESK
62
3
10
1520.00
20
720.00
30
0.0
11
120.00
21
720.00
31
0.0
0
LINE
8
FURN_DESK
62
3
10
120.00
20
720.00
30
0.0
11
120.00
21
120.00
31
0.0
0
TEXT
8
ANNOTATIONS
62
3
10
620.00
20
420.00
30
0.0
40
90.00
1
NW-DES-014
(F02)
0
LINE
8
FURN_DESK
62
3
10
1520.00
20
120.00
30
0.0
11
2920.00
21
120.00
31
0.0
0
LINE
8
FURN_DESK
62
3
10
2920.00
20
120.00
30
0.0
11
2920.00
21
720.00
31
0.0
0
LINE
8
FURN_DESK
62
3
10
2920.00
20
720.00
30
0.0
11
1520.00
21
720.00
31
0.0
0
LINE
8
FURN_DESK
62
3
10
1520.00
20
720.00
30
0.0
11
1520.00
21
120.00
31
0.0
0
TEXT
8
ANNOTATIONS
62
3
10
2020.00
20
420.00
30
0.0
40
90.00
1
NW-DES-014
(F02)
0
LINE
8
FURN_DESK
62
3
10
2920.00
20
120.00
30
0.0
11
4320.00
21
120.00
31
0.0
0
LINE
8
FURN_DESK
62
3
10
4320.00
20
120.00
30
0.0
11
4320.00
21
720.00
31
0.0
0
LINE
8
FURN_DESK
62
3
10
4320.00
20
720.00
30
0.0
11
2920.00
21
720.00
31
0.0
0
LINE
8
FURN_DESK
62
3
10
2920.00
20
720.00
30
0.0
11
2920.00
21
120.00
31
0.0
0
TEXT
8
ANNOTATIONS
62
3
10
3420.00
20
420.00
30
0.0
40
90.00
1
NW-DES-014
(F02)
0
LINE
8
FURN_DESK
62
3
10
4320.00
20
120.00
30
0.0
11
5720.00
21
120.00
31
0.0
0
LINE
8
FURN_DESK
62
3
10
5720.00
20
120.00
30
0.0
11
5720.00
21
720.00
31
0.0
0
LINE
8
FURN_DESK
62
3
10
5720.00
20
720.00
30
0.0
11
4320.00
21
720.00
31
0.0
0
LINE
8
FURN_DESK
62
3
10
4320.00
20
720.00
30
0.0
11
4320.00
21
120.00
31
0.0
0
TEXT
8
ANNOTATIONS
62
3
10
4820.00
20
420.00
30
0.0
40
90.00
1
NW-DES-014
(F02)
0
LINE
8
FURN_DESK
62
3
10
5720.00
20
120.00
30
0.0
11
7120.00
21
120.00
31
0.0
0
LINE
8
FURN_DESK
62
3
10
7120.00
20
120.00
30
0.0
11
7120.00
21
720.00
31
0.0
0
LINE
8
FURN_DESK
62
3
10
7120.00
20
720.00
30
0.0
11
5720.00
21
720.00
31
0.0
0
LINE
8
FURN_DESK
62
3
10
5720.00
20
720.00
30
0.0
11
5720.00
21
120.00
31
0.0
0
TEXT
8
ANNOTATIONS
62
3
10
6220.00
20
420.00
30
0.0
40
90.00
1
NW-DES-014
(F02)
0
LINE
8
FURN_DESK
62
3
10
820.00
20
720.00
30
0.0
11
2220.00
21
720.00
31
0.0
0
LINE
8
FURN_DESK
62
3
10
2220.00
20
720.00
30
0.0
11
2220.00
21
1320.00
31
0.0
0
LINE
8
FURN_DESK
62
3
10
2220.00
20
1320.00
30
0.0
11
820.00
21
1320.00
31
0.0
0
LINE
8
FURN_DESK
62
3
10
820.00
20
1320.00
30
0.0
11
820.00
21
720.00
31
0.0
0
TEXT
8
ANNOTATIONS
62
3
10
1320.00
20
1020.00
30
0.0
40
90.00
1
NW-DES-014
(F02)
0
LINE
8
FURN_DESK
62
3
10
2220.00
20
720.00
30
0.0
11
3620.00
21
720.00
31
0.0
0
LINE
8
FURN_DESK
62
3
10
3620.00
20
720.00
30
0.0
11
3620.00
21
1320.00
31
0.0
0
LINE
8
FURN_DESK
62
3
10
3620.00
20
1320.00
30
0.0
11
2220.00
21
1320.00
31
0.0
0
LINE
8
FURN_DESK
62
3
10
2220.00
20
1320.00
30
0.0
11
2220.00
21
720.00
31
0.0
0
TEXT
8
ANNOTATIONS
62
3
10
2720.00
20
1020.00
30
0.0
40
90.00
1
NW-DES-014
(F02)
0
LINE
8
FURN_DESK
62
3
10
3620.00
20
720.00
30
0.0
11
5020.00
21
720.00
31
0.0
0
LINE
8
FURN_DESK
62
3
10
5020.00
20
720.00
30
0.0
11
5020.00
21
1320.00
31
0.0
0
LINE
8
FURN_DESK
62
3
10
5020.00
20
1320.00
30
0.0
11
3620.00
21
1320.00
31
0.0
0
LINE
8
FURN_DESK
62
3
10
3620.00
20
1320.00
30
0.0
11
3620.00
21
720.00
31
0.0
0
TEXT
8
ANNOTATIONS
62
3
10
4120.00
20
1020.00
30
0.0
40
90.00
1
NW-DES-014
(F02)
0
LINE
8
FURN_DESK
62
3
10
5020.00
20
720.00
30
0.0
11
6420.00
21
720.00
31
0.0
0
LINE
8
FURN_DESK
62
3
10
6420.00
20
720.00
30
0.0
11
6420.00
21
1320.00
31
0.0
0
LINE
8
FURN_DESK
62
3
10
6420.00
20
1320.00
30
0.0
11
5020.00
21
1320.00
31
0.0
0
LINE
8
FURN_DESK
62
3
10
5020.00
20
1320.00
30
0.0
11
5020.00
21
720.00
31
0.0
0
TEXT
8
ANNOTATIONS
62
3
10
5520.00
20
1020.00
30
0.0
40
90.00
1
NW-DES-014
(F02)
0
LINE
8
FURN_DESK
62
3
10
6420.00
20
720.00
30
0.0
11
7820.00
21
720.00
31
0.0
0
LINE
8
FURN_DESK
62
3
10
7820.00
20
720.00
30
0.0
11
7820.00
21
1320.00
31
0.0
0
LINE
8
FURN_DESK
62
3
10
7820.00
20
1320.00
30
0.0
11
6420.00
21
1320.00
31
0.0
0
LINE
8
FURN_DESK
62
3
10
6420.00
20
1320.00
30
0.0
11
6420.00
21
720.00
31
0.0
0
TEXT
8
ANNOTATIONS
62
3
10
6920.00
20
1020.00
30
0.0
40
90.00
1
NW-DES-014
(F02)
0
LINE
8
FURN_DESK
62
3
10
1820.00
20
1320.00
30
0.0
11
3220.00
21
1320.00
31
0.0
0
LINE
8
FURN_DESK
62
3
10
3220.00
20
1320.00
30
0.0
11
3220.00
21
1920.00
31
0.0
0
LINE
8
FURN_DESK
62
3
10
3220.00
20
1920.00
30
0.0
11
1820.00
21
1920.00
31
0.0
0
LINE
8
FURN_DESK
62
3
10
1820.00
20
1920.00
30
0.0
11
1820.00
21
1320.00
31
0.0
0
TEXT
8
ANNOTATIONS
62
3
10
2320.00
20
1620.00
30
0.0
40
90.00
1
NW-DES-014
(F02)
0
LINE
8
FURN_DESK
62
3
10
3220.00
20
1320.00
30
0.0
11
4620.00
21
1320.00
31
0.0
0
LINE
8
FURN_DESK
62
3
10
4620.00
20
1320.00
30
0.0
11
4620.00
21
1920.00
31
0.0
0
LINE
8
FURN_DESK
62
3
10
4620.00
20
1920.00
30
0.0
11
3220.00
21
1920.00
31
0.0
0
LINE
8
FURN_DESK
62
3
10
3220.00
20
1920.00
30
0.0
11
3220.00
21
1320.00
31
0.0
0
TEXT
8
ANNOTATIONS
62
3
10
3720.00
20
1620.00
30
0.0
40
90.00
1
NW-DES-014
(F02)
0
LINE
8
FURN_CHAIR
62
2
10
7120.00
20
120.00
30
0.0
11
7680.00
21
120.00
31
0.0
0
LINE
8
FURN_CHAIR
62
2
10
7680.00
20
120.00
30
0.0
11
7680.00
21
680.00
31
0.0
0
LINE
8
FURN_CHAIR
62
2
10
7680.00
20
680.00
30
0.0
11
7120.00
21
680.00
31
0.0
0
LINE
8
FURN_CHAIR
62
2
10
7120.00
20
680.00
30
0.0
11
7120.00
21
120.00
31
0.0
0
TEXT
8
ANNOTATIONS
62
2
10
7200.00
20
400.00
30
0.0
40
90.00
1
NW-CHA-018
(F14)
0
LINE
8
FURN_CHAIR
62
2
10
7720.00
20
120.00
30
0.0
11
8280.00
21
120.00
31
0.0
0
LINE
8
FURN_CHAIR
62
2
10
8280.00
20
120.00
30
0.0
11
8280.00
21
680.00
31
0.0
0
LINE
8
FURN_CHAIR
62
2
10
8280.00
20
680.00
30
0.0
11
7720.00
21
680.00
31
0.0
0
LINE
8
FURN_CHAIR
62
2
10
7720.00
20
680.00
30
0.0
11
7720.00
21
120.00
31
0.0
0
TEXT
8
ANNOTATIONS
62
2
10
7800.00
20
400.00
30
0.0
40
90.00
1
NW-CHA-018
(F14)
0
LINE
8
FURN_CHAIR
62
2
10
4620.00
20
1320.00
30
0.0
11
5180.00
21
1320.00
31
0.0
0
LINE
8
FURN_CHAIR
62
2
10
5180.00
20
1320.00
30
0.0
11
5180.00
21
1880.00
31
0.0
0
LINE
8
FURN_CHAIR
62
2
10
5180.00
20
1880.00
30
0.0
11
4620.00
21
1880.00
31
0.0
0
LINE
8
FURN_CHAIR
62
2
10
4620.00
20
1880.00
30
0.0
11
4620.00
21
1320.00
31
0.0
0
TEXT
8
ANNOTATIONS
62
2
10
4700.00
20
1600.00
30
0.0
40
90.00
1
NW-CHA-018
(F14)
0
LINE
8
FURN_CHAIR
62
2
10
5220.00
20
1320.00
30
0.0
11
5780.00
21
1320.00
31
0.0
0
LINE
8
FURN_CHAIR
62
2
10
5780.00
20
1320.00
30
0.0
11
5780.00
21
1880.00
31
0.0
0
LINE
8
FURN_CHAIR
62
2
10
5780.00
20
1880.00
30
0.0
11
5220.00
21
1880.00
31
0.0
0
LINE
8
FURN_CHAIR
62
2
10
5220.00
20
1880.00
30
0.0
11
5220.00
21
1320.00
31
0.0
0
TEXT
8
ANNOTATIONS
62
2
10
5300.00
20
1600.00
30
0.0
40
90.00
1
NW-CHA-018
(F14)
0
LINE
8
FURN_CHAIR
62
2
10
5820.00
20
1320.00
30
0.0
11
6380.00
21
1320.00
31
0.0
0
LINE
8
FURN_CHAIR
62
2
10
6380.00
20
1320.00
30
0.0
11
6380.00
21
1880.00
31
0.0
0
LINE
8
FURN_CHAIR
62
2
10
6380.00
20
1880.00
30
0.0
11
5820.00
21
1880.00
31
0.0
0
LINE
8
FURN_CHAIR
62
2
10
5820.00
20
1880.00
30
0.0
11
5820.00
21
1320.00
31
0.0
0
TEXT
8
ANNOTATIONS
62
2
10
5900.00
20
1600.00
30
0.0
40
90.00
1
NW-CHA-018
(F14)
0
LINE
8
FURN_CHAIR
62
2
10
6420.00
20
1320.00
30
0.0
11
6980.00
21
1320.00
31
0.0
0
LINE
8
FURN_CHAIR
62
2
10
6980.00
20
1320.00
30
0.0
11
6980.00
21
1880.00
31
0.0
0
LINE
8
FURN_CHAIR
62
2
10
6980.00
20
1880.00
30
0.0
11
6420.00
21
1880.00
31
0.0
0
LINE
8
FURN_CHAIR
62
2
10
6420.00
20
1880.00
30
0.0
11
6420.00
21
1320.00
31
0.0
0
TEXT
8
ANNOTATIONS
62
2
10
6500.00
20
1600.00
30
0.0
40
90.00
1
NW-CHA-018
(F14)
0
LINE
8
FURN_CHAIR
62
2
10
7020.00
20
1320.00
30
0.0
11
7580.00
21
1320.00
31
0.0
0
LINE
8
FURN_CHAIR
62
2
10
7580.00
20
1320.00
30
0.0
11
7580.00
21
1880.00
31
0.0
0
LINE
8
FURN_CHAIR
62
2
10
7580.00
20
1880.00
30
0.0
11
7020.00
21
1880.00
31
0.0
0
LINE
8
FURN_CHAIR
62
2
10
7020.00
20
1880.00
30
0.0
11
7020.00
21
1320.00
31
0.0
0
TEXT
8
ANNOTATIONS
62
2
10
7100.00
20
1600.00
30
0.0
40
90.00
1
NW-CHA-018
(F14)
0
LINE
8
FURN_CHAIR
62
2
10
7620.00
20
1320.00
30
0.0
11
8180.00
21
1320.00
31
0.0
0
LINE
8
FURN_CHAIR
62
2
10
8180.00
20
1320.00
30
0.0
11
8180.00
21
1880.00
31
0.0
0
LINE
8
FURN_CHAIR
62
2
10
8180.00
20
1880.00
30
0.0
11
7620.00
21
1880.00
31
0.0
0
LINE
8
FURN_CHAIR
62
2
10
7620.00
20
1880.00
30
0.0
11
7620.00
21
1320.00
31
0.0
0
TEXT
8
ANNOTATIONS
62
2
10
7700.00
20
1600.00
30
0.0
40
90.00
1
NW-CHA-018
(F14)
0
LINE
8
FURN_CHAIR
62
2
10
2770.00
20
1920.00
30
0.0
11
3330.00
21
1920.00
31
0.0
0
LINE
8
FURN_CHAIR
62
2
10
3330.00
20
1920.00
30
0.0
11
3330.00
21
2480.00
31
0.0
0
LINE
8
FURN_CHAIR
62
2
10
3330.00
20
2480.00
30
0.0
11
2770.00
21
2480.00
31
0.0
0
LINE
8
FURN_CHAIR
62
2
10
2770.00
20
2480.00
30
0.0
11
2770.00
21
1920.00
31
0.0
0
TEXT
8
ANNOTATIONS
62
2
10
2850.00
20
2200.00
30
0.0
40
90.00
1
NW-CHA-018
(F14)
0
LINE
8
FURN_CHAIR
62
2
10
3370.00
20
1920.00
30
0.0
11
3930.00
21
1920.00
31
0.0
0
LINE
8
FURN_CHAIR
62
2
10
3930.00
20
1920.00
30
0.0
11
3930.00
21
2480.00
31
0.0
0
LINE
8
FURN_CHAIR
62
2
10
3930.00
20
2480.00
30
0.0
11
3370.00
21
2480.00
31
0.0
0
LINE
8
FURN_CHAIR
62
2
10
3370.00
20
2480.00
30
0.0
11
3370.00
21
1920.00
31
0.0
0
TEXT
8
ANNOTATIONS
62
2
10
3450.00
20
2200.00
30
0.0
40
90.00
1
NW-CHA-018
(F14)
0
LINE
8
FURN_CHAIR
62
2
10
3970.00
20
1920.00
30
0.0
11
4530.00
21
1920.00
31
0.0
0
LINE
8
FURN_CHAIR
62
2
10
4530.00
20
1920.00
30
0.0
11
4530.00
21
2480.00
31
0.0
0
LINE
8
FURN_CHAIR
62
2
10
4530.00
20
2480.00
30
0.0
11
3970.00
21
2480.00
31
0.0
0
LINE
8
FURN_CHAIR
62
2
10
3970.00
20
2480.00
30
0.0
11
3970.00
21
1920.00
31
0.0
0
TEXT
8
ANNOTATIONS
62
2
10
4050.00
20
2200.00
30
0.0
40
90.00
1
NW-CHA-018
(F14)
0
LINE
8
FURN_CHAIR
62
2
10
4570.00
20
1920.00
30
0.0
11
5130.00
21
1920.00
31
0.0
0
LINE
8
FURN_CHAIR
62
2
10
5130.00
20
1920.00
30
0.0
11
5130.00
21
2480.00
31
0.0
0
LINE
8
FURN_CHAIR
62
2
10
5130.00
20
2480.00
30
0.0
11
4570.00
21
2480.00
31
0.0
0
LINE
8
FURN_CHAIR
62
2
10
4570.00
20
2480.00
30
0.0
11
4570.00
21
1920.00
31
0.0
0
TEXT
8
ANNOTATIONS
62
2
10
4650.00
20
2200.00
30
0.0
40
90.00
1
NW-CHA-018
(F14)
0
LINE
8
FURN_CHAIR
62
2
10
5170.00
20
1920.00
30
0.0
11
5730.00
21
1920.00
31
0.0
0
LINE
8
FURN_CHAIR
62
2
10
5730.00
20
1920.00
30
0.0
11
5730.00
21
2480.00
31
0.0
0
LINE
8
FURN_CHAIR
62
2
10
5730.00
20
2480.00
30
0.0
11
5170.00
21
2480.00
31
0.0
0
LINE
8
FURN_CHAIR
62
2
10
5170.00
20
2480.00
30
0.0
11
5170.00
21
1920.00
31
0.0
0
TEXT
8
ANNOTATIONS
62
2
10
5250.00
20
2200.00
30
0.0
40
90.00
1
NW-CHA-018
(F14)
0
LINE
8
FURN_CHAIR
62
2
10
5770.00
20
1920.00
30
0.0
11
6330.00
21
1920.00
31
0.0
0
LINE
8
FURN_CHAIR
62
2
10
6330.00
20
1920.00
30
0.0
11
6330.00
21
2480.00
31
0.0
0
LINE
8
FURN_CHAIR
62
2
10
6330.00
20
2480.00
30
0.0
11
5770.00
21
2480.00
31
0.0
0
LINE
8
FURN_CHAIR
62
2
10
5770.00
20
2480.00
30
0.0
11
5770.00
21
1920.00
31
0.0
0
TEXT
8
ANNOTATIONS
62
2
10
5850.00
20
2200.00
30
0.0
40
90.00
1
NW-CHA-018
(F14)
0
LINE
8
FURN_CHAIR
62
2
10
6370.00
20
1920.00
30
0.0
11
6930.00
21
1920.00
31
0.0
0
LINE
8
FURN_CHAIR
62
2
10
6930.00
20
1920.00
30
0.0
11
6930.00
21
2480.00
31
0.0
0
LINE
8
FURN_CHAIR
62
2
10
6930.00
20
2480.00
30
0.0
11
6370.00
21
2480.00
31
0.0
0
LINE
8
FURN_CHAIR
62
2
10
6370.00
20
2480.00
30
0.0
11
6370.00
21
1920.00
31
0.0
0
TEXT
8
ANNOTATIONS
62
2
10
6450.00
20
2200.00
30
0.0
40
90.00
1
NW-CHA-018
(F14)
0
LINE
8
FURN_CHAIR
62
2
10
6970.00
20
1920.00
30
0.0
11
7530.00
21
1920.00
31
0.0
0
LINE
8
FURN_CHAIR
62
2
10
7530.00
20
1920.00
30
0.0
11
7530.00
21
2480.00
31
0.0
0
LINE
8
FURN_CHAIR
62
2
10
7530.00
20
2480.00
30
0.0
11
6970.00
21
2480.00
31
0.0
0
LINE
8
FURN_CHAIR
62
2
10
6970.00
20
2480.00
30
0.0
11
6970.00
21
1920.00
31
0.0
0
TEXT
8
ANNOTATIONS
62
2
10
7050.00
20
2200.00
30
0.0
40
90.00
1
NW-CHA-018
(F14)
0
LINE
8
FURN_CHAIR
62
2
10
7570.00
20
1920.00
30
0.0
11
8130.00
21
1920.00
31
0.0
0
LINE
8
FURN_CHAIR
62
2
10
8130.00
20
1920.00
30
0.0
11
8130.00
21
2480.00
31
0.0
0
LINE
8
FURN_CHAIR
62
2
10
8130.00
20
2480.00
30
0.0
11
7570.00
21
2480.00
31
0.0
0
LINE
8
FURN_CHAIR
62
2
10
7570.00
20
2480.00
30
0.0
11
7570.00
21
1920.00
31
0.0
0
TEXT
8
ANNOTATIONS
62
2
10
7650.00
20
2200.00
30
0.0
40
90.00
1
NW-CHA-018
(F14)
0
LINE
8
FURN_CHAIR
62
2
10
3770.00
20
2520.00
30
0.0
11
4330.00
21
2520.00
31
0.0
0
LINE
8
FURN_CHAIR
62
2
10
4330.00
20
2520.00
30
0.0
11
4330.00
21
3080.00
31
0.0
0
LINE
8
FURN_CHAIR
62
2
10
4330.00
20
3080.00
30
0.0
11
3770.00
21
3080.00
31
0.0
0
LINE
8
FURN_CHAIR
62
2
10
3770.00
20
3080.00
30
0.0
11
3770.00
21
2520.00
31
0.0
0
TEXT
8
ANNOTATIONS
62
2
10
3850.00
20
2800.00
30
0.0
40
90.00
1
NW-CHA-018
(F14)
0
LINE
8
FURN_COLLAB
62
4
10
4370.00
20
2520.00
30
0.0
11
6770.00
21
2520.00
31
0.0
0
LINE
8
FURN_COLLAB
62
4
10
6770.00
20
2520.00
30
0.0
11
6770.00
21
3220.00
31
0.0
0
LINE
8
FURN_COLLAB
62
4
10
6770.00
20
3220.00
30
0.0
11
4370.00
21
3220.00
31
0.0
0
LINE
8
FURN_COLLAB
62
4
10
4370.00
20
3220.00
30
0.0
11
4370.00
21
2520.00
31
0.0
0
TEXT
8
ANNOTATIONS
62
4
10
5370.00
20
2870.00
30
0.0
40
90.00
1
NW-COL-004
(F09)
0
LINE
8
FURN_COLLAB
62
4
10
5170.00
20
3220.00
30
0.0
11
7570.00
21
3220.00
31
0.0
0
LINE
8
FURN_COLLAB
62
4
10
7570.00
20
3220.00
30
0.0
11
7570.00
21
3920.00
31
0.0
0
LINE
8
FURN_COLLAB
62
4
10
7570.00
20
3920.00
30
0.0
11
5170.00
21
3920.00
31
0.0
0
LINE
8
FURN_COLLAB
62
4
10
5170.00
20
3920.00
30
0.0
11
5170.00
21
3220.00
31
0.0
0
TEXT
8
ANNOTATIONS
62
4
10
6170.00
20
3570.00
30
0.0
40
90.00
1
NW-COL-004
(F09)
0
LINE
8
FURN_STORAGE
62
6
10
6770.00
20
2520.00
30
0.0
11
7770.00
21
2520.00
31
0.0
0
LINE
8
FURN_STORAGE
62
6
10
7770.00
20
2520.00
30
0.0
11
7770.00
21
2970.00
31
0.0
0
LINE
8
FURN_STORAGE
62
6
10
7770.00
20
2970.00
30
0.0
11
6770.00
21
2970.00
31
0.0
0
LINE
8
FURN_STORAGE
62
6
10
6770.00
20
2970.00
30
0.0
11
6770.00
21
2520.00
31
0.0
0
TEXT
8
ANNOTATIONS
62
6
10
7070.00
20
2745.00
30
0.0
40
90.00
1
NW-STO-018
(F16)
0
LINE
8
FURN_STORAGE
62
6
10
220.00
20
2870.00
30
0.0
11
1220.00
21
2870.00
31
0.0
0
LINE
8
FURN_STORAGE
62
6
10
1220.00
20
2870.00
30
0.0
11
1220.00
21
3320.00
31
0.0
0
LINE
8
FURN_STORAGE
62
6
10
1220.00
20
3320.00
30
0.0
11
220.00
21
3320.00
31
0.0
0
LINE
8
FURN_STORAGE
62
6
10
220.00
20
3320.00
30
0.0
11
220.00
21
2870.00
31
0.0
0
TEXT
8
ANNOTATIONS
62
6
10
520.00
20
3095.00
30
0.0
40
90.00
1
NW-STO-018
(F16)
0
LINE
8
FURN_STORAGE
62
6
10
120.00
20
3320.00
30
0.0
11
1120.00
21
3320.00
31
0.0
0
LINE
8
FURN_STORAGE
62
6
10
1120.00
20
3320.00
30
0.0
11
1120.00
21
3770.00
31
0.0
0
LINE
8
FURN_STORAGE
62
6
10
1120.00
20
3770.00
30
0.0
11
120.00
21
3770.00
31
0.0
0
LINE
8
FURN_STORAGE
62
6
10
120.00
20
3770.00
30
0.0
11
120.00
21
3320.00
31
0.0
0
TEXT
8
ANNOTATIONS
62
6
10
420.00
20
3545.00
30
0.0
40
90.00
1
NW-STO-018
(F16)
0
LINE
8
FURN_STORAGE
62
6
10
1120.00
20
3420.00
30
0.0
11
2120.00
21
3420.00
31
0.0
0
LINE
8
FURN_STORAGE
62
6
10
2120.00
20
3420.00
30
0.0
11
2120.00
21
3870.00
31
0.0
0
LINE
8
FURN_STORAGE
62
6
10
2120.00
20
3870.00
30
0.0
11
1120.00
21
3870.00
31
0.0
0
LINE
8
FURN_STORAGE
62
6
10
1120.00
20
3870.00
30
0.0
11
1120.00
21
3420.00
31
0.0
0
TEXT
8
ANNOTATIONS
62
6
10
1420.00
20
3645.00
30
0.0
40
90.00
1
NW-STO-018
(F16)
0
LINE
8
FURN_ACCESSORY
62
8
10
6770.00
20
2970.00
30
0.0
11
7670.00
21
2970.00
31
0.0
0
LINE
8
FURN_ACCESSORY
62
8
10
7670.00
20
2970.00
30
0.0
11
7670.00
21
3220.00
31
0.0
0
LINE
8
FURN_ACCESSORY
62
8
10
7670.00
20
3220.00
30
0.0
11
6770.00
21
3220.00
31
0.0
0
LINE
8
FURN_ACCESSORY
62
8
10
6770.00
20
3220.00
30
0.0
11
6770.00
21
2970.00
31
0.0
0
TEXT
8
ANNOTATIONS
62
8
10
7020.00
20
3095.00
30
0.0
40
90.00
1
NW-ACC-020
(F10)
0
LINE
8
FURN_ACCESSORY
62
8
10
120.00
20
3770.00
30
0.0
11
1020.00
21
3770.00
31
0.0
0
LINE
8
FURN_ACCESSORY
62
8
10
1020.00
20
3770.00
30
0.0
11
1020.00
21
4020.00
31
0.0
0
LINE
8
FURN_ACCESSORY
62
8
10
1020.00
20
4020.00
30
0.0
11
120.00
21
4020.00
31
0.0
0
LINE
8
FURN_ACCESSORY
62
8
10
120.00
20
4020.00
30
0.0
11
120.00
21
3770.00
31
0.0
0
TEXT
8
ANNOTATIONS
62
8
10
370.00
20
3895.00
30
0.0
40
90.00
1
NW-ACC-020
(F10)
0
LINE
8
FURN_ACCESSORY
62
8
10
1020.00
20
3870.00
30
0.0
11
1920.00
21
3870.00
31
0.0
0
LINE
8
FURN_ACCESSORY
62
8
10
1920.00
20
3870.00
30
0.0
11
1920.00
21
4120.00
31
0.0
0
LINE
8
FURN_ACCESSORY
62
8
10
1920.00
20
4120.00
30
0.0
11
1020.00
21
4120.00
31
0.0
0
LINE
8
FURN_ACCESSORY
62
8
10
1020.00
20
4120.00
30
0.0
11
1020.00
21
3870.00
31
0.0
0
TEXT
8
ANNOTATIONS
62
8
10
1270.00
20
3995.00
30
0.0
40
90.00
1
NW-ACC-020
(F10)
0
LINE
8
FURN_ACCESSORY
62
8
10
1920.00
20
3870.00
30
0.0
11
2820.00
21
3870.00
31
0.0
0
LINE
8
FURN_ACCESSORY
62
8
10
2820.00
20
3870.00
30
0.0
11
2820.00
21
4120.00
31
0.0
0
LINE
8
FURN_ACCESSORY
62
8
10
2820.00
20
4120.00
30
0.0
11
1920.00
21
4120.00
31
0.0
0
LINE
8
FURN_ACCESSORY
62
8
10
1920.00
20
4120.00
30
0.0
11
1920.00
21
3870.00
31
0.0
0
TEXT
8
ANNOTATIONS
62
8
10
2170.00
20
3995.00
30
0.0
40
90.00
1
NW-ACC-020
(F10)
0
LINE
8
FURN_ACCESSORY
62
8
10
5570.00
20
3920.00
30
0.0
11
6470.00
21
3920.00
31
0.0
0
LINE
8
FURN_ACCESSORY
62
8
10
6470.00
20
3920.00
30
0.0
11
6470.00
21
4170.00
31
0.0
0
LINE
8
FURN_ACCESSORY
62
8
10
6470.00
20
4170.00
30
0.0
11
5570.00
21
4170.00
31
0.0
0
LINE
8
FURN_ACCESSORY
62
8
10
5570.00
20
4170.00
30
0.0
11
5570.00
21
3920.00
31
0.0
0
TEXT
8
ANNOTATIONS
62
8
10
5820.00
20
4045.00
30
0.0
40
90.00
1
NW-ACC-020
(F10)
0
LINE
8
FURN_ACCESSORY
62
8
10
6470.00
20
3920.00
30
0.0
11
7370.00
21
3920.00
31
0.0
0
LINE
8
FURN_ACCESSORY
62
8
10
7370.00
20
3920.00
30
0.0
11
7370.00
21
4170.00
31
0.0
0
LINE
8
FURN_ACCESSORY
62
8
10
7370.00
20
4170.00
30
0.0
11
6470.00
21
4170.00
31
0.0
0
LINE
8
FURN_ACCESSORY
62
8
10
6470.00
20
4170.00
30
0.0
11
6470.00
21
3920.00
31
0.0
0
TEXT
8
ANNOTATIONS
62
8
10
6720.00
20
4045.00
30
0.0
40
90.00
1
NW-ACC-020
(F10)
0
ENDSEC
0
EOF
