0
SECTION
2
HEADER
0
ENDSEC
0
SECTION
2
TABLES
0
ENDSEC
0
SECTION
2
BLOCKS
0
ENDSEC
0
SECTION
2
ENTITIES
0
LINE
8
0_WALLS
62
7
10
0.00
20
0.00
30
0.0
11
7200.00
21
0.00
31
0.0
0
LINE
8
0_WALLS
62
7
10
7200.00
20
0.00
30
0.0
11
7200.00
21
5400.00
31
0.0
0
LINE
8
0_WALLS
62
7
10
7200.00
20
5400.00
30
0.0
11
0.00
21
5400.00
31
0.0
0
LINE
8
0_WALLS
62
7
10
0.00
20
5400.00
30
0.0
11
0.00
21
0.00
31
0.0
0
TEXT
8
ANNOTATIONS
62
7
10
200.00
20
200.00
30
0.0
40
200.00
1
ROOM: Harbour Design Studio (ROOM-01)
0
LINE
8
0_DOORS
62
1
10
500.00
20
0.00
30
0.0
11
1500.00
21
0.00
31
0.0
0
TEXT
8
0_DOORS
62
1
10
1050.00
20
50.00
30
0.0
40
100.00
1
DOOR D1 (inward_left)
0
TEXT
8
0_WINDOWS
62
5
10
100.00
20
100.00
30
0.0
40
100.00
1
WINDOW (3600.0mm)
0
LINE
8
0_EGRESS
62
4
10
1000.00
20
0.00
30
0.0
11
6600.00
21
4800.00
31
0.0
0
TEXT
8
0_EGRESS
62
4
10
3800.00
20
2400.00
30
0.0
40
120.00
1
PRIMARY EGRESS PATH (1100mm CLEAR)
0
LINE
8
FURN_DESK
62
3
10
2720.00
20
120.00
30
0.0
11
4320.00
21
120.00
31
0.0
0
LINE
8
FURN_DESK
62
3
10
4320.00
20
120.00
30
0.0
11
4320.00
21
720.00
31
0.0
0
LINE
8
FURN_DESK
62
3
10
4320.00
20
720.00
30
0.0
11
2720.00
21
720.00
31
0.0
0
LINE
8
FURN_DESK
62
3
10
2720.00
20
720.00
30
0.0
11
2720.00
21
120.00
31
0.0
0
TEXT
8
ANNOTATIONS
62
3
10
3320.00
20
420.00
30
0.0
40
90.00
1
NW-DES-003
(F03)
0
LINE
8
FURN_DESK
62
3
10
2660.00
20
3460.00
30
0.0
11
4260.00
21
3460.00
31
0.0
0
LINE
8
FURN_DESK
62
3
10
4260.00
20
3460.00
30
0.0
11
4260.00
21
4060.00
31
0.0
0
LINE
8
FURN_DESK
62
3
10
4260.00
20
4060.00
30
0.0
11
2660.00
21
4060.00
31
0.0
0
LINE
8
FURN_DESK
62
3
10
2660.00
20
4060.00
30
0.0
11
2660.00
21
3460.00
31
0.0
0
TEXT
8
ANNOTATIONS
62
3
10
3260.00
20
3760.00
30
0.0
40
90.00
1
NW-DES-003
(F03)
0
LINE
8
FURN_DESK
62
3
10
3420.00
20
720.00
30
0.0
11
5020.00
21
720.00
31
0.0
0
LINE
8
FURN_DESK
62
3
10
5020.00
20
720.00
30
0.0
11
5020.00
21
1320.00
31
0.0
0
LINE
8
FURN_DESK
62
3
10
5020.00
20
1320.00
30
0.0
11
3420.00
21
1320.00
31
0.0
0
LINE
8
FURN_DESK
62
3
10
3420.00
20
1320.00
30
0.0
11
3420.00
21
720.00
31
0.0
0
TEXT
8
ANNOTATIONS
62
3
10
4020.00
20
1020.00
30
0.0
40
90.00
1
NW-DES-003
(F03)
0
LINE
8
FURN_DESK
62
3
10
5020.00
20
720.00
30
0.0
11
6620.00
21
720.00
31
0.0
0
LINE
8
FURN_DESK
62
3
10
6620.00
20
720.00
30
0.0
11
6620.00
21
1320.00
31
0.0
0
LINE
8
FURN_DESK
62
3
10
6620.00
20
1320.00
30
0.0
11
5020.00
21
1320.00
31
0.0
0
LINE
8
FURN_DESK
62
3
10
5020.00
20
1320.00
30
0.0
11
5020.00
21
720.00
31
0.0
0
TEXT
8
ANNOTATIONS
62
3
10
5620.00
20
1020.00
30
0.0
40
90.00
1
NW-DES-003
(F03)
0
LINE
8
FURN_DESK
62
3
10
4120.00
20
1320.00
30
0.0
11
5720.00
21
1320.00
31
0.0
0
LINE
8
FURN_DESK
62
3
10
5720.00
20
1320.00
30
0.0
11
5720.00
21
1920.00
31
0.0
0
LINE
8
FURN_DESK
62
3
10
5720.00
20
1920.00
30
0.0
11
4120.00
21
1920.00
31
0.0
0
LINE
8
FURN_DESK
62
3
10
4120.00
20
1920.00
30
0.0
11
4120.00
21
1320.00
31
0.0
0
TEXT
8
ANNOTATIONS
62
3
10
4720.00
20
1620.00
30
0.0
40
90.00
1
NW-DES-003
(F03)
0
LINE
8
FURN_DESK
62
3
10
120.00
20
1420.00
30
0.0
11
1720.00
21
1420.00
31
0.0
0
LINE
8
FURN_DESK
62
3
10
1720.00
20
1420.00
30
0.0
11
1720.00
21
2020.00
31
0.0
0
LINE
8
FURN_DESK
62
3
10
1720.00
20
2020.00
30
0.0
11
120.00
21
2020.00
31
0.0
0
LINE
8
FURN_DESK
62
3
10
120.00
20
2020.00
30
0.0
11
120.00
21
1420.00
31
0.0
0
TEXT
8
ANNOTATIONS
62
3
10
720.00
20
1720.00
30
0.0
40
90.00
1
NW-DES-003
(F03)
0
LINE
8
FURN_COLLAB
62
4
10
5720.00
20
1320.00
30
0.0
11
6920.00
21
1320.00
31
0.0
0
LINE
8
FURN_COLLAB
62
4
10
6920.00
20
1320.00
30
0.0
11
6920.00
21
2020.00
31
0.0
0
LINE
8
FURN_COLLAB
62
4
10
6920.00
20
2020.00
30
0.0
11
5720.00
21
2020.00
31
0.0
0
LINE
8
FURN_COLLAB
62
4
10
5720.00
20
2020.00
30
0.0
11
5720.00
21
1320.00
31
0.0
0
TEXT
8
ANNOTATIONS
62
4
10
6120.00
20
1670.00
30
0.0
40
90.00
1
NW-COL-001
(F03)
0
LINE
8
FURN_CHAIR
62
2
10
5920.00
20
120.00
30
0.0
11
6560.00
21
120.00
31
0.0
0
LINE
8
FURN_CHAIR
62
2
10
6560.00
20
120.00
30
0.0
11
6560.00
21
640.00
31
0.0
0
LINE
8
FURN_CHAIR
62
2
10
6560.00
20
640.00
30
0.0
11
5920.00
21
640.00
31
0.0
0
LINE
8
FURN_CHAIR
62
2
10
5920.00
20
640.00
30
0.0
11
5920.00
21
120.00
31
0.0
0
TEXT
8
ANNOTATIONS
62
2
10
6040.00
20
380.00
30
0.0
40
90.00
1
NW-CHA-004
(F15)
0
LINE
8
FURN_CHAIR
62
2
10
1720.00
20
1920.00
30
0.0
11
2360.00
21
1920.00
31
0.0
0
LINE
8
FURN_CHAIR
62
2
10
2360.00
20
1920.00
30
0.0
11
2360.00
21
2440.00
31
0.0
0
LINE
8
FURN_CHAIR
62
2
10
2360.00
20
2440.00
30
0.0
11
1720.00
21
2440.00
31
0.0
0
LINE
8
FURN_CHAIR
62
2
10
1720.00
20
2440.00
30
0.0
11
1720.00
21
1920.00
31
0.0
0
TEXT
8
ANNOTATIONS
62
2
10
1840.00
20
2180.00
30
0.0
40
90.00
1
NW-CHA-004
(F15)
0
LINE
8
FURN_CHAIR
62
2
10
4720.00
20
1920.00
30
0.0
11
5360.00
21
1920.00
31
0.0
0
LINE
8
FURN_CHAIR
62
2
10
5360.00
20
1920.00
30
0.0
11
5360.00
21
2440.00
31
0.0
0
LINE
8
FURN_CHAIR
62
2
10
5360.00
20
2440.00
30
0.0
11
4720.00
21
2440.00
31
0.0
0
LINE
8
FURN_CHAIR
62
2
10
4720.00
20
2440.00
30
0.0
11
4720.00
21
1920.00
31
0.0
0
TEXT
8
ANNOTATIONS
62
2
10
4840.00
20
2180.00
30
0.0
40
90.00
1
NW-CHA-004
(F15)
0
LINE
8
FURN_CHAIR
62
2
10
120.00
20
2020.00
30
0.0
11
760.00
21
2020.00
31
0.0
0
LINE
8
FURN_CHAIR
62
2
10
760.00
20
2020.00
30
0.0
11
760.00
21
2540.00
31
0.0
0
LINE
8
FURN_CHAIR
62
2
10
760.00
20
2540.00
30
0.0
11
120.00
21
2540.00
31
0.0
0
LINE
8
FURN_CHAIR
62
2
10
120.00
20
2540.00
30
0.0
11
120.00
21
2020.00
31
0.0
0
TEXT
8
ANNOTATIONS
62
2
10
240.00
20
2280.00
30
0.0
40
90.00
1
NW-CHA-004
(F15)
0
LINE
8
FURN_CHAIR
62
2
10
820.00
20
2020.00
30
0.0
11
1460.00
21
2020.00
31
0.0
0
LINE
8
FURN_CHAIR
62
2
10
1460.00
20
2020.00
30
0.0
11
1460.00
21
2540.00
31
0.0
0
LINE
8
FURN_CHAIR
62
2
10
1460.00
20
2540.00
30
0.0
11
820.00
21
2540.00
31
0.0
0
LINE
8
FURN_CHAIR
62
2
10
820.00
20
2540.00
30
0.0
11
820.00
21
2020.00
31
0.0
0
TEXT
8
ANNOTATIONS
62
2
10
940.00
20
2280.00
30
0.0
40
90.00
1
NW-CHA-004
(F15)
0
LINE
8
FURN_CHAIR
62
2
10
5420.00
20
2020.00
30
0.0
11
6060.00
21
2020.00
31
0.0
0
LINE
8
FURN_CHAIR
62
2
10
6060.00
20
2020.00
30
0.0
11
6060.00
21
2540.00
31
0.0
0
LINE
8
FURN_CHAIR
62
2
10
6060.00
20
2540.00
30
0.0
11
5420.00
21
2540.00
31
0.0
0
LINE
8
FURN_CHAIR
62
2
10
5420.00
20
2540.00
30
0.0
11
5420.00
21
2020.00
31
0.0
0
TEXT
8
ANNOTATIONS
62
2
10
5540.00
20
2280.00
30
0.0
40
90.00
1
NW-CHA-004
(F15)
0
LINE
8
FURN_CHAIR
62
2
10
6120.00
20
2020.00
30
0.0
11
6760.00
21
2020.00
31
0.0
0
LINE
8
FURN_CHAIR
62
2
10
6760.00
20
2020.00
30
0.0
11
6760.00
21
2540.00
31
0.0
0
LINE
8
FURN_CHAIR
62
2
10
6760.00
20
2540.00
30
0.0
11
6120.00
21
2540.00
31
0.0
0
LINE
8
FURN_CHAIR
62
2
10
6120.00
20
2540.00
30
0.0
11
6120.00
21
2020.00
31
0.0
0
TEXT
8
ANNOTATIONS
62
2
10
6240.00
20
2280.00
30
0.0
40
90.00
1
NW-CHA-004
(F15)
0
LINE
8
FURN_CHAIR
62
2
10
1520.00
20
2520.00
30
0.0
11
2160.00
21
2520.00
31
0.0
0
LINE
8
FURN_CHAIR
62
2
10
2160.00
20
2520.00
30
0.0
11
2160.00
21
3040.00
31
0.0
0
LINE
8
FURN_CHAIR
62
2
10
2160.00
20
3040.00
30
0.0
11
1520.00
21
3040.00
31
0.0
0
LINE
8
FURN_CHAIR
62
2
10
1520.00
20
3040.00
30
0.0
11
1520.00
21
2520.00
31
0.0
0
TEXT
8
ANNOTATIONS
62
2
10
1640.00
20
2780.00
30
0.0
40
90.00
1
NW-CHA-004
(F15)
0
LINE
8
FURN_CHAIR
62
2
10
2220.00
20
2520.00
30
0.0
11
2860.00
21
2520.00
31
0.0
0
LINE
8
FURN_CHAIR
62
2
10
2860.00
20
2520.00
30
0.0
11
2860.00
21
3040.00
31
0.0
0
LINE
8
FURN_CHAIR
62
2
10
2860.00
20
3040.00
30
0.0
11
2220.00
21
3040.00
31
0.0
0
LINE
8
FURN_CHAIR
62
2
10
2220.00
20
3040.00
30
0.0
11
2220.00
21
2520.00
31
0.0
0
TEXT
8
ANNOTATIONS
62
2
10
2340.00
20
2780.00
30
0.0
40
90.00
1
NW-CHA-004
(F15)
0
LINE
8
FURN_CHAIR
62
2
10
120.00
20
2620.00
30
0.0
11
760.00
21
2620.00
31
0.0
0
LINE
8
FURN_CHAIR
62
2
10
760.00
20
2620.00
30
0.0
11
760.00
21
3140.00
31
0.0
0
LINE
8
FURN_CHAIR
62
2
10
760.00
20
3140.00
30
0.0
11
120.00
21
3140.00
31
0.0
0
LINE
8
FURN_CHAIR
62
2
10
120.00
20
3140.00
30
0.0
11
120.00
21
2620.00
31
0.0
0
TEXT
8
ANNOTATIONS
62
2
10
240.00
20
2880.00
30
0.0
40
90.00
1
NW-CHA-004
(F15)
0
LINE
8
FURN_CHAIR
62
2
10
820.00
20
2620.00
30
0.0
11
1460.00
21
2620.00
31
0.0
0
LINE
8
FURN_CHAIR
62
2
10
1460.00
20
2620.00
30
0.0
11
1460.00
21
3140.00
31
0.0
0
LINE
8
FURN_CHAIR
62
2
10
1460.00
20
3140.00
30
0.0
11
820.00
21
3140.00
31
0.0
0
LINE
8
FURN_CHAIR
62
2
10
820.00
20
3140.00
30
0.0
11
820.00
21
2620.00
31
0.0
0
TEXT
8
ANNOTATIONS
62
2
10
940.00
20
2880.00
30
0.0
40
90.00
1
NW-CHA-004
(F15)
0
LINE
8
FURN_CHAIR
62
2
10
5520.00
20
2620.00
30
0.0
11
6160.00
21
2620.00
31
0.0
0
LINE
8
FURN_CHAIR
62
2
10
6160.00
20
2620.00
30
0.0
11
6160.00
21
3140.00
31
0.0
0
LINE
8
FURN_CHAIR
62
2
10
6160.00
20
3140.00
30
0.0
11
5520.00
21
3140.00
31
0.0
0
LINE
8
FURN_CHAIR
62
2
10
5520.00
20
3140.00
30
0.0
11
5520.00
21
2620.00
31
0.0
0
TEXT
8
ANNOTATIONS
62
2
10
5640.00
20
2880.00
30
0.0
40
90.00
1
NW-CHA-004
(F15)
0
LINE
8
FURN_STORAGE
62
6
10
120.00
20
920.00
30
0.0
11
1120.00
21
920.00
31
0.0
0
LINE
8
FURN_STORAGE
62
6
10
1120.00
20
920.00
30
0.0
11
1120.00
21
1320.00
31
0.0
0
LINE
8
FURN_STORAGE
62
6
10
1120.00
20
1320.00
30
0.0
11
120.00
21
1320.00
31
0.0
0
LINE
8
FURN_STORAGE
62
6
10
120.00
20
1320.00
30
0.0
11
120.00
21
920.00
31
0.0
0
TEXT
8
ANNOTATIONS
62
6
10
420.00
20
1120.00
30
0.0
40
90.00
1
NW-STO-002
(F02)
0
LINE
8
FURN_STORAGE
62
6
10
1520.00
20
3120.00
30
0.0
11
2520.00
21
3120.00
31
0.0
0
LINE
8
FURN_STORAGE
62
6
10
2520.00
20
3120.00
30
0.0
11
2520.00
21
3520.00
31
0.0
0
LINE
8
FURN_STORAGE
62
6
10
2520.00
20
3520.00
30
0.0
11
1520.00
21
3520.00
31
0.0
0
LINE
8
FURN_STORAGE
62
6
10
1520.00
20
3520.00
30
0.0
11
1520.00
21
3120.00
31
0.0
0
TEXT
8
ANNOTATIONS
62
6
10
1820.00
20
3320.00
30
0.0
40
90.00
1
NW-STO-002
(F02)
0
ENDSEC
0
EOF
