0
SECTION
2
HEADER
0
ENDSEC
0
SECTION
2
TABLES
0
ENDSEC
0
SECTION
2
BLOCKS
0
ENDSEC
0
SECTION
2
ENTITIES
0
LINE
8
0_WALLS
62
7
10
0.00
20
0.00
30
0.0
11
9000.00
21
0.00
31
0.0
0
LINE
8
0_WALLS
62
7
10
9000.00
20
0.00
30
0.0
11
9000.00
21
6200.00
31
0.0
0
LINE
8
0_WALLS
62
7
10
9000.00
20
6200.00
30
0.0
11
0.00
21
6200.00
31
0.0
0
LINE
8
0_WALLS
62
7
10
0.00
20
6200.00
30
0.0
11
0.00
21
0.00
31
0.0
0
TEXT
8
ANNOTATIONS
62
7
10
200.00
20
200.00
30
0.0
40
200.00
1
ROOM: Cedar Client Workshop (ROOM-02)
0
LINE
8
0_DOORS
62
1
10
0.00
20
1800.00
30
0.0
11
0.00
21
700.00
31
0.0
0
TEXT
8
0_DOORS
62
1
10
50.00
20
1300.00
30
0.0
40
100.00
1
DOOR D1 (inward_right)
0
TEXT
8
0_WINDOWS
62
5
10
100.00
20
100.00
30
0.0
40
100.00
1
WINDOW (4200.0mm)
0
LINE
8
0_EGRESS
62
4
10
0.00
20
1250.00
30
0.0
11
8200.00
21
5400.00
31
0.0
0
TEXT
8
0_EGRESS
62
4
10
4100.00
20
3325.00
30
0.0
40
120.00
1
PRIMARY EGRESS PATH (1100mm CLEAR)
0
LINE
8
FURN_COLLAB
62
4
10
420.00
20
120.00
30
0.0
11
2820.00
21
120.00
31
0.0
0
LINE
8
FURN_COLLAB
62
4
10
2820.00
20
120.00
30
0.0
11
2820.00
21
820.00
31
0.0
0
LINE
8
FURN_COLLAB
62
4
10
2820.00
20
820.00
30
0.0
11
420.00
21
820.00
31
0.0
0
LINE
8
FURN_COLLAB
62
4
10
420.00
20
820.00
30
0.0
11
420.00
21
120.00
31
0.0
0
TEXT
8
ANNOTATIONS
62
4
10
1420.00
20
470.00
30
0.0
40
90.00
1
NW-COL-004
(F09)
0
LINE
8
FURN_COLLAB
62
4
10
2820.00
20
120.00
30
0.0
11
5220.00
21
120.00
31
0.0
0
LINE
8
FURN_COLLAB
62
4
10
5220.00
20
120.00
30
0.0
11
5220.00
21
820.00
31
0.0
0
LINE
8
FURN_COLLAB
62
4
10
5220.00
20
820.00
30
0.0
11
2820.00
21
820.00
31
0.0
0
LINE
8
FURN_COLLAB
62
4
10
2820.00
20
820.00
30
0.0
11
2820.00
21
120.00
31
0.0
0
TEXT
8
ANNOTATIONS
62
4
10
3820.00
20
470.00
30
0.0
40
90.00
1
NW-COL-004
(F09)
0
LINE
8
FURN_CHAIR
62
2
10
200.00
20
2600.00
30
0.0
11
760.00
21
2600.00
31
0.0
0
LINE
8
FURN_CHAIR
62
2
10
760.00
20
2600.00
30
0.0
11
760.00
21
3200.00
31
0.0
0
LINE
8
FURN_CHAIR
62
2
10
760.00
20
3200.00
30
0.0
11
200.00
21
3200.00
31
0.0
0
LINE
8
FURN_CHAIR
62
2
10
200.00
20
3200.00
30
0.0
11
200.00
21
2600.00
31
0.0
0
TEXT
8
ANNOTATIONS
62
2
10
280.00
20
2900.00
30
0.0
40
90.00
1
NW-CHA-010
(F13)
0
LINE
8
FURN_CHAIR
62
2
10
200.00
20
3400.00
30
0.0
11
760.00
21
3400.00
31
0.0
0
LINE
8
FURN_CHAIR
62
2
10
760.00
20
3400.00
30
0.0
11
760.00
21
4000.00
31
0.0
0
LINE
8
FURN_CHAIR
62
2
10
760.00
20
4000.00
30
0.0
11
200.00
21
4000.00
31
0.0
0
LINE
8
FURN_CHAIR
62
2
10
200.00
20
4000.00
30
0.0
11
200.00
21
3400.00
31
0.0
0
TEXT
8
ANNOTATIONS
62
2
10
280.00
20
3700.00
30
0.0
40
90.00
1
NW-CHA-010
(F13)
0
LINE
8
FURN_CHAIR
62
2
10
200.00
20
4200.00
30
0.0
11
760.00
21
4200.00
31
0.0
0
LINE
8
FURN_CHAIR
62
2
10
760.00
20
4200.00
30
0.0
11
760.00
21
4800.00
31
0.0
0
LINE
8
FURN_CHAIR
62
2
10
760.00
20
4800.00
30
0.0
11
200.00
21
4800.00
31
0.0
0
LINE
8
FURN_CHAIR
62
2
10
200.00
20
4800.00
30
0.0
11
200.00
21
4200.00
31
0.0
0
TEXT
8
ANNOTATIONS
62
2
10
280.00
20
4500.00
30
0.0
40
90.00
1
NW-CHA-010
(F13)
0
LINE
8
FURN_CHAIR
62
2
10
1000.00
20
3000.00
30
0.0
11
1560.00
21
3000.00
31
0.0
0
LINE
8
FURN_CHAIR
62
2
10
1560.00
20
3000.00
30
0.0
11
1560.00
21
3600.00
31
0.0
0
LINE
8
FURN_CHAIR
62
2
10
1560.00
20
3600.00
30
0.0
11
1000.00
21
3600.00
31
0.0
0
LINE
8
FURN_CHAIR
62
2
10
1000.00
20
3600.00
30
0.0
11
1000.00
21
3000.00
31
0.0
0
TEXT
8
ANNOTATIONS
62
2
10
1080.00
20
3300.00
30
0.0
40
90.00
1
NW-CHA-010
(F13)
0
LINE
8
FURN_CHAIR
62
2
10
7620.00
20
120.00
30
0.0
11
8180.00
21
120.00
31
0.0
0
LINE
8
FURN_CHAIR
62
2
10
8180.00
20
120.00
30
0.0
11
8180.00
21
720.00
31
0.0
0
LINE
8
FURN_CHAIR
62
2
10
8180.00
20
720.00
30
0.0
11
7620.00
21
720.00
31
0.0
0
LINE
8
FURN_CHAIR
62
2
10
7620.00
20
720.00
30
0.0
11
7620.00
21
120.00
31
0.0
0
TEXT
8
ANNOTATIONS
62
2
10
7700.00
20
420.00
30
0.0
40
90.00
1
NW-CHA-010
(F13)
0
LINE
8
FURN_CHAIR
62
2
10
8220.00
20
120.00
30
0.0
11
8780.00
21
120.00
31
0.0
0
LINE
8
FURN_CHAIR
62
2
10
8780.00
20
120.00
30
0.0
11
8780.00
21
720.00
31
0.0
0
LINE
8
FURN_CHAIR
62
2
10
8780.00
20
720.00
30
0.0
11
8220.00
21
720.00
31
0.0
0
LINE
8
FURN_CHAIR
62
2
10
8220.00
20
720.00
30
0.0
11
8220.00
21
120.00
31
0.0
0
TEXT
8
ANNOTATIONS
62
2
10
8300.00
20
420.00
30
0.0
40
90.00
1
NW-CHA-010
(F13)
0
LINE
8
FURN_CHAIR
62
2
10
1000.00
20
3800.00
30
0.0
11
1560.00
21
3800.00
31
0.0
0
LINE
8
FURN_CHAIR
62
2
10
1560.00
20
3800.00
30
0.0
11
1560.00
21
4400.00
31
0.0
0
LINE
8
FURN_CHAIR
62
2
10
1560.00
20
4400.00
30
0.0
11
1000.00
21
4400.00
31
0.0
0
LINE
8
FURN_CHAIR
62
2
10
1000.00
20
4400.00
30
0.0
11
1000.00
21
3800.00
31
0.0
0
TEXT
8
ANNOTATIONS
62
2
10
1080.00
20
4100.00
30
0.0
40
90.00
1
NW-CHA-010
(F13)
0
LINE
8
FURN_CHAIR
62
2
10
1000.00
20
4600.00
30
0.0
11
1560.00
21
4600.00
31
0.0
0
LINE
8
FURN_CHAIR
62
2
10
1560.00
20
4600.00
30
0.0
11
1560.00
21
5200.00
31
0.0
0
LINE
8
FURN_CHAIR
62
2
10
1560.00
20
5200.00
30
0.0
11
1000.00
21
5200.00
31
0.0
0
LINE
8
FURN_CHAIR
62
2
10
1000.00
20
5200.00
30
0.0
11
1000.00
21
4600.00
31
0.0
0
TEXT
8
ANNOTATIONS
62
2
10
1080.00
20
4900.00
30
0.0
40
90.00
1
NW-CHA-010
(F13)
0
LINE
8
FURN_CHAIR
62
2
10
1800.00
20
3400.00
30
0.0
11
2360.00
21
3400.00
31
0.0
0
LINE
8
FURN_CHAIR
62
2
10
2360.00
20
3400.00
30
0.0
11
2360.00
21
4000.00
31
0.0
0
LINE
8
FURN_CHAIR
62
2
10
2360.00
20
4000.00
30
0.0
11
1800.00
21
4000.00
31
0.0
0
LINE
8
FURN_CHAIR
62
2
10
1800.00
20
4000.00
30
0.0
11
1800.00
21
3400.00
31
0.0
0
TEXT
8
ANNOTATIONS
62
2
10
1880.00
20
3700.00
30
0.0
40
90.00
1
NW-CHA-010
(F13)
0
LINE
8
FURN_CHAIR
62
2
10
1800.00
20
4200.00
30
0.0
11
2360.00
21
4200.00
31
0.0
0
LINE
8
FURN_CHAIR
62
2
10
2360.00
20
4200.00
30
0.0
11
2360.00
21
4800.00
31
0.0
0
LINE
8
FURN_CHAIR
62
2
10
2360.00
20
4800.00
30
0.0
11
1800.00
21
4800.00
31
0.0
0
LINE
8
FURN_CHAIR
62
2
10
1800.00
20
4800.00
30
0.0
11
1800.00
21
4200.00
31
0.0
0
TEXT
8
ANNOTATIONS
62
2
10
1880.00
20
4500.00
30
0.0
40
90.00
1
NW-CHA-010
(F13)
0
LINE
8
FURN_CHAIR
62
2
10
7620.00
20
720.00
30
0.0
11
8180.00
21
720.00
31
0.0
0
LINE
8
FURN_CHAIR
62
2
10
8180.00
20
720.00
30
0.0
11
8180.00
21
1320.00
31
0.0
0
LINE
8
FURN_CHAIR
62
2
10
8180.00
20
1320.00
30
0.0
11
7620.00
21
1320.00
31
0.0
0
LINE
8
FURN_CHAIR
62
2
10
7620.00
20
1320.00
30
0.0
11
7620.00
21
720.00
31
0.0
0
TEXT
8
ANNOTATIONS
62
2
10
7700.00
20
1020.00
30
0.0
40
90.00
1
NW-CHA-010
(F13)
0
LINE
8
FURN_CHAIR
62
2
10
8220.00
20
720.00
30
0.0
11
8780.00
21
720.00
31
0.0
0
LINE
8
FURN_CHAIR
62
2
10
8780.00
20
720.00
30
0.0
11
8780.00
21
1320.00
31
0.0
0
LINE
8
FURN_CHAIR
62
2
10
8780.00
20
1320.00
30
0.0
11
8220.00
21
1320.00
31
0.0
0
LINE
8
FURN_CHAIR
62
2
10
8220.00
20
1320.00
30
0.0
11
8220.00
21
720.00
31
0.0
0
TEXT
8
ANNOTATIONS
62
2
10
8300.00
20
1020.00
30
0.0
40
90.00
1
NW-CHA-010
(F13)
0
LINE
8
FURN_CHAIR
62
2
10
1620.00
20
820.00
30
0.0
11
2180.00
21
820.00
31
0.0
0
LINE
8
FURN_CHAIR
62
2
10
2180.00
20
820.00
30
0.0
11
2180.00
21
1420.00
31
0.0
0
LINE
8
FURN_CHAIR
62
2
10
2180.00
20
1420.00
30
0.0
11
1620.00
21
1420.00
31
0.0
0
LINE
8
FURN_CHAIR
62
2
10
1620.00
20
1420.00
30
0.0
11
1620.00
21
820.00
31
0.0
0
TEXT
8
ANNOTATIONS
62
2
10
1700.00
20
1120.00
30
0.0
40
90.00
1
NW-CHA-010
(F13)
0
LINE
8
FURN_CHAIR
62
2
10
2220.00
20
820.00
30
0.0
11
2780.00
21
820.00
31
0.0
0
LINE
8
FURN_CHAIR
62
2
10
2780.00
20
820.00
30
0.0
11
2780.00
21
1420.00
31
0.0
0
LINE
8
FURN_CHAIR
62
2
10
2780.00
20
1420.00
30
0.0
11
2220.00
21
1420.00
31
0.0
0
LINE
8
FURN_CHAIR
62
2
10
2220.00
20
1420.00
30
0.0
11
2220.00
21
820.00
31
0.0
0
TEXT
8
ANNOTATIONS
62
2
10
2300.00
20
1120.00
30
0.0
40
90.00
1
NW-CHA-010
(F13)
0
LINE
8
FURN_CHAIR
62
2
10
2820.00
20
820.00
30
0.0
11
3380.00
21
820.00
31
0.0
0
LINE
8
FURN_CHAIR
62
2
10
3380.00
20
820.00
30
0.0
11
3380.00
21
1420.00
31
0.0
0
LINE
8
FURN_CHAIR
62
2
10
3380.00
20
1420.00
30
0.0
11
2820.00
21
1420.00
31
0.0
0
LINE
8
FURN_CHAIR
62
2
10
2820.00
20
1420.00
30
0.0
11
2820.00
21
820.00
31
0.0
0
TEXT
8
ANNOTATIONS
62
2
10
2900.00
20
1120.00
30
0.0
40
90.00
1
NW-CHA-010
(F13)
0
LINE
8
FURN_CHAIR
62
2
10
3420.00
20
820.00
30
0.0
11
3980.00
21
820.00
31
0.0
0
LINE
8
FURN_CHAIR
62
2
10
3980.00
20
820.00
30
0.0
11
3980.00
21
1420.00
31
0.0
0
LINE
8
FURN_CHAIR
62
2
10
3980.00
20
1420.00
30
0.0
11
3420.00
21
1420.00
31
0.0
0
LINE
8
FURN_CHAIR
62
2
10
3420.00
20
1420.00
30
0.0
11
3420.00
21
820.00
31
0.0
0
TEXT
8
ANNOTATIONS
62
2
10
3500.00
20
1120.00
30
0.0
40
90.00
1
NW-CHA-010
(F13)
0
LINE
8
FURN_STORAGE
62
6
10
4020.00
20
820.00
30
0.0
11
4820.00
21
820.00
31
0.0
0
LINE
8
FURN_STORAGE
62
6
10
4820.00
20
820.00
30
0.0
11
4820.00
21
1270.00
31
0.0
0
LINE
8
FURN_STORAGE
62
6
10
4820.00
20
1270.00
30
0.0
11
4020.00
21
1270.00
31
0.0
0
LINE
8
FURN_STORAGE
62
6
10
4020.00
20
1270.00
30
0.0
11
4020.00
21
820.00
31
0.0
0
TEXT
8
ANNOTATIONS
62
6
10
4220.00
20
1045.00
30
0.0
40
90.00
1
NW-STO-005
(F05)
0
LINE
8
FURN_STORAGE
62
6
10
4020.00
20
1320.00
30
0.0
11
4820.00
21
1320.00
31
0.0
0
LINE
8
FURN_STORAGE
62
6
10
4820.00
20
1320.00
30
0.0
11
4820.00
21
1770.00
31
0.0
0
LINE
8
FURN_STORAGE
62
6
10
4820.00
20
1770.00
30
0.0
11
4020.00
21
1770.00
31
0.0
0
LINE
8
FURN_STORAGE
62
6
10
4020.00
20
1770.00
30
0.0
11
4020.00
21
1320.00
31
0.0
0
TEXT
8
ANNOTATIONS
62
6
10
4220.00
20
1545.00
30
0.0
40
90.00
1
NW-STO-005
(F05)
0
LINE
8
FURN_STORAGE
62
6
10
4820.00
20
1320.00
30
0.0
11
5620.00
21
1320.00
31
0.0
0
LINE
8
FURN_STORAGE
62
6
10
5620.00
20
1320.00
30
0.0
11
5620.00
21
1770.00
31
0.0
0
LINE
8
FURN_STORAGE
62
6
10
5620.00
20
1770.00
30
0.0
11
4820.00
21
1770.00
31
0.0
0
LINE
8
FURN_STORAGE
62
6
10
4820.00
20
1770.00
30
0.0
11
4820.00
21
1320.00
31
0.0
0
TEXT
8
ANNOTATIONS
62
6
10
5020.00
20
1545.00
30
0.0
40
90.00
1
NW-STO-005
(F05)
0
LINE
8
FURN_STORAGE
62
6
10
5620.00
20
1320.00
30
0.0
11
6420.00
21
1320.00
31
0.0
0
LINE
8
FURN_STORAGE
62
6
10
6420.00
20
1320.00
30
0.0
11
6420.00
21
1770.00
31
0.0
0
LINE
8
FURN_STORAGE
62
6
10
6420.00
20
1770.00
30
0.0
11
5620.00
21
1770.00
31
0.0
0
LINE
8
FURN_STORAGE
62
6
10
5620.00
20
1770.00
30
0.0
11
5620.00
21
1320.00
31
0.0
0
TEXT
8
ANNOTATIONS
62
6
10
5820.00
20
1545.00
30
0.0
40
90.00
1
NW-STO-005
(F05)
0
LINE
8
FURN_ACCESSORY
62
8
10
920.00
20
820.00
30
0.0
11
1370.00
21
820.00
31
0.0
0
LINE
8
FURN_ACCESSORY
62
8
10
1370.00
20
820.00
30
0.0
11
1370.00
21
1070.00
31
0.0
0
LINE
8
FURN_ACCESSORY
62
8
10
1370.00
20
1070.00
30
0.0
11
920.00
21
1070.00
31
0.0
0
LINE
8
FURN_ACCESSORY
62
8
10
920.00
20
1070.00
30
0.0
11
920.00
21
820.00
31
0.0
0
TEXT
8
ANNOTATIONS
62
8
10
945.00
20
945.00
30
0.0
40
90.00
1
NW-ACC-006
(F02)
0
LINE
8
FURN_ACCESSORY
62
8
10
6420.00
20
1320.00
30
0.0
11
6870.00
21
1320.00
31
0.0
0
LINE
8
FURN_ACCESSORY
62
8
10
6870.00
20
1320.00
30
0.0
11
6870.00
21
1570.00
31
0.0
0
LINE
8
FURN_ACCESSORY
62
8
10
6870.00
20
1570.00
30
0.0
11
6420.00
21
1570.00
31
0.0
0
LINE
8
FURN_ACCESSORY
62
8
10
6420.00
20
1570.00
30
0.0
11
6420.00
21
1320.00
31
0.0
0
TEXT
8
ANNOTATIONS
62
8
10
6445.00
20
1445.00
30
0.0
40
90.00
1
NW-ACC-006
(F02)
0
LINE
8
FURN_ACCESSORY
62
8
10
6920.00
20
1320.00
30
0.0
11
7370.00
21
1320.00
31
0.0
0
LINE
8
FURN_ACCESSORY
62
8
10
7370.00
20
1320.00
30
0.0
11
7370.00
21
1570.00
31
0.0
0
LINE
8
FURN_ACCESSORY
62
8
10
7370.00
20
1570.00
30
0.0
11
6920.00
21
1570.00
31
0.0
0
LINE
8
FURN_ACCESSORY
62
8
10
6920.00
20
1570.00
30
0.0
11
6920.00
21
1320.00
31
0.0
0
TEXT
8
ANNOTATIONS
62
8
10
6945.00
20
1445.00
30
0.0
40
90.00
1
NW-ACC-006
(F02)
0
ENDSEC
0
EOF
