0
SECTION
2
HEADER
0
ENDSEC
0
SECTION
2
TABLES
0
ENDSEC
0
SECTION
2
BLOCKS
0
ENDSEC
0
SECTION
2
ENTITIES
0
LINE
8
0_WALLS
62
7
10
0.00
20
0.00
30
0.0
11
9000.00
21
0.00
31
0.0
0
LINE
8
0_WALLS
62
7
10
9000.00
20
0.00
30
0.0
11
9000.00
21
6200.00
31
0.0
0
LINE
8
0_WALLS
62
7
10
9000.00
20
6200.00
30
0.0
11
0.00
21
6200.00
31
0.0
0
LINE
8
0_WALLS
62
7
10
0.00
20
6200.00
30
0.0
11
0.00
21
0.00
31
0.0
0
TEXT
8
ANNOTATIONS
62
7
10
200.00
20
200.00
30
0.0
40
200.00
1
ROOM: Cedar Client Workshop (ROOM-02)
0
LINE
8
0_DOORS
62
1
10
0.00
20
1800.00
30
0.0
11
0.00
21
700.00
31
0.0
0
TEXT
8
0_DOORS
62
1
10
50.00
20
1300.00
30
0.0
40
100.00
1
DOOR D1 (inward_right)
0
TEXT
8
0_WINDOWS
62
5
10
100.00
20
100.00
30
0.0
40
100.00
1
WINDOW (4200.0mm)
0
LINE
8
0_EGRESS
62
4
10
0.00
20
1250.00
30
0.0
11
8200.00
21
5400.00
31
0.0
0
TEXT
8
0_EGRESS
62
4
10
4100.00
20
3325.00
30
0.0
40
120.00
1
PRIMARY EGRESS PATH (1100mm CLEAR)
0
LINE
8
FURN_COLLAB
62
4
10
770.00
20
120.00
30
0.0
11
3170.00
21
120.00
31
0.0
0
LINE
8
FURN_COLLAB
62
4
10
3170.00
20
120.00
30
0.0
11
3170.00
21
1020.00
31
0.0
0
LINE
8
FURN_COLLAB
62
4
10
3170.00
20
1020.00
30
0.0
11
770.00
21
1020.00
31
0.0
0
LINE
8
FURN_COLLAB
62
4
10
770.00
20
1020.00
30
0.0
11
770.00
21
120.00
31
0.0
0
TEXT
8
ANNOTATIONS
62
4
10
1770.00
20
570.00
30
0.0
40
90.00
1
NW-COL-008
(F09)
0
LINE
8
FURN_COLLAB
62
4
10
3170.00
20
120.00
30
0.0
11
5570.00
21
120.00
31
0.0
0
LINE
8
FURN_COLLAB
62
4
10
5570.00
20
120.00
30
0.0
11
5570.00
21
1020.00
31
0.0
0
LINE
8
FURN_COLLAB
62
4
10
5570.00
20
1020.00
30
0.0
11
3170.00
21
1020.00
31
0.0
0
LINE
8
FURN_COLLAB
62
4
10
3170.00
20
1020.00
30
0.0
11
3170.00
21
120.00
31
0.0
0
TEXT
8
ANNOTATIONS
62
4
10
4170.00
20
570.00
30
0.0
40
90.00
1
NW-COL-008
(F09)
0
LINE
8
FURN_CHAIR
62
2
10
170.00
20
120.00
30
0.0
11
730.00
21
120.00
31
0.0
0
LINE
8
FURN_CHAIR
62
2
10
730.00
20
120.00
30
0.0
11
730.00
21
720.00
31
0.0
0
LINE
8
FURN_CHAIR
62
2
10
730.00
20
720.00
30
0.0
11
170.00
21
720.00
31
0.0
0
LINE
8
FURN_CHAIR
62
2
10
170.00
20
720.00
30
0.0
11
170.00
21
120.00
31
0.0
0
TEXT
8
ANNOTATIONS
62
2
10
250.00
20
420.00
30
0.0
40
90.00
1
NW-CHA-010
(F13)
0
LINE
8
FURN_CHAIR
62
2
10
5570.00
20
120.00
30
0.0
11
6130.00
21
120.00
31
0.0
0
LINE
8
FURN_CHAIR
62
2
10
6130.00
20
120.00
30
0.0
11
6130.00
21
720.00
31
0.0
0
LINE
8
FURN_CHAIR
62
2
10
6130.00
20
720.00
30
0.0
11
5570.00
21
720.00
31
0.0
0
LINE
8
FURN_CHAIR
62
2
10
5570.00
20
720.00
30
0.0
11
5570.00
21
120.00
31
0.0
0
TEXT
8
ANNOTATIONS
62
2
10
5650.00
20
420.00
30
0.0
40
90.00
1
NW-CHA-010
(F13)
0
LINE
8
FURN_CHAIR
62
2
10
6170.00
20
120.00
30
0.0
11
6730.00
21
120.00
31
0.0
0
LINE
8
FURN_CHAIR
62
2
10
6730.00
20
120.00
30
0.0
11
6730.00
21
720.00
31
0.0
0
LINE
8
FURN_CHAIR
62
2
10
6730.00
20
720.00
30
0.0
11
6170.00
21
720.00
31
0.0
0
LINE
8
FURN_CHAIR
62
2
10
6170.00
20
720.00
30
0.0
11
6170.00
21
120.00
31
0.0
0
TEXT
8
ANNOTATIONS
62
2
10
6250.00
20
420.00
30
0.0
40
90.00
1
NW-CHA-010
(F13)
0
LINE
8
FURN_CHAIR
62
2
10
6770.00
20
120.00
30
0.0
11
7330.00
21
120.00
31
0.0
0
LINE
8
FURN_CHAIR
62
2
10
7330.00
20
120.00
30
0.0
11
7330.00
21
720.00
31
0.0
0
LINE
8
FURN_CHAIR
62
2
10
7330.00
20
720.00
30
0.0
11
6770.00
21
720.00
31
0.0
0
LINE
8
FURN_CHAIR
62
2
10
6770.00
20
720.00
30
0.0
11
6770.00
21
120.00
31
0.0
0
TEXT
8
ANNOTATIONS
62
2
10
6850.00
20
420.00
30
0.0
40
90.00
1
NW-CHA-010
(F13)
0
LINE
8
FURN_CHAIR
62
2
10
7370.00
20
120.00
30
0.0
11
7930.00
21
120.00
31
0.0
0
LINE
8
FURN_CHAIR
62
2
10
7930.00
20
120.00
30
0.0
11
7930.00
21
720.00
31
0.0
0
LINE
8
FURN_CHAIR
62
2
10
7930.00
20
720.00
30
0.0
11
7370.00
21
720.00
31
0.0
0
LINE
8
FURN_CHAIR
62
2
10
7370.00
20
720.00
30
0.0
11
7370.00
21
120.00
31
0.0
0
TEXT
8
ANNOTATIONS
62
2
10
7450.00
20
420.00
30
0.0
40
90.00
1
NW-CHA-010
(F13)
0
LINE
8
FURN_CHAIR
62
2
10
7970.00
20
120.00
30
0.0
11
8530.00
21
120.00
31
0.0
0
LINE
8
FURN_CHAIR
62
2
10
8530.00
20
120.00
30
0.0
11
8530.00
21
720.00
31
0.0
0
LINE
8
FURN_CHAIR
62
2
10
8530.00
20
720.00
30
0.0
11
7970.00
21
720.00
31
0.0
0
LINE
8
FURN_CHAIR
62
2
10
7970.00
20
720.00
30
0.0
11
7970.00
21
120.00
31
0.0
0
TEXT
8
ANNOTATIONS
62
2
10
8050.00
20
420.00
30
0.0
40
90.00
1
NW-CHA-010
(F13)
0
LINE
8
FURN_CHAIR
62
2
10
5570.00
20
720.00
30
0.0
11
6130.00
21
720.00
31
0.0
0
LINE
8
FURN_CHAIR
62
2
10
6130.00
20
720.00
30
0.0
11
6130.00
21
1320.00
31
0.0
0
LINE
8
FURN_CHAIR
62
2
10
6130.00
20
1320.00
30
0.0
11
5570.00
21
1320.00
31
0.0
0
LINE
8
FURN_CHAIR
62
2
10
5570.00
20
1320.00
30
0.0
11
5570.00
21
720.00
31
0.0
0
TEXT
8
ANNOTATIONS
62
2
10
5650.00
20
1020.00
30
0.0
40
90.00
1
NW-CHA-010
(F13)
0
LINE
8
FURN_CHAIR
62
2
10
6170.00
20
720.00
30
0.0
11
6730.00
21
720.00
31
0.0
0
LINE
8
FURN_CHAIR
62
2
10
6730.00
20
720.00
30
0.0
11
6730.00
21
1320.00
31
0.0
0
LINE
8
FURN_CHAIR
62
2
10
6730.00
20
1320.00
30
0.0
11
6170.00
21
1320.00
31
0.0
0
LINE
8
FURN_CHAIR
62
2
10
6170.00
20
1320.00
30
0.0
11
6170.00
21
720.00
31
0.0
0
TEXT
8
ANNOTATIONS
62
2
10
6250.00
20
1020.00
30
0.0
40
90.00
1
NW-CHA-010
(F13)
0
LINE
8
FURN_CHAIR
62
2
10
6770.00
20
720.00
30
0.0
11
7330.00
21
720.00
31
0.0
0
LINE
8
FURN_CHAIR
62
2
10
7330.00
20
720.00
30
0.0
11
7330.00
21
1320.00
31
0.0
0
LINE
8
FURN_CHAIR
62
2
10
7330.00
20
1320.00
30
0.0
11
6770.00
21
1320.00
31
0.0
0
LINE
8
FURN_CHAIR
62
2
10
6770.00
20
1320.00
30
0.0
11
6770.00
21
720.00
31
0.0
0
TEXT
8
ANNOTATIONS
62
2
10
6850.00
20
1020.00
30
0.0
40
90.00
1
NW-CHA-010
(F13)
0
LINE
8
FURN_CHAIR
62
2
10
7370.00
20
720.00
30
0.0
11
7930.00
21
720.00
31
0.0
0
LINE
8
FURN_CHAIR
62
2
10
7930.00
20
720.00
30
0.0
11
7930.00
21
1320.00
31
0.0
0
LINE
8
FURN_CHAIR
62
2
10
7930.00
20
1320.00
30
0.0
11
7370.00
21
1320.00
31
0.0
0
LINE
8
FURN_CHAIR
62
2
10
7370.00
20
1320.00
30
0.0
11
7370.00
21
720.00
31
0.0
0
TEXT
8
ANNOTATIONS
62
2
10
7450.00
20
1020.00
30
0.0
40
90.00
1
NW-CHA-010
(F13)
0
LINE
8
FURN_CHAIR
62
2
10
7970.00
20
720.00
30
0.0
11
8530.00
21
720.00
31
0.0
0
LINE
8
FURN_CHAIR
62
2
10
8530.00
20
720.00
30
0.0
11
8530.00
21
1320.00
31
0.0
0
LINE
8
FURN_CHAIR
62
2
10
8530.00
20
1320.00
30
0.0
11
7970.00
21
1320.00
31
0.0
0
LINE
8
FURN_CHAIR
62
2
10
7970.00
20
1320.00
30
0.0
11
7970.00
21
720.00
31
0.0
0
TEXT
8
ANNOTATIONS
62
2
10
8050.00
20
1020.00
30
0.0
40
90.00
1
NW-CHA-010
(F13)
0
LINE
8
FURN_CHAIR
62
2
10
1970.00
20
1020.00
30
0.0
11
2530.00
21
1020.00
31
0.0
0
LINE
8
FURN_CHAIR
62
2
10
2530.00
20
1020.00
30
0.0
11
2530.00
21
1620.00
31
0.0
0
LINE
8
FURN_CHAIR
62
2
10
2530.00
20
1620.00
30
0.0
11
1970.00
21
1620.00
31
0.0
0
LINE
8
FURN_CHAIR
62
2
10
1970.00
20
1620.00
30
0.0
11
1970.00
21
1020.00
31
0.0
0
TEXT
8
ANNOTATIONS
62
2
10
2050.00
20
1320.00
30
0.0
40
90.00
1
NW-CHA-010
(F13)
0
LINE
8
FURN_CHAIR
62
2
10
2570.00
20
1020.00
30
0.0
11
3130.00
21
1020.00
31
0.0
0
LINE
8
FURN_CHAIR
62
2
10
3130.00
20
1020.00
30
0.0
11
3130.00
21
1620.00
31
0.0
0
LINE
8
FURN_CHAIR
62
2
10
3130.00
20
1620.00
30
0.0
11
2570.00
21
1620.00
31
0.0
0
LINE
8
FURN_CHAIR
62
2
10
2570.00
20
1620.00
30
0.0
11
2570.00
21
1020.00
31
0.0
0
TEXT
8
ANNOTATIONS
62
2
10
2650.00
20
1320.00
30
0.0
40
90.00
1
NW-CHA-010
(F13)
0
LINE
8
FURN_CHAIR
62
2
10
3170.00
20
1020.00
30
0.0
11
3730.00
21
1020.00
31
0.0
0
LINE
8
FURN_CHAIR
62
2
10
3730.00
20
1020.00
30
0.0
11
3730.00
21
1620.00
31
0.0
0
LINE
8
FURN_CHAIR
62
2
10
3730.00
20
1620.00
30
0.0
11
3170.00
21
1620.00
31
0.0
0
LINE
8
FURN_CHAIR
62
2
10
3170.00
20
1620.00
30
0.0
11
3170.00
21
1020.00
31
0.0
0
TEXT
8
ANNOTATIONS
62
2
10
3250.00
20
1320.00
30
0.0
40
90.00
1
NW-CHA-010
(F13)
0
LINE
8
FURN_CHAIR
62
2
10
3770.00
20
1020.00
30
0.0
11
4330.00
21
1020.00
31
0.0
0
LINE
8
FURN_CHAIR
62
2
10
4330.00
20
1020.00
30
0.0
11
4330.00
21
1620.00
31
0.0
0
LINE
8
FURN_CHAIR
62
2
10
4330.00
20
1620.00
30
0.0
11
3770.00
21
1620.00
31
0.0
0
LINE
8
FURN_CHAIR
62
2
10
3770.00
20
1620.00
30
0.0
11
3770.00
21
1020.00
31
0.0
0
TEXT
8
ANNOTATIONS
62
2
10
3850.00
20
1320.00
30
0.0
40
90.00
1
NW-CHA-010
(F13)
0
LINE
8
FURN_CHAIR
62
2
10
4370.00
20
1020.00
30
0.0
11
4930.00
21
1020.00
31
0.0
0
LINE
8
FURN_CHAIR
62
2
10
4930.00
20
1020.00
30
0.0
11
4930.00
21
1620.00
31
0.0
0
LINE
8
FURN_CHAIR
62
2
10
4930.00
20
1620.00
30
0.0
11
4370.00
21
1620.00
31
0.0
0
LINE
8
FURN_CHAIR
62
2
10
4370.00
20
1620.00
30
0.0
11
4370.00
21
1020.00
31
0.0
0
TEXT
8
ANNOTATIONS
62
2
10
4450.00
20
1320.00
30
0.0
40
90.00
1
NW-CHA-010
(F13)
0
LINE
8
FURN_STORAGE
62
6
10
4970.00
20
1320.00
30
0.0
11
5770.00
21
1320.00
31
0.0
0
LINE
8
FURN_STORAGE
62
6
10
5770.00
20
1320.00
30
0.0
11
5770.00
21
1770.00
31
0.0
0
LINE
8
FURN_STORAGE
62
6
10
5770.00
20
1770.00
30
0.0
11
4970.00
21
1770.00
31
0.0
0
LINE
8
FURN_STORAGE
62
6
10
4970.00
20
1770.00
30
0.0
11
4970.00
21
1320.00
31
0.0
0
TEXT
8
ANNOTATIONS
62
6
10
5170.00
20
1545.00
30
0.0
40
90.00
1
NW-STO-005
(F05)
0
LINE
8
FURN_STORAGE
62
6
10
5770.00
20
1320.00
30
0.0
11
6570.00
21
1320.00
31
0.0
0
LINE
8
FURN_STORAGE
62
6
10
6570.00
20
1320.00
30
0.0
11
6570.00
21
1770.00
31
0.0
0
LINE
8
FURN_STORAGE
62
6
10
6570.00
20
1770.00
30
0.0
11
5770.00
21
1770.00
31
0.0
0
LINE
8
FURN_STORAGE
62
6
10
5770.00
20
1770.00
30
0.0
11
5770.00
21
1320.00
31
0.0
0
TEXT
8
ANNOTATIONS
62
6
10
5970.00
20
1545.00
30
0.0
40
90.00
1
NW-STO-005
(F05)
0
LINE
8
FURN_STORAGE
62
6
10
6570.00
20
1320.00
30
0.0
11
7370.00
21
1320.00
31
0.0
0
LINE
8
FURN_STORAGE
62
6
10
7370.00
20
1320.00
30
0.0
11
7370.00
21
1770.00
31
0.0
0
LINE
8
FURN_STORAGE
62
6
10
7370.00
20
1770.00
30
0.0
11
6570.00
21
1770.00
31
0.0
0
LINE
8
FURN_STORAGE
62
6
10
6570.00
20
1770.00
30
0.0
11
6570.00
21
1320.00
31
0.0
0
TEXT
8
ANNOTATIONS
62
6
10
6770.00
20
1545.00
30
0.0
40
90.00
1
NW-STO-005
(F05)
0
LINE
8
FURN_STORAGE
62
6
10
7370.00
20
1320.00
30
0.0
11
8170.00
21
1320.00
31
0.0
0
LINE
8
FURN_STORAGE
62
6
10
8170.00
20
1320.00
30
0.0
11
8170.00
21
1770.00
31
0.0
0
LINE
8
FURN_STORAGE
62
6
10
8170.00
20
1770.00
30
0.0
11
7370.00
21
1770.00
31
0.0
0
LINE
8
FURN_STORAGE
62
6
10
7370.00
20
1770.00
30
0.0
11
7370.00
21
1320.00
31
0.0
0
TEXT
8
ANNOTATIONS
62
6
10
7570.00
20
1545.00
30
0.0
40
90.00
1
NW-STO-005
(F05)
0
LINE
8
FURN_ACCESSORY
62
8
10
1270.00
20
1020.00
30
0.0
11
1720.00
21
1020.00
31
0.0
0
LINE
8
FURN_ACCESSORY
62
8
10
1720.00
20
1020.00
30
0.0
11
1720.00
21
1270.00
31
0.0
0
LINE
8
FURN_ACCESSORY
62
8
10
1720.00
20
1270.00
30
0.0
11
1270.00
21
1270.00
31
0.0
0
LINE
8
FURN_ACCESSORY
62
8
10
1270.00
20
1270.00
30
0.0
11
1270.00
21
1020.00
31
0.0
0
TEXT
8
ANNOTATIONS
62
8
10
1295.00
20
1145.00
30
0.0
40
90.00
1
NW-ACC-006
(F02)
0
LINE
8
FURN_ACCESSORY
62
8
10
4970.00
20
1020.00
30
0.0
11
5420.00
21
1020.00
31
0.0
0
LINE
8
FURN_ACCESSORY
62
8
10
5420.00
20
1020.00
30
0.0
11
5420.00
21
1270.00
31
0.0
0
LINE
8
FURN_ACCESSORY
62
8
10
5420.00
20
1270.00
30
0.0
11
4970.00
21
1270.00
31
0.0
0
LINE
8
FURN_ACCESSORY
62
8
10
4970.00
20
1270.00
30
0.0
11
4970.00
21
1020.00
31
0.0
0
TEXT
8
ANNOTATIONS
62
8
10
4995.00
20
1145.00
30
0.0
40
90.00
1
NW-ACC-006
(F02)
0
LINE
8
FURN_ACCESSORY
62
8
10
8170.00
20
1320.00
30
0.0
11
8620.00
21
1320.00
31
0.0
0
LINE
8
FURN_ACCESSORY
62
8
10
8620.00
20
1320.00
30
0.0
11
8620.00
21
1570.00
31
0.0
0
LINE
8
FURN_ACCESSORY
62
8
10
8620.00
20
1570.00
30
0.0
11
8170.00
21
1570.00
31
0.0
0
LINE
8
FURN_ACCESSORY
62
8
10
8170.00
20
1570.00
30
0.0
11
8170.00
21
1320.00
31
0.0
0
TEXT
8
ANNOTATIONS
62
8
10
8195.00
20
1445.00
30
0.0
40
90.00
1
NW-ACC-006
(F02)
0
ENDSEC
0
EOF
