0
SECTION
2
HEADER
0
ENDSEC
0
SECTION
2
TABLES
0
ENDSEC
0
SECTION
2
BLOCKS
0
ENDSEC
0
SECTION
2
ENTITIES
0
LINE
8
0_WALLS
62
7
10
0.00
20
0.00
30
0.0
11
9000.00
21
0.00
31
0.0
0
LINE
8
0_WALLS
62
7
10
9000.00
20
0.00
30
0.0
11
9000.00
21
6200.00
31
0.0
0
LINE
8
0_WALLS
62
7
10
9000.00
20
6200.00
30
0.0
11
0.00
21
6200.00
31
0.0
0
LINE
8
0_WALLS
62
7
10
0.00
20
6200.00
30
0.0
11
0.00
21
0.00
31
0.0
0
TEXT
8
ANNOTATIONS
62
7
10
200.00
20
200.00
30
0.0
40
200.00
1
ROOM: Cedar Client Workshop (ROOM-02)
0
LINE
8
0_DOORS
62
1
10
0.00
20
1800.00
30
0.0
11
0.00
21
700.00
31
0.0
0
TEXT
8
0_DOORS
62
1
10
50.00
20
1300.00
30
0.0
40
100.00
1
DOOR D1 (inward_right)
0
TEXT
8
0_WINDOWS
62
5
10
100.00
20
100.00
30
0.0
40
100.00
1
WINDOW (4200.0mm)
0
LINE
8
0_EGRESS
62
4
10
0.00
20
1250.00
30
0.0
11
8200.00
21
5400.00
31
0.0
0
TEXT
8
0_EGRESS
62
4
10
4100.00
20
3325.00
30
0.0
40
120.00
1
PRIMARY EGRESS PATH (1100mm CLEAR)
0
LINE
8
FURN_COLLAB
62
4
10
520.00
20
120.00
30
0.0
11
2920.00
21
120.00
31
0.0
0
LINE
8
FURN_COLLAB
62
4
10
2920.00
20
120.00
30
0.0
11
2920.00
21
820.00
31
0.0
0
LINE
8
FURN_COLLAB
62
4
10
2920.00
20
820.00
30
0.0
11
520.00
21
820.00
31
0.0
0
LINE
8
FURN_COLLAB
62
4
10
520.00
20
820.00
30
0.0
11
520.00
21
120.00
31
0.0
0
TEXT
8
ANNOTATIONS
62
4
10
1520.00
20
470.00
30
0.0
40
90.00
1
NW-COL-004
(F09)
0
LINE
8
FURN_COLLAB
62
4
10
2920.00
20
120.00
30
0.0
11
5320.00
21
120.00
31
0.0
0
LINE
8
FURN_COLLAB
62
4
10
5320.00
20
120.00
30
0.0
11
5320.00
21
820.00
31
0.0
0
LINE
8
FURN_COLLAB
62
4
10
5320.00
20
820.00
30
0.0
11
2920.00
21
820.00
31
0.0
0
LINE
8
FURN_COLLAB
62
4
10
2920.00
20
820.00
30
0.0
11
2920.00
21
120.00
31
0.0
0
TEXT
8
ANNOTATIONS
62
4
10
3920.00
20
470.00
30
0.0
40
90.00
1
NW-COL-004
(F09)
0
LINE
8
FURN_CHAIR
62
2
10
200.00
20
2600.00
30
0.0
11
760.00
21
2600.00
31
0.0
0
LINE
8
FURN_CHAIR
62
2
10
760.00
20
2600.00
30
0.0
11
760.00
21
3200.00
31
0.0
0
LINE
8
FURN_CHAIR
62
2
10
760.00
20
3200.00
30
0.0
11
200.00
21
3200.00
31
0.0
0
LINE
8
FURN_CHAIR
62
2
10
200.00
20
3200.00
30
0.0
11
200.00
21
2600.00
31
0.0
0
TEXT
8
ANNOTATIONS
62
2
10
280.00
20
2900.00
30
0.0
40
90.00
1
NW-CHA-010
(F13)
0
LINE
8
FURN_CHAIR
62
2
10
200.00
20
4200.00
30
0.0
11
760.00
21
4200.00
31
0.0
0
LINE
8
FURN_CHAIR
62
2
10
760.00
20
4200.00
30
0.0
11
760.00
21
4800.00
31
0.0
0
LINE
8
FURN_CHAIR
62
2
10
760.00
20
4800.00
30
0.0
11
200.00
21
4800.00
31
0.0
0
LINE
8
FURN_CHAIR
62
2
10
200.00
20
4800.00
30
0.0
11
200.00
21
4200.00
31
0.0
0
TEXT
8
ANNOTATIONS
62
2
10
280.00
20
4500.00
30
0.0
40
90.00
1
NW-CHA-010
(F13)
0
LINE
8
FURN_CHAIR
62
2
10
1800.00
20
3400.00
30
0.0
11
2360.00
21
3400.00
31
0.0
0
LINE
8
FURN_CHAIR
62
2
10
2360.00
20
3400.00
30
0.0
11
2360.00
21
4000.00
31
0.0
0
LINE
8
FURN_CHAIR
62
2
10
2360.00
20
4000.00
30
0.0
11
1800.00
21
4000.00
31
0.0
0
LINE
8
FURN_CHAIR
62
2
10
1800.00
20
4000.00
30
0.0
11
1800.00
21
3400.00
31
0.0
0
TEXT
8
ANNOTATIONS
62
2
10
1880.00
20
3700.00
30
0.0
40
90.00
1
NW-CHA-010
(F13)
0
LINE
8
FURN_CHAIR
62
2
10
3400.00
20
4200.00
30
0.0
11
3960.00
21
4200.00
31
0.0
0
LINE
8
FURN_CHAIR
62
2
10
3960.00
20
4200.00
30
0.0
11
3960.00
21
4800.00
31
0.0
0
LINE
8
FURN_CHAIR
62
2
10
3960.00
20
4800.00
30
0.0
11
3400.00
21
4800.00
31
0.0
0
LINE
8
FURN_CHAIR
62
2
10
3400.00
20
4800.00
30
0.0
11
3400.00
21
4200.00
31
0.0
0
TEXT
8
ANNOTATIONS
62
2
10
3480.00
20
4500.00
30
0.0
40
90.00
1
NW-CHA-010
(F13)
0
LINE
8
FURN_CHAIR
62
2
10
4600.00
20
1800.00
30
0.0
11
5160.00
21
1800.00
31
0.0
0
LINE
8
FURN_CHAIR
62
2
10
5160.00
20
1800.00
30
0.0
11
5160.00
21
2400.00
31
0.0
0
LINE
8
FURN_CHAIR
62
2
10
5160.00
20
2400.00
30
0.0
11
4600.00
21
2400.00
31
0.0
0
LINE
8
FURN_CHAIR
62
2
10
4600.00
20
2400.00
30
0.0
11
4600.00
21
1800.00
31
0.0
0
TEXT
8
ANNOTATIONS
62
2
10
4680.00
20
2100.00
30
0.0
40
90.00
1
NW-CHA-010
(F13)
0
LINE
8
FURN_CHAIR
62
2
10
5400.00
20
1800.00
30
0.0
11
5960.00
21
1800.00
31
0.0
0
LINE
8
FURN_CHAIR
62
2
10
5960.00
20
1800.00
30
0.0
11
5960.00
21
2400.00
31
0.0
0
LINE
8
FURN_CHAIR
62
2
10
5960.00
20
2400.00
30
0.0
11
5400.00
21
2400.00
31
0.0
0
LINE
8
FURN_CHAIR
62
2
10
5400.00
20
2400.00
30
0.0
11
5400.00
21
1800.00
31
0.0
0
TEXT
8
ANNOTATIONS
62
2
10
5480.00
20
2100.00
30
0.0
40
90.00
1
NW-CHA-010
(F13)
0
LINE
8
FURN_CHAIR
62
2
10
6200.00
20
1800.00
30
0.0
11
6760.00
21
1800.00
31
0.0
0
LINE
8
FURN_CHAIR
62
2
10
6760.00
20
1800.00
30
0.0
11
6760.00
21
2400.00
31
0.0
0
LINE
8
FURN_CHAIR
62
2
10
6760.00
20
2400.00
30
0.0
11
6200.00
21
2400.00
31
0.0
0
LINE
8
FURN_CHAIR
62
2
10
6200.00
20
2400.00
30
0.0
11
6200.00
21
1800.00
31
0.0
0
TEXT
8
ANNOTATIONS
62
2
10
6280.00
20
2100.00
30
0.0
40
90.00
1
NW-CHA-010
(F13)
0
LINE
8
FURN_CHAIR
62
2
10
7000.00
20
1800.00
30
0.0
11
7560.00
21
1800.00
31
0.0
0
LINE
8
FURN_CHAIR
62
2
10
7560.00
20
1800.00
30
0.0
11
7560.00
21
2400.00
31
0.0
0
LINE
8
FURN_CHAIR
62
2
10
7560.00
20
2400.00
30
0.0
11
7000.00
21
2400.00
31
0.0
0
LINE
8
FURN_CHAIR
62
2
10
7000.00
20
2400.00
30
0.0
11
7000.00
21
1800.00
31
0.0
0
TEXT
8
ANNOTATIONS
62
2
10
7080.00
20
2100.00
30
0.0
40
90.00
1
NW-CHA-010
(F13)
0
LINE
8
FURN_CHAIR
62
2
10
7000.00
20
3400.00
30
0.0
11
7560.00
21
3400.00
31
0.0
0
LINE
8
FURN_CHAIR
62
2
10
7560.00
20
3400.00
30
0.0
11
7560.00
21
4000.00
31
0.0
0
LINE
8
FURN_CHAIR
62
2
10
7560.00
20
4000.00
30
0.0
11
7000.00
21
4000.00
31
0.0
0
LINE
8
FURN_CHAIR
62
2
10
7000.00
20
4000.00
30
0.0
11
7000.00
21
3400.00
31
0.0
0
TEXT
8
ANNOTATIONS
62
2
10
7080.00
20
3700.00
30
0.0
40
90.00
1
NW-CHA-010
(F13)
0
LINE
8
FURN_CHAIR
62
2
10
5180.00
20
4780.00
30
0.0
11
5740.00
21
4780.00
31
0.0
0
LINE
8
FURN_CHAIR
62
2
10
5740.00
20
4780.00
30
0.0
11
5740.00
21
5380.00
31
0.0
0
LINE
8
FURN_CHAIR
62
2
10
5740.00
20
5380.00
30
0.0
11
5180.00
21
5380.00
31
0.0
0
LINE
8
FURN_CHAIR
62
2
10
5180.00
20
5380.00
30
0.0
11
5180.00
21
4780.00
31
0.0
0
TEXT
8
ANNOTATIONS
62
2
10
5260.00
20
5080.00
30
0.0
40
90.00
1
NW-CHA-010
(F13)
0
LINE
8
FURN_CHAIR
62
2
10
3920.00
20
1520.00
30
0.0
11
4480.00
21
1520.00
31
0.0
0
LINE
8
FURN_CHAIR
62
2
10
4480.00
20
1520.00
30
0.0
11
4480.00
21
2120.00
31
0.0
0
LINE
8
FURN_CHAIR
62
2
10
4480.00
20
2120.00
30
0.0
11
3920.00
21
2120.00
31
0.0
0
LINE
8
FURN_CHAIR
62
2
10
3920.00
20
2120.00
30
0.0
11
3920.00
21
1520.00
31
0.0
0
TEXT
8
ANNOTATIONS
62
2
10
4000.00
20
1820.00
30
0.0
40
90.00
1
NW-CHA-010
(F13)
0
LINE
8
FURN_CHAIR
62
2
10
8330.00
20
1560.00
30
0.0
11
8890.00
21
1560.00
31
0.0
0
LINE
8
FURN_CHAIR
62
2
10
8890.00
20
1560.00
30
0.0
11
8890.00
21
2160.00
31
0.0
0
LINE
8
FURN_CHAIR
62
2
10
8890.00
20
2160.00
30
0.0
11
8330.00
21
2160.00
31
0.0
0
LINE
8
FURN_CHAIR
62
2
10
8330.00
20
2160.00
30
0.0
11
8330.00
21
1560.00
31
0.0
0
TEXT
8
ANNOTATIONS
62
2
10
8410.00
20
1860.00
30
0.0
40
90.00
1
NW-CHA-010
(F13)
0
LINE
8
FURN_CHAIR
62
2
10
1920.00
20
920.00
30
0.0
11
2480.00
21
920.00
31
0.0
0
LINE
8
FURN_CHAIR
62
2
10
2480.00
20
920.00
30
0.0
11
2480.00
21
1520.00
31
0.0
0
LINE
8
FURN_CHAIR
62
2
10
2480.00
20
1520.00
30
0.0
11
1920.00
21
1520.00
31
0.0
0
LINE
8
FURN_CHAIR
62
2
10
1920.00
20
1520.00
30
0.0
11
1920.00
21
920.00
31
0.0
0
TEXT
8
ANNOTATIONS
62
2
10
2000.00
20
1220.00
30
0.0
40
90.00
1
NW-CHA-010
(F13)
0
LINE
8
FURN_CHAIR
62
2
10
2520.00
20
920.00
30
0.0
11
3080.00
21
920.00
31
0.0
0
LINE
8
FURN_CHAIR
62
2
10
3080.00
20
920.00
30
0.0
11
3080.00
21
1520.00
31
0.0
0
LINE
8
FURN_CHAIR
62
2
10
3080.00
20
1520.00
30
0.0
11
2520.00
21
1520.00
31
0.0
0
LINE
8
FURN_CHAIR
62
2
10
2520.00
20
1520.00
30
0.0
11
2520.00
21
920.00
31
0.0
0
TEXT
8
ANNOTATIONS
62
2
10
2600.00
20
1220.00
30
0.0
40
90.00
1
NW-CHA-010
(F13)
0
LINE
8
FURN_CHAIR
62
2
10
3120.00
20
920.00
30
0.0
11
3680.00
21
920.00
31
0.0
0
LINE
8
FURN_CHAIR
62
2
10
3680.00
20
920.00
30
0.0
11
3680.00
21
1520.00
31
0.0
0
LINE
8
FURN_CHAIR
62
2
10
3680.00
20
1520.00
30
0.0
11
3120.00
21
1520.00
31
0.0
0
LINE
8
FURN_CHAIR
62
2
10
3120.00
20
1520.00
30
0.0
11
3120.00
21
920.00
31
0.0
0
TEXT
8
ANNOTATIONS
62
2
10
3200.00
20
1220.00
30
0.0
40
90.00
1
NW-CHA-010
(F13)
0
LINE
8
FURN_CHAIR
62
2
10
3720.00
20
920.00
30
0.0
11
4280.00
21
920.00
31
0.0
0
LINE
8
FURN_CHAIR
62
2
10
4280.00
20
920.00
30
0.0
11
4280.00
21
1520.00
31
0.0
0
LINE
8
FURN_CHAIR
62
2
10
4280.00
20
1520.00
30
0.0
11
3720.00
21
1520.00
31
0.0
0
LINE
8
FURN_CHAIR
62
2
10
3720.00
20
1520.00
30
0.0
11
3720.00
21
920.00
31
0.0
0
TEXT
8
ANNOTATIONS
62
2
10
3800.00
20
1220.00
30
0.0
40
90.00
1
NW-CHA-010
(F13)
0
LINE
8
FURN_STORAGE
62
6
10
4320.00
20
920.00
30
0.0
11
5120.00
21
920.00
31
0.0
0
LINE
8
FURN_STORAGE
62
6
10
5120.00
20
920.00
30
0.0
11
5120.00
21
1370.00
31
0.0
0
LINE
8
FURN_STORAGE
62
6
10
5120.00
20
1370.00
30
0.0
11
4320.00
21
1370.00
31
0.0
0
LINE
8
FURN_STORAGE
62
6
10
4320.00
20
1370.00
30
0.0
11
4320.00
21
920.00
31
0.0
0
TEXT
8
ANNOTATIONS
62
6
10
4520.00
20
1145.00
30
0.0
40
90.00
1
NW-STO-005
(F05)
0
LINE
8
FURN_STORAGE
62
6
10
5120.00
20
1320.00
30
0.0
11
5920.00
21
1320.00
31
0.0
0
LINE
8
FURN_STORAGE
62
6
10
5920.00
20
1320.00
30
0.0
11
5920.00
21
1770.00
31
0.0
0
LINE
8
FURN_STORAGE
62
6
10
5920.00
20
1770.00
30
0.0
11
5120.00
21
1770.00
31
0.0
0
LINE
8
FURN_STORAGE
62
6
10
5120.00
20
1770.00
30
0.0
11
5120.00
21
1320.00
31
0.0
0
TEXT
8
ANNOTATIONS
62
6
10
5320.00
20
1545.00
30
0.0
40
90.00
1
NW-STO-005
(F05)
0
LINE
8
FURN_STORAGE
62
6
10
5920.00
20
1320.00
30
0.0
11
6720.00
21
1320.00
31
0.0
0
LINE
8
FURN_STORAGE
62
6
10
6720.00
20
1320.00
30
0.0
11
6720.00
21
1770.00
31
0.0
0
LINE
8
FURN_STORAGE
62
6
10
6720.00
20
1770.00
30
0.0
11
5920.00
21
1770.00
31
0.0
0
LINE
8
FURN_STORAGE
62
6
10
5920.00
20
1770.00
30
0.0
11
5920.00
21
1320.00
31
0.0
0
TEXT
8
ANNOTATIONS
62
6
10
6120.00
20
1545.00
30
0.0
40
90.00
1
NW-STO-005
(F05)
0
LINE
8
FURN_STORAGE
62
6
10
6720.00
20
1320.00
30
0.0
11
7520.00
21
1320.00
31
0.0
0
LINE
8
FURN_STORAGE
62
6
10
7520.00
20
1320.00
30
0.0
11
7520.00
21
1770.00
31
0.0
0
LINE
8
FURN_STORAGE
62
6
10
7520.00
20
1770.00
30
0.0
11
6720.00
21
1770.00
31
0.0
0
LINE
8
FURN_STORAGE
62
6
10
6720.00
20
1770.00
30
0.0
11
6720.00
21
1320.00
31
0.0
0
TEXT
8
ANNOTATIONS
62
6
10
6920.00
20
1545.00
30
0.0
40
90.00
1
NW-STO-005
(F05)
0
LINE
8
FURN_ACCESSORY
62
8
10
1120.00
20
920.00
30
0.0
11
1570.00
21
920.00
31
0.0
0
LINE
8
FURN_ACCESSORY
62
8
10
1570.00
20
920.00
30
0.0
11
1570.00
21
1170.00
31
0.0
0
LINE
8
FURN_ACCESSORY
62
8
10
1570.00
20
1170.00
30
0.0
11
1120.00
21
1170.00
31
0.0
0
LINE
8
FURN_ACCESSORY
62
8
10
1120.00
20
1170.00
30
0.0
11
1120.00
21
920.00
31
0.0
0
TEXT
8
ANNOTATIONS
62
8
10
1145.00
20
1045.00
30
0.0
40
90.00
1
NW-ACC-006
(F02)
0
LINE
8
FURN_ACCESSORY
62
8
10
7520.00
20
1320.00
30
0.0
11
7970.00
21
1320.00
31
0.0
0
LINE
8
FURN_ACCESSORY
62
8
10
7970.00
20
1320.00
30
0.0
11
7970.00
21
1570.00
31
0.0
0
LINE
8
FURN_ACCESSORY
62
8
10
7970.00
20
1570.00
30
0.0
11
7520.00
21
1570.00
31
0.0
0
LINE
8
FURN_ACCESSORY
62
8
10
7520.00
20
1570.00
30
0.0
11
7520.00
21
1320.00
31
0.0
0
TEXT
8
ANNOTATIONS
62
8
10
7545.00
20
1445.00
30
0.0
40
90.00
1
NW-ACC-006
(F02)
0
LINE
8
FURN_ACCESSORY
62
8
10
8120.00
20
1320.00
30
0.0
11
8570.00
21
1320.00
31
0.0
0
LINE
8
FURN_ACCESSORY
62
8
10
8570.00
20
1320.00
30
0.0
11
8570.00
21
1570.00
31
0.0
0
LINE
8
FURN_ACCESSORY
62
8
10
8570.00
20
1570.00
30
0.0
11
8120.00
21
1570.00
31
0.0
0
LINE
8
FURN_ACCESSORY
62
8
10
8120.00
20
1570.00
30
0.0
11
8120.00
21
1320.00
31
0.0
0
TEXT
8
ANNOTATIONS
62
8
10
8145.00
20
1445.00
30
0.0
40
90.00
1
NW-ACC-006
(F02)
0
ENDSEC
0
EOF
